<mxfile host="Electron" modified="2023-10-21T16:40:30.756Z" agent="Mozilla/5.0 (Windows NT 10.0; Win64; x64) AppleWebKit/537.36 (KHTML, like Gecko) draw.io/22.0.3 Chrome/114.0.5735.289 Electron/25.8.4 Safari/537.36" etag="nwvP4zg8LE-dgNSLFBKV" version="22.0.3" type="device">
  <diagram name="PÃ¡gina-1" id="_0w_KVnQpHgoPo2nd0rP">
    <mxGraphModel dx="2607" dy="1553" grid="1" gridSize="10" guides="1" tooltips="1" connect="1" arrows="1" fold="1" page="1" pageScale="1" pageWidth="1654" pageHeight="1169" math="0" shadow="0">
      <root>
        <mxCell id="0" />
        <mxCell id="1" parent="0" />
        <mxCell id="daVYDinwcuLWMbio0a9W-55" value="" style="rounded=1;arcSize=10;dashed=1;strokeColor=#0066CC;fillColor=none;gradientColor=none;dashPattern=8 4;strokeWidth=2;container=0;" vertex="1" parent="1">
          <mxGeometry x="930" y="486.75" width="144.75" height="166.73" as="geometry" />
        </mxCell>
        <mxCell id="daVYDinwcuLWMbio0a9W-5" value="Customer" style="shape=umlActor;verticalLabelPosition=bottom;verticalAlign=top;html=1;outlineConnect=0;" vertex="1" parent="1">
          <mxGeometry x="1503.0062805303558" y="535.6576923076923" width="31.381716678297277" height="66.6923076923077" as="geometry" />
        </mxCell>
        <mxCell id="daVYDinwcuLWMbio0a9W-12" value="Storage, Ingest, Transform" style="swimlane;whiteSpace=wrap;html=1;fontSize=15;labelBackgroundColor=default;container=0;" vertex="1" parent="1">
          <mxGeometry x="429.75157013258894" y="270" width="669.4766224703419" height="578" as="geometry" />
        </mxCell>
        <mxCell id="daVYDinwcuLWMbio0a9W-50" value="" style="group" vertex="1" connectable="0" parent="1">
          <mxGeometry x="72" y="393.93461538461537" width="261.5143056524773" height="333.46153846153845" as="geometry" />
        </mxCell>
        <mxCell id="daVYDinwcuLWMbio0a9W-9" value="&lt;font style=&quot;font-size: 15px;&quot;&gt;Data Source&lt;/font&gt;" style="swimlane;whiteSpace=wrap;html=1;container=0;" vertex="1" parent="daVYDinwcuLWMbio0a9W-50">
          <mxGeometry y="-3.3346153846153848" width="261.5143056524773" height="333.46153846153845" as="geometry" />
        </mxCell>
        <mxCell id="daVYDinwcuLWMbio0a9W-31" value="" style="sketch=0;html=1;dashed=0;whitespace=wrap;fillColor=#2875E2;strokeColor=#ffffff;points=[[0.005,0.63,0],[0.1,0.2,0],[0.9,0.2,0],[0.5,0,0],[0.995,0.63,0],[0.72,0.99,0],[0.5,1,0],[0.28,0.99,0]];verticalLabelPosition=bottom;align=center;verticalAlign=top;shape=mxgraph.kubernetes.icon;prIcon=api;hachureGap=4;jiggle=2;curveFitting=1;fontFamily=Architects Daughter;fontSource=https%3A%2F%2Ffonts.googleapis.com%2Fcss%3Ffamily%3DArchitects%2BDaughter;fontSize=20;container=0;" vertex="1" parent="daVYDinwcuLWMbio0a9W-9">
          <mxGeometry x="73.22400558269365" y="131.71730769230768" width="88.91486392184228" height="97.25961538461539" as="geometry" />
        </mxCell>
        <mxCell id="daVYDinwcuLWMbio0a9W-53" value="" style="group" vertex="1" connectable="0" parent="1">
          <mxGeometry x="1191.2812281926028" y="391.93461538461537" width="261.5143056524773" height="333.46153846153845" as="geometry" />
        </mxCell>
        <mxCell id="daVYDinwcuLWMbio0a9W-45" value="Visualize" style="swimlane;whiteSpace=wrap;html=1;container=0;fontSize=15;" vertex="1" parent="daVYDinwcuLWMbio0a9W-53">
          <mxGeometry y="-3.3346153846153848" width="261.5143056524773" height="333.46153846153845" as="geometry" />
        </mxCell>
        <mxCell id="daVYDinwcuLWMbio0a9W-47" value="" style="shape=image;verticalLabelPosition=bottom;labelBackgroundColor=default;verticalAlign=top;aspect=fixed;imageAspect=0;image=https://analyticstraininghub.com/wp-content/uploads/2020/10/icon-tableau.png;container=0;" vertex="1" parent="daVYDinwcuLWMbio0a9W-45">
          <mxGeometry x="85.2536636427076" y="135.6076923076923" width="91.0069783670621" height="91.0069783670621" as="geometry" />
        </mxCell>
        <mxCell id="daVYDinwcuLWMbio0a9W-74" style="edgeStyle=orthogonalEdgeStyle;rounded=1;hachureGap=4;orthogonalLoop=1;jettySize=auto;html=1;exitX=1;exitY=0.5;exitDx=0;exitDy=0;entryX=0;entryY=0.5;entryDx=0;entryDy=0;fontFamily=Architects Daughter;fontSource=https%3A%2F%2Ffonts.googleapis.com%2Fcss%3Ffamily%3DArchitects%2BDaughter;fontSize=16;" edge="1" parent="1" source="daVYDinwcuLWMbio0a9W-44" target="daVYDinwcuLWMbio0a9W-47">
          <mxGeometry relative="1" as="geometry" />
        </mxCell>
        <mxCell id="daVYDinwcuLWMbio0a9W-92" value="&lt;font style=&quot;font-size: 12px;&quot;&gt;ip interna 7&lt;/font&gt;" style="edgeLabel;html=1;align=center;verticalAlign=middle;resizable=0;points=[];fontSize=12;fontFamily=Helvetica;" vertex="1" connectable="0" parent="daVYDinwcuLWMbio0a9W-74">
          <mxGeometry x="-0.1662" y="-1" relative="1" as="geometry">
            <mxPoint x="-6" y="-2" as="offset" />
          </mxGeometry>
        </mxCell>
        <mxCell id="daVYDinwcuLWMbio0a9W-75" value="" style="image;aspect=fixed;perimeter=ellipsePerimeter;html=1;align=center;shadow=0;dashed=0;spacingTop=3;image=img/lib/active_directory/laptop_client.svg;hachureGap=4;fontFamily=Architects Daughter;fontSource=https%3A%2F%2Ffonts.googleapis.com%2Fcss%3Ffamily%3DArchitects%2BDaughter;fontSize=20;" vertex="1" parent="1">
          <mxGeometry x="1523.927424982554" y="526.7653846153846" width="47.072575017445914" height="52.30286113049546" as="geometry" />
        </mxCell>
        <mxCell id="daVYDinwcuLWMbio0a9W-76" style="edgeStyle=orthogonalEdgeStyle;rounded=1;hachureGap=4;orthogonalLoop=1;jettySize=auto;html=1;exitX=1;exitY=0.5;exitDx=0;exitDy=0;fontFamily=Architects Daughter;fontSource=https%3A%2F%2Ffonts.googleapis.com%2Fcss%3Ffamily%3DArchitects%2BDaughter;fontSize=16;startArrow=classic;startFill=1;" edge="1" parent="1" source="daVYDinwcuLWMbio0a9W-47" target="daVYDinwcuLWMbio0a9W-5">
          <mxGeometry relative="1" as="geometry" />
        </mxCell>
        <mxCell id="daVYDinwcuLWMbio0a9W-95" value="&lt;font face=&quot;Helvetica&quot; style=&quot;font-size: 12px;&quot;&gt;ip externa 2&lt;/font&gt;" style="edgeLabel;html=1;align=center;verticalAlign=middle;resizable=0;points=[];fontSize=20;fontFamily=Architects Daughter;" vertex="1" connectable="0" parent="daVYDinwcuLWMbio0a9W-76">
          <mxGeometry x="0.0354" relative="1" as="geometry">
            <mxPoint y="-3" as="offset" />
          </mxGeometry>
        </mxCell>
        <mxCell id="daVYDinwcuLWMbio0a9W-79" style="edgeStyle=orthogonalEdgeStyle;rounded=1;hachureGap=4;orthogonalLoop=1;jettySize=auto;html=1;exitX=0.995;exitY=0.63;exitDx=0;exitDy=0;exitPerimeter=0;entryX=0;entryY=0.25;entryDx=0;entryDy=0;fontFamily=Architects Daughter;fontSource=https%3A%2F%2Ffonts.googleapis.com%2Fcss%3Ffamily%3DArchitects%2BDaughter;fontSize=16;startArrow=none;startFill=0;" edge="1" parent="1" source="daVYDinwcuLWMbio0a9W-31" target="daVYDinwcuLWMbio0a9W-37">
          <mxGeometry relative="1" as="geometry" />
        </mxCell>
        <mxCell id="daVYDinwcuLWMbio0a9W-93" value="&lt;font face=&quot;Helvetica&quot; style=&quot;font-size: 12px;&quot;&gt;ip externa 1&lt;/font&gt;" style="edgeLabel;html=1;align=center;verticalAlign=middle;resizable=0;points=[];fontSize=20;fontFamily=Architects Daughter;" vertex="1" connectable="0" parent="daVYDinwcuLWMbio0a9W-79">
          <mxGeometry x="-0.028" y="1" relative="1" as="geometry">
            <mxPoint x="6" as="offset" />
          </mxGeometry>
        </mxCell>
        <mxCell id="daVYDinwcuLWMbio0a9W-80" style="edgeStyle=orthogonalEdgeStyle;rounded=1;hachureGap=4;orthogonalLoop=1;jettySize=auto;html=1;exitX=0;exitY=0.5;exitDx=0;exitDy=0;exitPerimeter=0;entryX=0.5;entryY=1;entryDx=0;entryDy=0;entryPerimeter=0;fontFamily=Architects Daughter;fontSource=https%3A%2F%2Ffonts.googleapis.com%2Fcss%3Ffamily%3DArchitects%2BDaughter;fontSize=16;" edge="1" parent="1" source="daVYDinwcuLWMbio0a9W-57" target="daVYDinwcuLWMbio0a9W-31">
          <mxGeometry relative="1" as="geometry" />
        </mxCell>
        <mxCell id="daVYDinwcuLWMbio0a9W-86" value="&lt;font style=&quot;font-size: 12px;&quot; face=&quot;Helvetica&quot;&gt;api.company.com&lt;/font&gt;" style="edgeLabel;html=1;align=center;verticalAlign=middle;resizable=0;points=[];fontSize=20;fontFamily=Architects Daughter;" vertex="1" connectable="0" parent="daVYDinwcuLWMbio0a9W-80">
          <mxGeometry x="-0.1309" y="-2" relative="1" as="geometry">
            <mxPoint x="-11" y="-1" as="offset" />
          </mxGeometry>
        </mxCell>
        <mxCell id="daVYDinwcuLWMbio0a9W-54" value="ETL environment" style="rounded=1;arcSize=10;dashed=1;strokeColor=#0066CC;fillColor=none;gradientColor=none;dashPattern=8 4;strokeWidth=2;verticalAlign=top;fontStyle=4;fontSize=14;" vertex="1" parent="1">
          <mxGeometry x="460.9015701325889" y="325.58" width="448.85" height="489.08" as="geometry" />
        </mxCell>
        <mxCell id="daVYDinwcuLWMbio0a9W-64" style="edgeStyle=orthogonalEdgeStyle;rounded=1;hachureGap=4;orthogonalLoop=1;jettySize=auto;html=1;exitX=0.5;exitY=0;exitDx=0;exitDy=0;entryX=0;entryY=0.5;entryDx=0;entryDy=0;fontFamily=Architects Daughter;fontSource=https%3A%2F%2Ffonts.googleapis.com%2Fcss%3Ffamily%3DArchitects%2BDaughter;fontSize=16;" edge="1" parent="1" source="daVYDinwcuLWMbio0a9W-37" target="daVYDinwcuLWMbio0a9W-38">
          <mxGeometry relative="1" as="geometry" />
        </mxCell>
        <mxCell id="daVYDinwcuLWMbio0a9W-87" value="&lt;font style=&quot;font-size: 12px;&quot; face=&quot;Helvetica&quot;&gt;ip interna 3&lt;/font&gt;" style="edgeLabel;html=1;align=center;verticalAlign=middle;resizable=0;points=[];fontSize=20;fontFamily=Architects Daughter;" vertex="1" connectable="0" parent="daVYDinwcuLWMbio0a9W-64">
          <mxGeometry x="0.162" y="2" relative="1" as="geometry">
            <mxPoint y="-2" as="offset" />
          </mxGeometry>
        </mxCell>
        <mxCell id="daVYDinwcuLWMbio0a9W-37" value="Cloud&lt;br&gt;Storage&lt;br&gt;(raw)" style="sketch=0;html=1;verticalAlign=top;labelPosition=center;verticalLabelPosition=bottom;align=center;spacingTop=-6;fontSize=11;fontStyle=1;fontColor=#999999;shape=image;aspect=fixed;imageAspect=0;image=data:image/svg+xml,PHN2ZyB4bWxucz0iaHR0cDovL3d3dy53My5vcmcvMjAwMC9zdmciIHhtbG5zOnY9Imh0dHBzOi8vdmVjdGEuaW8vbmFubyIgd2lkdGg9IjIwIiBoZWlnaHQ9IjE2IiB2aWV3Qm94PSIwIDAgMjAgMTYiPiYjeGE7CTxzdHlsZSB0eXBlPSJ0ZXh0L2NzcyI+JiN4YTsJLnN0MHtmaWxsOiM0Mjg1ZjQ7fSYjeGE7CS5zdDF7ZmlsbDojNjY5ZGY2O30mI3hhOwkuc3Qye2ZpbGw6I2FlY2JmYTt9JiN4YTsJLnN0M3tmaWxsOiNmZmY7fSYjeGE7CTwvc3R5bGU+JiN4YTsJPHBhdGggY2xhc3M9InN0MiIgZD0iTTAgMGgyMHY3SDB6Ii8+JiN4YTsJPHBhdGggY2xhc3M9InN0MSIgZD0iTTE4IDBoMnY3aC0yeiIvPiYjeGE7CTxwYXRoIGNsYXNzPSJzdDAiIGQ9Ik0xOCA3bDItN2gtMnoiLz4mI3hhOwk8cGF0aCBjbGFzcz0ic3QxIiBkPSJNMCAwaDJ2N0gweiIvPiYjeGE7CTxnIGNsYXNzPSJzdDMiPiYjeGE7CQk8cGF0aCBkPSJNNCAzaDZ2MUg0eiIvPiYjeGE7CQk8cmVjdCB4PSIxMyIgeT0iMiIgd2lkdGg9IjMiIGhlaWdodD0iMyIgcng9IjEuNSIvPiYjeGE7CTwvZz4mI3hhOwk8cGF0aCBjbGFzcz0ic3QyIiBkPSJNMCA5aDIwdjdIMHoiLz4mI3hhOwk8cGF0aCBjbGFzcz0ic3QxIiBkPSJNMTggOWgydjdoLTJ6Ii8+JiN4YTsJPHBhdGggY2xhc3M9InN0MCIgZD0iTTE4IDE2bDItN2gtMnoiLz4mI3hhOwk8cGF0aCBjbGFzcz0ic3QxIiBkPSJNMCA5aDJ2N0gweiIvPiYjeGE7CTxnIGNsYXNzPSJzdDMiPiYjeGE7CQk8cGF0aCBkPSJNNCAxMmg2djFINHoiLz4mI3hhOwkJPHJlY3QgeD0iMTMiIHk9IjExIiB3aWR0aD0iMyIgaGVpZ2h0PSIzIiByeD0iMS41Ii8+JiN4YTsJPC9nPiYjeGE7PC9zdmc+;hachureGap=4;jiggle=2;curveFitting=1;fontFamily=Helvetica;" vertex="1" parent="1">
          <mxGeometry x="507.9755757152826" y="464.9856923076923" width="75.31612002791346" height="60.97467550593161" as="geometry" />
        </mxCell>
        <mxCell id="daVYDinwcuLWMbio0a9W-68" style="edgeStyle=orthogonalEdgeStyle;rounded=1;hachureGap=4;orthogonalLoop=1;jettySize=auto;html=1;exitX=1;exitY=0.5;exitDx=0;exitDy=0;entryX=0;entryY=0.5;entryDx=0;entryDy=0;fontFamily=Architects Daughter;fontSource=https%3A%2F%2Ffonts.googleapis.com%2Fcss%3Ffamily%3DArchitects%2BDaughter;fontSize=16;" edge="1" parent="1" source="daVYDinwcuLWMbio0a9W-48" target="daVYDinwcuLWMbio0a9W-44">
          <mxGeometry relative="1" as="geometry">
            <Array as="points">
              <mxPoint x="890" y="495" />
              <mxPoint x="890" y="570" />
              <mxPoint x="950" y="570" />
            </Array>
          </mxGeometry>
        </mxCell>
        <mxCell id="daVYDinwcuLWMbio0a9W-91" value="&lt;font style=&quot;font-size: 12px;&quot; face=&quot;Helvetica&quot;&gt;ip interna 6&lt;/font&gt;" style="edgeLabel;html=1;align=center;verticalAlign=middle;resizable=0;points=[];fontSize=20;fontFamily=Architects Daughter;" vertex="1" connectable="0" parent="daVYDinwcuLWMbio0a9W-68">
          <mxGeometry x="-0.1623" relative="1" as="geometry">
            <mxPoint as="offset" />
          </mxGeometry>
        </mxCell>
        <mxCell id="daVYDinwcuLWMbio0a9W-48" value="Cloud&lt;br&gt;Storage&lt;br&gt;(data already processed)" style="sketch=0;html=1;verticalAlign=top;labelPosition=center;verticalLabelPosition=bottom;align=center;spacingTop=-6;fontSize=11;fontStyle=1;fontColor=#999999;shape=image;aspect=fixed;imageAspect=0;image=data:image/svg+xml,PHN2ZyB4bWxucz0iaHR0cDovL3d3dy53My5vcmcvMjAwMC9zdmciIHhtbG5zOnY9Imh0dHBzOi8vdmVjdGEuaW8vbmFubyIgd2lkdGg9IjIwIiBoZWlnaHQ9IjE2IiB2aWV3Qm94PSIwIDAgMjAgMTYiPiYjeGE7CTxzdHlsZSB0eXBlPSJ0ZXh0L2NzcyI+JiN4YTsJLnN0MHtmaWxsOiM0Mjg1ZjQ7fSYjeGE7CS5zdDF7ZmlsbDojNjY5ZGY2O30mI3hhOwkuc3Qye2ZpbGw6I2FlY2JmYTt9JiN4YTsJLnN0M3tmaWxsOiNmZmY7fSYjeGE7CTwvc3R5bGU+JiN4YTsJPHBhdGggY2xhc3M9InN0MiIgZD0iTTAgMGgyMHY3SDB6Ii8+JiN4YTsJPHBhdGggY2xhc3M9InN0MSIgZD0iTTE4IDBoMnY3aC0yeiIvPiYjeGE7CTxwYXRoIGNsYXNzPSJzdDAiIGQ9Ik0xOCA3bDItN2gtMnoiLz4mI3hhOwk8cGF0aCBjbGFzcz0ic3QxIiBkPSJNMCAwaDJ2N0gweiIvPiYjeGE7CTxnIGNsYXNzPSJzdDMiPiYjeGE7CQk8cGF0aCBkPSJNNCAzaDZ2MUg0eiIvPiYjeGE7CQk8cmVjdCB4PSIxMyIgeT0iMiIgd2lkdGg9IjMiIGhlaWdodD0iMyIgcng9IjEuNSIvPiYjeGE7CTwvZz4mI3hhOwk8cGF0aCBjbGFzcz0ic3QyIiBkPSJNMCA5aDIwdjdIMHoiLz4mI3hhOwk8cGF0aCBjbGFzcz0ic3QxIiBkPSJNMTggOWgydjdoLTJ6Ii8+JiN4YTsJPHBhdGggY2xhc3M9InN0MCIgZD0iTTE4IDE2bDItN2gtMnoiLz4mI3hhOwk8cGF0aCBjbGFzcz0ic3QxIiBkPSJNMCA5aDJ2N0gweiIvPiYjeGE7CTxnIGNsYXNzPSJzdDMiPiYjeGE7CQk8cGF0aCBkPSJNNCAxMmg2djFINHoiLz4mI3hhOwkJPHJlY3QgeD0iMTMiIHk9IjExIiB3aWR0aD0iMyIgaGVpZ2h0PSIzIiByeD0iMS41Ii8+JiN4YTsJPC9nPiYjeGE7PC9zdmc+;hachureGap=4;jiggle=2;curveFitting=1;fontFamily=Helvetica;" vertex="1" parent="1">
          <mxGeometry x="779.950453593859" y="464.4076923076923" width="75.31612002791346" height="60.97467550593161" as="geometry" />
        </mxCell>
        <mxCell id="daVYDinwcuLWMbio0a9W-44" value="" style="shape=image;verticalLabelPosition=bottom;labelBackgroundColor=default;verticalAlign=top;aspect=fixed;imageAspect=0;image=data:image/webp,UklGRpQKAABXRUJQVlA4TIcKAAAvPYEnAB+BoG3bbOOP+G9SGorbRlK2/z4Pn8twQCBps/fvfOc/+p0bAgN/CFrRKYRC5dXdmQb+oBh4g2MRhjo9eazmIzCBmzvui+BNjEJEaMDbbds6q23bNkwhid0iQiwszN57/v+vNE1Zx9rXVnK+bhH9nwD76/+//v/r///TNnVxzr1XynGdu9Ne1i3rWLxRSgnUlIbcLECo3ianhQCge+guAKRP3iUXBDgG3IDgM3+XXBHkFBoZOr9rBPANgz0SeHtkVX1JDjACALjnLnWVvR0aL2E4x/AQds4DJF+/GUoRoNTne+Br8p4iCJS/26V+DHdnZlnXuG9y97v7BZJPAQAh37jvcHcvACA0/Gaug6RnY2ajns031Xo2v4AbuQEB+argBhECN0Xlhf3lF0sGEcSzNbOV6r+pk/pfwHoFtsSMY8EZsRp+sRKAn6f+9CdxIcHQlgB4hGCM/PUX+xSnzMIr/hCsnBUFEDgSr7mw39stVGV7/FOwUwtFIYpHhHtqv3gKKP8DMUs7LwB8gQIMUP7h7Fc/CU8XgT8Is+soIjKCMcR4sV9+Y38oZsUoEOAxBqixsF/fHeAfhrl6FhHUGEgGgdhqqZ398uXj0RPq+74O4T/tNH6e/m2SqqnzCDN39wrVAatFANB6dxZ9qpsqPZBcqltTF0lE1hRmlhZ101TnFyTXqmmaMtsrm/Qbqpszs1ySAEhSGeCBvGqaW5UHiiZ7QTZLTYS71k3TVPnPykdJ/pFFmGWdF6TehWwUKP9ILTptV0lzEeNuMyQJc+1CyfD0+an1kASM5QF3mwFJ8MM12Vzx7JOX1XreNxSxIV7hyslTEv1UObvgOR5LZ5HVTt6uXpLop8r9oFEkqPWeRJhdu2msne26epy6i8XXswBAa7KXjSKp4JgHTjPRzgIDQht1nURSEik8NoXg81e5UerMzJppmgBM09Qmh04jhI1IDVkh+ORIOgrqklC9isQG1HT9MWchSK2Vi9hN6r7L7IVJsQjhZ7njVoEYu/YxgUK+Sb8AkPLj5+cMQoPbq0TKj5+PzxmkpswsWaj7qy6ALhszOwlP24+5rgLx9fn4/IIg34rrETcLahPbukGA/PjZf84QiOqnFDsANBaHOklzdiwfSOzVO80TmovEzFy5SH2ymQlAXZ6YpeUqqN0pQKi/JGaWloug0Zm14vyqVljsRdjJF1Fj4czMXQeBBI64UdBg4UEQ7mdnZmkxikD1Q1IAYADUeIlKOhHQkh/IewkAd86hZCQXZ2E3+NYCAHxpYTcIugZyT/rSdpNe0MMs90AR4U4RbqGaVzGUTAJa26+x9XGnUVCXhNonNOa2X3lC559hnYgwAfnHKaIDAILLKca1qxCrwcLpTLW2n+TJnm62n65Uv0keoi8t0vUCr+YGqd3LvtZqr/Tw52+qBd0t9sZDyQBqSCx48eB0stgS0OB+RtJADATl7y7UidBKQnO+4+pVALgjdC5qiNhNZ3BOIqwm18zMckB3i04ADWaVuKQ7nbScdnppsFchkM7EaNFJL8a5QVDvLDyIPrf4u4jiZ5hlD68IUEuVmCWdAAxJCYBLFihmEJHEcLbIQVCXH/qi7habeeBqZq3gkzi7CT63BFQZOnlCVSj1UPlNJYgiznIAa0QyCBqchVNAdzvoFmr4KWbXUdzh9mZWANDgzCqAemxKkNinliKx2OJJyD8+XNxMlFHJDP1jZl9SZwezlarMBmkI3QRoCn08AfdNrTglB2wiI5JO0Ohs90NEkWbxaU/65MeYFV8iAWJLOftHwLMws2Qm9JmY2UpsudH8kdjBGwRKGMosroiyL25OK/HPkWSkWrMC9PnGzQCIIjBSncU8XzFSnR29C36vF+Bz22+FIEkCJEgA4PkHmasQ+yztCoDjyawBoM7MckTfUzteLBJJaXnke3jN2cNfj1gv9WbuC6o3JQAPPTYXDxRRimNggW6Hqj32dwFQH/HAliSxAQgCVPGTLn3c1awCofl8F6AxMbNsh5uheIFZ8VggEFKXBL54CCG+4BGwuzhtRqmvBZ+Z2V2Ykji+gqoPlXvwAj2Idq8X4F+4ju7nnFovcI8+MbMbSHoAGk62nRUIEo/8BWanSztDgPrkRdxknigODVJnZjmo3CwHVCSA7ma2QI3F4QUT1R66RQBcLqPIYqcTpjx7obOf6ppViKR8YdsaQY2JBfNFjBHu6Qu21x6E6s18DJtkhm5H0hmqzcxGqjXrxCWxTpydnQVk34BALw2HBnENUUtumSfXPHQT19T+NZNqlhAkQKHPLFyBgAZnu+nDa0OCILXe3EvMSlDT5usYN9YLy5ES9NdNBc6nbKVuZhcPVdZJQ/INDFSEzw84EHtrbmYfHpxc4CyqPpQURfIzToOIfeI5FhbZSM/xZLGXQUIkNeavsUFYnVk6v6oQVByYyTnZZJ4oKtFnZjZIYzpTlX0DArmnugONSB/yV9u2otqALeDsjtyl+meMQqymD4u/3urEDhajuAdoSV7T7Xy9yo3kkkc1gioL9lK/QA8zs0JAC3r3fdYJKqIKEFwD6i2YDALqQAWoP1CBevyInIyQb5x9v6sWcQ/PYif9cBHJSk5mls6vsgLUlEbUoCYXuooAdNm4hQDU23/AyYNrEXFe+AI7rSLyjRsFtUlM6cn18iMKYle+TW3XlV1XuYhL298vO2bJfdWe6pCbnr7JQudR0G3z9TJrRa2VC+QPUT63sJtEaEg2dhNAXr4HAStBoDkF0hokAX/Erh6cT2Zm6SpqKlwo7wWisB+ZgQGhv9j+daKkId1pvCTfn3bMsg7auYaSzye0DM1H2Qye0JQG9DL3EIGvripvwyrQl7Z/F4DKgpkH8OW+RyFrAGB+1GX9mEFgBNZDVgvqN3adBfqprcryNqwCfWU/tBcIaSxsP/+UAEBt6CICpHyb7pide4mARts9jRIVBLVkZman+dC8Z9ZCoLag1rNF5gBXF7JeUGNHnnHcs9ILVBDyVSH6Y9YLqDaWjSKoIKHlaj/VtR6YysR2sw4CN1xCrRDW2qQ7ZsXo4ft0z5KPCZJIwXepbdNJuMaNUrFjl9FLIMX1nlr0KN1t9wIpPZJCiJj17HYse3iIouT7zAppNrO71Ma4UWoCZtUECSSF5e7sB+fF1dluUq9CkOAaeuwRmj/2LLkWZ4tPimaYlqmvz7ZbLl0SV0wPt2fJ9T4sy/SoMjt4mYbTXtIsjR1ulltEMQ3Zntml7qdlGuqzmbluKc3sNI5ZjGXTmO2YK+7jsizTozrZv2RSLiIiYxgAQC1FEno/5gNIgDuMCRMAhPH8lsg7CQCIF5EACADScHk7JPUqIkiAG0QQR+Vb92a4iYgkCIARAAHGgBreDB77lPfEIQD0nnvAM38rOO5JQzHiGAl1xSLuqXorJGBIY2EuhCgAas2qWQw9i7eC9QJArbUzcxNfwICljRcBakneC66X5FtntsGWcQiZuXaVNOb2ZkyKps4t6CZ+h1lWNYWzN6YbA3jZ23OHb5vpzTMGsNOJgfu7xDoRhIZQFXpe3ybpIlLrJWSjCOph79O8X9fhYruumf1cJ28UM+csOnH21/9//f/X/3/9/28OAA==;" vertex="1" parent="1">
          <mxGeometry x="950" y="540.88" width="115.52" height="57.76" as="geometry" />
        </mxCell>
        <mxCell id="daVYDinwcuLWMbio0a9W-65" style="edgeStyle=orthogonalEdgeStyle;rounded=1;hachureGap=4;orthogonalLoop=1;jettySize=auto;html=1;exitX=0.5;exitY=1;exitDx=0;exitDy=0;entryX=0.5;entryY=0;entryDx=0;entryDy=0;fontFamily=Architects Daughter;fontSource=https%3A%2F%2Ffonts.googleapis.com%2Fcss%3Ffamily%3DArchitects%2BDaughter;fontSize=16;targetPerimeterSpacing=0;startArrow=classic;startFill=1;" edge="1" parent="1" source="daVYDinwcuLWMbio0a9W-38" target="daVYDinwcuLWMbio0a9W-41">
          <mxGeometry relative="1" as="geometry" />
        </mxCell>
        <mxCell id="daVYDinwcuLWMbio0a9W-89" value="&lt;font style=&quot;font-size: 12px;&quot; face=&quot;Helvetica&quot;&gt;ip interna 4&lt;/font&gt;" style="edgeLabel;html=1;align=center;verticalAlign=middle;resizable=0;points=[];fontSize=20;fontFamily=Architects Daughter;" vertex="1" connectable="0" parent="daVYDinwcuLWMbio0a9W-65">
          <mxGeometry x="-0.0498" y="1" relative="1" as="geometry">
            <mxPoint y="-1" as="offset" />
          </mxGeometry>
        </mxCell>
        <mxCell id="daVYDinwcuLWMbio0a9W-66" style="edgeStyle=orthogonalEdgeStyle;rounded=1;hachureGap=4;orthogonalLoop=1;jettySize=auto;html=1;exitX=1;exitY=0.5;exitDx=0;exitDy=0;entryX=0.5;entryY=0;entryDx=0;entryDy=0;fontFamily=Architects Daughter;fontSource=https%3A%2F%2Ffonts.googleapis.com%2Fcss%3Ffamily%3DArchitects%2BDaughter;fontSize=16;" edge="1" parent="1" source="daVYDinwcuLWMbio0a9W-38" target="daVYDinwcuLWMbio0a9W-48">
          <mxGeometry relative="1" as="geometry" />
        </mxCell>
        <mxCell id="daVYDinwcuLWMbio0a9W-90" value="&lt;font face=&quot;Helvetica&quot; style=&quot;font-size: 12px;&quot;&gt;ip interna 5&lt;/font&gt;" style="edgeLabel;html=1;align=center;verticalAlign=middle;resizable=0;points=[];fontSize=20;fontFamily=Architects Daughter;" vertex="1" connectable="0" parent="daVYDinwcuLWMbio0a9W-66">
          <mxGeometry x="-0.2374" relative="1" as="geometry">
            <mxPoint y="-4" as="offset" />
          </mxGeometry>
        </mxCell>
        <mxCell id="daVYDinwcuLWMbio0a9W-38" value="Cloud Data&#xa;Fusion" style="sketch=0;html=1;verticalAlign=bottom;labelPosition=center;verticalLabelPosition=top;align=center;spacingTop=-6;fontSize=11;fontStyle=1;fontColor=#999999;shape=image;aspect=fixed;imageAspect=0;image=data:image/svg+xml,PHN2ZyB4bWxucz0iaHR0cDovL3d3dy53My5vcmcvMjAwMC9zdmciIHhtbG5zOnY9Imh0dHBzOi8vdmVjdGEuaW8vbmFubyIgd2lkdGg9IjM3Ny4wNDk2OTgzMjc3ODkyNiIgaGVpZ2h0PSIzNzcuMjkxNTcwNzE1Nzg5NzYiIHZpZXdCb3g9IjAuMTMxMDAwNTE4Nzk4ODI4MTIgLTAuMTIxMDAwMDA2Nzk0OTI5NSA5OS43NjEwMDE1ODY5MTQwNiA5OS44MjQ5OTY5NDgyNDIxOSI+JiN4YTs8c3R5bGUgdHlwZT0idGV4dC9jc3MiPiYjeGE7CS5zdDB7ZmlsbDojNjY5ZGY2O30mI3hhOwkuc3Qxe2ZpbGw6IzQyODVmNDt9JiN4YTsJLnN0MntmaWxsOiNhZWNiZmE7fSYjeGE7PC9zdHlsZT4mI3hhOwk8cGF0aCBjbGFzcz0ic3QwIiBkPSJNODAuNTkzIDE5LjE4djIwLjE5OWgxOS4yOTlWOS41M2MwLTIuNTM3LS45NzktNC44NDYtMi41OC02LjU2OHptLTkuOTA4IDYxLjIyNUgxOS40MzFMMy40NSA5Ny4zMzdjMS42OTUgMS40NzQgMy45MDggMi4zNjcgNi4zMzEgMi4zNjdoNzAuNTU1YzIuODczIDAgNS40NTMtMS4yNTYgNy4yMjEtMy4yNDh6Ii8+JiN4YTsJPHBhdGggY2xhc3M9InN0MSIgZD0iTTg3LjU3MyA5Ni40MzdjMS41MDEtMS43MDEgMi40MTMtMy45MzUgMi40MTMtNi4zODJWNjAuMjA0SDcwLjY4NXYyMC4yMDF6Ii8+JiN4YTsJPHBhdGggY2xhc3M9InN0MiIgZD0iTTE5LjQzMSA4MC40MDVWMjkuMzRoMjAuNTc4VjEwLjA0SDkuNzgxYy01LjMzIDAtOS42NSA0LjMyMS05LjY1IDkuNjV2NzAuMzY1Yy4wMDEgMi45MDYgMS4yODYgNS41MTMgMy4zMiA3LjI4MXptNzcuODgtNzcuNDQzQzk1LjU1IDEuMDY2IDkzLjAzNi0uMTIgOTAuMjQ0LS4xMjFINTkuOTUxVjE5LjE4aDIwLjY0M3oiLz4mI3hhOzwvc3ZnPg==;hachureGap=4;jiggle=2;curveFitting=1;fontFamily=Helvetica;horizontal=1;" vertex="1" parent="1">
          <mxGeometry x="643.9630146545708" y="400.2730769230769" width="74.27006280530355" height="74.27006280530355" as="geometry" />
        </mxCell>
        <mxCell id="daVYDinwcuLWMbio0a9W-41" value="Data&#xa;Catalog" style="sketch=0;html=1;verticalAlign=top;labelPosition=center;verticalLabelPosition=bottom;align=center;spacingTop=-6;fontSize=11;fontStyle=1;fontColor=#999999;shape=image;aspect=fixed;imageAspect=0;image=data:image/svg+xml,PHN2ZyB4bWxucz0iaHR0cDovL3d3dy53My5vcmcvMjAwMC9zdmciIHhtbG5zOnY9Imh0dHBzOi8vdmVjdGEuaW8vbmFubyIgd2lkdGg9IjM3Ni4yNzQ4ODc3NTcyNjMyIiBoZWlnaHQ9IjMzOS42NzM1NDQyMTc3NjM4MyIgdmlld0JveD0iMC4xMTQwMDAwMDAwNTk2MDQ2NCAtMC4wOTAwMDAwMDM1NzYyNzg2OSA5OS41NTU5OTk3NTU4NTkzOCA4OS44NzE5OTQwMTg1NTQ2OSI+JiN4YTs8c3R5bGUgdHlwZT0idGV4dC9jc3MiPiYjeGE7CS5zdDB7ZmlsbDojNDI4NWY0O30mI3hhOwkuc3Qxe2ZpbGw6I2FlY2JmYTt9JiN4YTs8L3N0eWxlPiYjeGE7CTxwYXRoIGNsYXNzPSJzdDAiIGQ9Ik03Ny41MjMgNDMuMzk3bDEyLjg0NCA3LjU3MnYxNC43NjdsLTEyLjg0NCA2LjY4ek01MC4zMTItLjA5bDEyLjg0NCA3LjU3MnYxNC43NjdsLTEyLjg0NCA2LjY4ek0yMy4xIDQzLjM5N2wxMi44NDQgNy41NzJ2MTQuNzY3TDIzLjEgNzIuNDE3em02OS40Ny0uNTExbDcuMS0xMS4xNjktMTIuNjY2LTIxLjU5NEg3MC42NDR2OS41aDEwLjkxOWw2Ljk3NyAxMS44OTUtNC4yNTYgNi42OTR6bS03Ni45NzktNC42TDExLjMgMzEuNDg1bDcuMjY0LTExLjg2MWg5Ljk3OWwuMDk5LTkuNUgxMy4yNDFMLjExNCAzMS41NjFsMS41NzYgMi40OTggNS41MTUgOC43Mzl6bTEzLjY2MiAzOS40NDlsNy42MDMgMTIuMDQ3aDI1LjkwMmw3LjczMy0xMi4xNjQtOC4xNDMtNC44OTktNC44MDggNy41NjRINDIuMDk1bC00Ljc0LTcuNTExeiIvPiYjeGE7CTxwYXRoIGNsYXNzPSJzdDEiIGQ9Ik03Ny41MjMgNDMuMzk3bC0xMi44NDQgNy41NzJ2MTQuNzY3bDEyLjg0NCA2LjY4ek01MC4zMTItLjA5TDM3LjQ2OCA3LjQ4MnYxNC43NjdsMTIuODQ0IDYuNjh6TTIzLjEgNDMuMzk3bC0xMi44NDQgNy41NzJ2MTQuNzY3bDEyLjg0NCA2LjY4eiIvPiYjeGE7PC9zdmc+;hachureGap=4;jiggle=2;curveFitting=1;fontFamily=Helvetica;" vertex="1" parent="1">
          <mxGeometry x="643.9630146545708" y="532.0961538461538" width="74.27006280530355" height="74.27006280530355" as="geometry" />
        </mxCell>
        <mxCell id="daVYDinwcuLWMbio0a9W-58" style="edgeStyle=orthogonalEdgeStyle;rounded=1;hachureGap=4;orthogonalLoop=1;jettySize=auto;html=1;exitX=0.5;exitY=0;exitDx=0;exitDy=0;fontFamily=Architects Daughter;fontSource=https%3A%2F%2Ffonts.googleapis.com%2Fcss%3Ffamily%3DArchitects%2BDaughter;fontSize=16;strokeColor=default;" edge="1" parent="1" source="daVYDinwcuLWMbio0a9W-56" target="daVYDinwcuLWMbio0a9W-57">
          <mxGeometry relative="1" as="geometry" />
        </mxCell>
        <mxCell id="daVYDinwcuLWMbio0a9W-94" value="&lt;font face=&quot;Helvetica&quot; style=&quot;font-size: 12px;&quot;&gt;ip interna 1&lt;/font&gt;" style="edgeLabel;html=1;align=center;verticalAlign=middle;resizable=0;points=[];fontSize=20;fontFamily=Architects Daughter;" vertex="1" connectable="0" parent="daVYDinwcuLWMbio0a9W-58">
          <mxGeometry x="-0.0632" y="-1" relative="1" as="geometry">
            <mxPoint as="offset" />
          </mxGeometry>
        </mxCell>
        <mxCell id="daVYDinwcuLWMbio0a9W-56" value="Cron&#xa;Job" style="shape=image;verticalLabelPosition=bottom;labelBackgroundColor=default;verticalAlign=top;aspect=fixed;imageAspect=0;image=data:image/png,iVBORw0KGgoAAAANSUhEUgAAAlIAAAJ3CAYAAABfvr/2AAAgAElEQVR4nOy9ebgk91nf+3nfX1V1n2U2zYy20WpLliXbsmWwQVjEG9iASQgQtrAFYnNJ4lyWBxL8GLgETC7LZXFinDjwgCGJc/HlAjeAjQ3CxAu2bCzbsmxrtaxtpNEyy5lzTndX/X7ve//4Vfc5MxrZ8liaOefM7/M8Z6ZPn+7q6uquqm+9y/cVd3cKhUKhUCgUCl80erpXoFAoFAqFQmGzUoRUoVAoFAqFwklShFShUCgUCoXCSVKEVKFQKBQKhcJJUoRUoVAoFAqFwklShFShUCgUCoXCSVKEVKFQKBQKhcJJUoRUoVAoFAqFwklShFShUCgUCoXCSVKEVKFQKBQKhcJJUoRUoVAoFAqFwklShFShUCgUCoXCSVKEVKGwxfHH/HbiOeV+zP2P/7gvfS2cL335J3r+U7W+61/v8bfRk73FCoXC5qA63StQKBROHsdxN9QVEFwd93xCF0AcoggVIALu1v9NQQSZPlgFOW7JmfX3GpBmvx3tlKOds9LBUkwcmUQOR2G5TRzpnOXWWe6ElRhYmUQOx0jEiQbJobXAagokd1oXogvJj12LvAZOEKMWoVGoAwzFCOI0alQYcxrY1jQsNLCtSizUwmIN2xtlWyXsaoRdg5qFSpirhZ2VM6im7zHw+NeUfuyPAxL6zWMYIKKIC+bgAsEdk+ntY7egAyKPfY+FQmHzIu5eLqIKhU2LYSQcxV3BQR0IAslQt3yb9Wf0kH8nAjX5Dx0gdBEOtYkHu4oDKy1HxpGHVyP7xxUPtA0HViKHujErrXGkU452xmorjGKFpwhe5eWlBG4gChrA0to6iDATLmL9Oml//+fBHUhZoVDn5Xn/Onh+XyL5tcRBK1ABDCShQVmsOhYaZXsjLNbOtqZi72DIOfPC+fWYc+eFs4aB3Qs15w6VsyvYNgiIWr/d+m1JIl+HTl/beq2luIGFXthawsVQ0Sy4gOMla6FQ2NwUIVUobGYccMfEQECiI+q9Tll/4o+AklAOrHTcv9zx4KTmodXEnSPn/qXE/pFzYBw5NIo83AUmUXPoKFq/nACmoJqXGTwLF0nrbjsSFJ8KKjfwlDWS9+sjKYsiAZ+JOu/lhTwmPZYjaevfs+dImmgvDjULKjF8GmQXyUuyiJuvLST162DT2wberW1MCVA51Mb2yjm7dnbNNZw3Z5y/LXDxQuCiOefseeG8gbBv25CdjZCFVb+NZhEsw01wFMEReQJisVAobDqKkCoUNhHT3VWgPylPIzrTk7cCxqhruX8V7lmquPNIx2dHLXcdabl1Rbl7UnF0BeJIIHX5eUH76JHk26EXTB77qA5ZwAgIhglA1YujdREZDEUQT5hkYSIooDgxr7vndfV1oqnXYPm+48RG6NORTh+Mghxp6x/rLogoAcXoI1+WcnRI+uUdI7oAOvCIiOASsmBUnUWV8k+CFCEZWOjFV8qRrkHNYL5jz9C4fNDytB0VT9s25BmLNZfuEPYtdJw7FxAd9O8isSZs8+e1/sgr/Xsr0apCYfNRhFShcApwz0IByWJoVicj0yLvaTxmDfN1lTsnPL9Gxm482Fbcc7Dl5oOJW48kPrkEnzvasn85MulqSDnNR6iyWFBy/q+ynHYjr5u4ghsujmsvXSy/+DQtNV1Xx5kGvlwgzUSc5EyaWP+Gs1xyJwsWIYuUtS2z9uZc+1TfcYek2eOnqUGYCUifbh5HpvdJfk9uWUSJTCNjRo5BSS/IphtV+kWl/vVzxE1cESTXP4njTCNzBiYQQ96uyfMH7A7BoHJ2DRP7Fodcueg8c0fg8l2BZ++puWCxYk8dkVlKdd02WFeW5qz7vswetbatdLoJptvD10RmkWKFwqmlCKlC4SnEPZ9+NSsovBdSEaGSRHAhoUhfTpSIhOnJn3W1RCQ6Mz53xLj5cOJjRwKfOdhyz+ERn10xHhlV4HWOoIhCVeWnBtZqpPIazfSIH3Mi59i0k697/GNOzWvPm0oQP+b+dcuaHV2mMaWTOc2vX/8Tsb4wfv069MXh654rx6QO+xTl7HHHPnZtWTnKd+L1P+4+n6YN6X+6LFYF6jDhogXjosWaS3YvcPUOuGanc9Wumr3z09cJ/YJyZM16LRsssNYXkCAIZvm7IVNRKIA7WtKHhcIppQipQuGpJjmuEMXBjQoh4hhK7YpioB1roqnCrOOzSy23LDmfPOx84lHhM49G7lg1VkcROoVqmEVAcKj7k32vDU5YaFR4ajgmR3fsds7RuL6eywUmqU8TJvAWBrB3vubKbcqVu4VrdsNV2wNX7ICz54esfZDWpxqHRHFME1UvCk1AqVD3HMXS8lkXCqeSIqQKhaca79NG7si0pigkcgF4BQQmZtx5OHLTgRU+8LDy/qXEHY8Iy6t9fU4VskiqtX9uorIA2hDFUZ/06bOmj7CU3fqUMt3exwtWyaJJvcU14GFInRLJWkwBryD2XY5RwFqkEvbugOfuCbx4m/PCc4Vnnb2N8+chf19aZtE3Dzkdm1s1S41VoXAaKEKqUHiy8bV0j0OfdZl2dSmQOJqcmw9OuOGBxAceSXzmoHDnkjNute+MizCoAUPVcsG0O4FIlCF4hdIikrvxcj2QIut8pAobgZzY1WkHoyRAca9xCQTGiCei1Ihnawf3Csyg7UV0k9g9hCt2CF92lnPd3sCXnVtz6Y4K7Qv5wfpqNMn2F8AJU7aFQuFJpwipQuEJkJ2DEsH7NvZeEGVDzJxkcRHMPZ/axGePAaGLzk0HjQ8+MuLDD4350KPCnYcVmwzAOmiARqACdenTgTGfVL3Jxdseca2ALne+adUHQtbWR4nZU6pEJjYE+XMjf47TLkvxbAnhjku2iRBLOHV+jk5yio6QDVYR6BwmMVs2DCrm50Y8d6fxFXuEF56zyHW7Ky7cPq0Ry/5WjmC5FZCAYOaguShfpjYNfQ1fFnWFQuFkKEKqUHgimGMxoXVuo08G9EaYufF+0nfATb2EEvcfSfzVA8Z7HxlzwwMjPn24gbb3Oaole0qGXnAdU0+9vnh6XZH2MYZKxxdgn2whd+Gp5bhC/2M+o8croj+uCWDKLNIpWZ9PDDqBSpifa/nyPc615y3wynOUrzgb5gcN00sAyBYPFhT31KcAvY+UCWaCVuX7UyicDEVIFQonYObX1KdF3A2ziGhD9ndMiBjaRxGyd1PihoMt1z8w5r0PCB89YKyMEvgg+zINcp2TeMKlCJ/CF4eI4Gbr78j/u0L0HLVKEcKEC3Y2XHtO4KX7nJecM+SZ24frRtMk3BMmuhZNNaMKJSZVKJwMRUgVCifg+N3C+38Vm/kUgXNgNfGe+1d494OJ6x8K3HOognGbLQcGAWmMJhodFRYEvOsDSzUnjkYUCk8QN5CcpnMPNERcoUNytGokoEqzHZ53FrzinMjXnqe88OwFhnXvPI/hGIbmlDJQZgEWCl8cRUgVCidgrQnr+N0j8bkjq/zl/RXvvq/j+gMtS0uai4OHFVQ6swLS2UgUxyWinnAX0Boru13hS8Vzak4k5QaDUINprreS1NdfOXQdjCVHrRY6Lt+hfM05A77+4sBLzxEWh/PrF0qJlBYKXxxFSBXOKGYVR556l3FFLA/2tWnNSN8FlTvt8rDaTx1y3vm5EX/6wCoferAirXpO11VNTtmRZoaI05SL2FSNOU72EZq5VYs9duUKhS8SWedojliuZUdz6lizNUJ2QM/RKaJDm6BLAOzelXjFuc4/vnCRl1zccHYzrakazqKw0zRgNruXPj1tIIK7FtuqwhlPEVKFM4te3CRxkqc8f9cMl4oggs5GnYy46XDFX9ztvOOeMTc8ZHQTzQNtQ4AQkVrxKGuzPJ4w5aq/8FRxouL2dff1X2/VhE36mYJdAoO9242XXzDgVRfWfN2Fzp4GYAAkkiluXbbFAoRAEM0XCyLFYqFwRlOEVOHMwpkNsXPPYzhEIefjlM8eHfGnd495573wgf3GaEWhNphTRBX3FjVHq4U8xMMjRRQVNhuqNWodZuOcEvSAtzGnAHHO32l8zQXwj5/W8HXnzzNX9VFXsim7aMjTdWR9zWChcGZShFThzKD/mncIKhCYkMVTxdHVjj+7t+X37lnhffc7kyNzOQ2yoFBP8mgO6v4Cfx4QGjuKkYhhUFzEC5sMp0ktKSyQZAg+Ibul94ahMsyF6iOHqmPP3jHfemHD91+4yLXn13ncDRNA6bwmyLrh2oXCGUgRUoWtw7T+iHW+4r0h4dpY3XzFvZpa/uZB40/uGPM/H4g8ckSgbWAIOnTUjCgV4hFFSQSQRO2CBSWZ9QNwy+5T2HwIgotTIyQzTBWNAdWW2BuHBgGLio812yoMWq7eG/jmiwZ869NrnrNDyU6y/f7la0OhRY51QysUtjJFSBU2Jcf7PAF0GMEV3HH1PMSVBNL0j0jcdrjlbXdMeNu9kdsPDKCdwLzAYNj76UQQmdWNg2T/HgDJAst7F3OR8BibhEJhUyCApSxyRHHJ066FXJ++VvNkiEt+jBuMJ9BWhMXASy5o+cFLhnzDxQ07m7V9DDNMalwMNSVJbsSo1nmnu3uxWShsGYqQKmwZIpY78CQRRMnW4YnWI39+1wpvuT1x/d1KGgkMFdEKGQomudi2UDizeDxn9c+DChIVj5ZtFTo4Zy/8k4uMH3pmw9W756A3qXUmYIKJgmT//0JhK1KEVGHTcaJoFABpAiogedbYDYdW+ZNb4W13Je49EsFrGFQwiKhVSOcQHNNS5lQoPBFEQLucPE8N2T9tUkE3gcZ58d6G73iG882XCefWi4DnWZJS9ftlobD1KEKqsOlYE1K9APK+/hVnFJ133TPht29recd+h1GEaojMBYQWdcMFTBpcFU0tPhseW3aFQuHzETxhWuES0NShHnERXCs81fjqKohx1o7AP7tE+N7L53ne3ppp8aI5qE4jYSW1V9gaFCFV2HC4g4n3nk65nNsIeRywdziCe5U9oPqhrAdGzv99e+Q/3b7MrQ8HiDXMpTwcWBWJHSI1ojVuHU6LK0ADJtnMsFAofAECaATrUAtIf0GCTUAkZ8gtwUQgKsxN+Prza/71lXN8zUUN9Ww+4LQoPQJKnFnhem/L1jeKeGkJLGx8ipAqbDi8c5J2SAgEC7hHkkbcGgKOBsjWBSM++nDLf/lU4L/fNWblqMNgAEMFNUiWbQymHpu+3qAQSgSqUPhSOG4/mrbrAbOiw05gnMASl59X8UOXCz9wecPu+VzD6O6YCa4JwVAfYOK4dGhSlAqKTVVhg1OEVGFD4UBLxyBlg8zUt8+JRlQUCLRmvPv+EW++eYV33hugVWgU5kL2fJr1XZfUQaFwypnm3K0XU0GRBD5OkIQ921u+77KKH7xqgWftGADZ2HZ2JtIKjdCp4QpNCUkVNjhFSBU2HGY5rJ+0Q2ipehPM1djy9ttXeeOtkY/vF2AAcxEJEWGYU37E466MC4XC6cVRAljENOW0+zKEhY7veJrw2mfWXHvePBBwxiRPkBYQB62KTUJh41OEVGHD4QlSgKofSXFwMuG3Pz3mTbfCfQ8lqATmA0EFSUIM5Gpz81K/+iXxZFsori8qPv4wc6L06uO14z/eY4+/7wstp3B6cKABnyA4IkOcVbwTWEnQBF58gfOTVwdeddECoHlkuCu1O2UqcmGjU4RU4dThKV9tSk1AcDGiO5VrbwyYjpnbtf9w5LfuHPOf7jjCoYeG2Z5mcT6nDLzt26lrkA4w+urxMx6Z+br3wtKnRWLT21l3qkOaWlC7IxJyjS92jBN8Xs60SNjQ3r3aRZg5OAr5MUb+ce/TO9PbAjb9bFP+rF3BA7N2Lh5HCE9r29YPx5XYu9ZX+b2p52XSn3g1ly7nsAb5795/RyTXzU17FSx/+fI2YDqE2rMRJQCKSf/GJMc9xQWjX/fZStsx0VARKYatU8TBNO/fkhCP4IpXNcQER1uoOl54gfETl+3m254eoJ5uX8VJ+fmAq6EechOKGMESaEW5iiqcLoqQKpwyzMHMULFc75QE80hUCBp6E03jvqNjfvPTE/7zHS0rBwMMFmHY9if86Ul7epAtbdTHM214yr/k/4JPhUI++WSn9oBnpYO69+7VOZojKpAiNhUxNv1xiNNZPAbBgSoLIo2gjobAfGUM1JkLwkIlDIKwUCWaALUqtQiDCoYhoiI0QakqRacf6TFvCMydLjmtJdoEk1TRGXTmRDNGSViNgXFMrCRnYjBKFePOIfWijb47M+ZIJ6proiu3hPbdm44GRUWzZteAWl6H7GivCJo7SH26BYGpA37hscx203UNHzMbde1vKywbhBHPOFd4/ZU13/H0OQYh11FFT4g5aoIExcUwF9yFEKQcBQqnjSKkCqeMlojhDGNFDEZ0pfGEhgpIfG55zK9+rON3bwuMjzhsa2ialuSJpKV156To926VXvhojgRiAh7yecyVnEWNOfrTJUieoz3q0Dh1SOyqnZ1zgT3zyt5B4PzG2N0IOwbC9jlh50DYO3R21LCrrpnTmiYYw8qpBJqqP2nOEHJLljx2hY/h+L9Pf2x2Ozl0UekMRlHpEixby+EucnACD4+V5dZZGkUOT5wDseKBCRxYjRwaRY60zlKqsRbo+kgaDrVC6CNhoRdikr2QZsE866MmKjlaWmp6TppgXfZ4G1XQRZ5+rvGTzzJ+6JlDRIdAFs5R+2OHK6saGdL0BgqFwqmnCKnCqcNTDmgQqCSikr969x02fuWmCW++c0RabWBOqesR+CKd1Igs41ZC90+YY3bp6TZLQC+YJt5bQ+QIEsGZnx9wbgMXDIXzF4UL5hLnba952vyA3QPhrMbZM+fsHCoDNaBirS/9RLVVfoL717fGZ/+gvJy1x6+L76y9A8teYGvWFVMRxXH3cYLbx6/T+t9bHONoJxweOw+PlSMTZ//E+dxyy/1HIveOAg+uRO7rKg6NnHYc1yJzolApNFOBlYWh4GspvWn6s/AFEIQIOO4LNH6UKAlr56Cd8PQ9ws9cNc93XxmoqgAkkte4KRUdhHJ8KJw+ipAqPKXkU1f/r+XzeKU5tXL38oRfv7njrbd0LB0JyLaANoZHsJCv+NWyGadv9WF462qVZr/jfb0OvTboa35mtWCWHy8ytXZfC9JEgzauLasy6oGwr+m4eLHh4m2BSxcjF2+redoCnLstcN58w/ag/WtLv7DjxUjKPz49cSWSQEIJ3pciaX7edNVTXy5VaZ9+kXVv87Eb4gQbx47527HuFvm+ZEZyCCpZoLvPskeG5hIsnCD9erk+jtHjY0VhTIlHu8SDy8Z9R+GzK85dyx2fXTEeXGr57KrwyCTgLX0tmENQqELWiUr/+VjupOitJx9bFO/r7spDhGcbSjleX25BhODgIeVvXhIqFZJFbFJDN+GqswM//pyK7758wDAEEoqbUB3/NS0UTiFFSBWeJCzPjp86Fs/uA0fyaaM/sx5cbfn3N7e86VOrTI4E2NbkIcJRQSKCYwwRi0hImAW2tvO45OgQjqYKRDBNhJQHvro4pFw/5HVEkmZpkc12oB2AT/JJ2gVqZfeictliy7N3CM84a8hlOxKX75zj0iEs1tMi7eM5Lorkkuu5j3mIrYm2YyJDU2FwnBSZHV36+qITvuZx2+ILPuaxj/OpIzZrK3xs/GlNXE3F4dp6fr46u6mYXFfbs36ZNuFAG7h9pePOw5E7DgdueXSVTy9X3LkcmKzGvpA+5FqsADQpb8MkiHp23k+KScyr7wokvFK0CziOh64X0NPawK1I3r7iEWeAqCM+wTzk7aUJjjq0I664sOLnnjfHdz6tJqvVXCtleC55c8mja6Z9CljfhFHUVuHJpwipwpOC0xcym+VZWm6YGSZNH4ESRmPnjZ88wi/eMmZ5JYBuhwGg3QnODetPblu8oFxAIrnYu8on/CYJUjkx5VomCxFnAmMhu5QKREWGwjnbO56zYFy9y3juuYtctShcslCze6HpX2B9ZGkqlkqH4xPhcQdkz+hTpselFLsID6yscucqfPJQy8cfWuWmwwNuWw4cPRrygO2qX+YQqBxNQ4ggVaQWIboSJYEGQhQMO0MaU6fR0Olt1jo3g0DbQDsBX+G55wi/ds0iL79kPmt/BDdH6UBz6s/FZxdxUr73haeAIqQKTwo5c2KIGG7TGFROn1ha5nduj/zCx4T7HjVYDIhUwASvqlwus4V10hemL+w2Qzwimlv0DYdWYJJytGkAO+Yrnrs9cM2exNXbA8/cBZfvqdlbD1gTTLmo2/OpF49KheMhl/eoa9/mf3rf9abHpx2QTjCw1EfwqoT0syHXNnKk9Yp7j3bcfjDy6aOJjz1ifPxQ4DNHO9Kq5XRpUGgcUUNUEQyzhFOVIvYpakirUNX4eAJJ+NpLjTdcAy88Zx4YgDtmKW9DlzxOU6D09hWeCoqQKjwpuAOe8pWfTDuxIu+4Z4Wf/Ijy6QcMBgkZKsEiSRYI0uHekWjYuumKJ0Kf2osC4yZ3ftkqhMC+syqu2dNx7a7A88+qeM45gX1zg/55OQU0LaBxICGYQ+WCuuM4XchpDe3THwEpQurJwHPy2sT7ajFD+22PK52CixOAMIuwTKOBAYh07nzm8ISbDwg3HFzlhkfhU4/WLK/2aVqGUCWYa7NXkq1PM65bkWMK+rf2vhS8xWQeJSGMiVbBikFo+N4rnf/jecrTdyz2j/Zc0td3WRYKTwVFSBVOgpzIc0A99bcVlbV6mQ88MOJ1N67yvjsiDIfIUHN9rxuSKlLd5nblVPVmh1sE6U9qLn2EznF0Fk3ItRrkf1P/M3HoWhgE9u6El+7p+Kpza75y7xzP2VUx38Bah1zeVrkufVrQ7aB9LZqBk3DRvA5K/2o6KzNzzbUkoSipk2ZaHRayeu0/nhydctE+OGioGy4VJoK6gUeg7q2T1ttB5AsPMA6swN8/2vHBAyPe85Dw0YMDJof79Pegyl2CwfpnSU6qS9+YYL0Ac8mdjtPC+y3zWQvqYDpBLKAeSKFvfnCHpUgz7PgXzx7wc9cssnNYkevjplHziGiYNUdsmc1SOK0UIVX44nEjieMOao6boVWDCNx1dImf/fsx/+3WKjsRzytUIJajI1lNhf6EstlbkdZ32PU30f7k6Zg74g0VCaGlCw3eVTDucitbLZy92PLle4zrzlvghXtqXrDH2d5MIxZr9Rz5XOhPKDVRzg+bD3/sV4lph+TtR42PPerccKDlffvH3HS4ZjKuc7q3FhhUBOkISUg0JI29iAMRxURwt+NebBN/Q6ZDkQXwfCzJTa6WRWwLrCbO3mX89DXCD1+1QK1DkkckRVxrTJzgghZ/usKTQBFShS+a1F+Ph9i33QenpeWXPjrml29KrK4kWAzZ2+VM+HZND+oiCAGNCQ+WJ2IQ8EnMVgRe0VTGFXuFF51b8Ypz4KvPU/bMDcjzb5x8FqjysMFpl3zhzMKd1NtHKG3/Hcjpb6fltkMT/uoB5foDiRsPJO45bGBVbtqYa7LtgkdCdJwaV8fpI1VbPb81a9MzaDtoK646O/AbXwGvuHAeqPAOTBNJnVpCqZsqfMkUIVX4ovDp3DR3JOQo0/+4a4l/8+EJ9+93mN+GDIWgRnLf+jrqRKGEmFvbaUeQEgs7hly3J/ENFwRefvGAK7ZPqHSOfHLMyzCPOEIgu4l7ny8qB/kzlTzbzzzkfc0jIiFHc2escqStufER4Z13HeFdDzs3PWQwMmiGUNdQWxYVx5pvbW18aoEAyYewNAJZ4VVXNvzKC+a5asc8YNnSS7OdxON3ZRYKX5gipApPmDUbntwd9omDq/z4B0f8zV0OWsO2fFUckhJSoAu2iYXUeuuF/r91g3vzgN7eSiBoTlmODNoVGATO2V7xsn3OK89veMnZFRdva+iravL/piRzqAw1J3kFqgSMvtEdkeoYIeVeDvhnCm65ccNEMJu2CiRccmRJLSCSIEybDSBazccPtvzVgQnvuqfjhoeF8Uqbo5tzc33Qc72J63TvXOcLNv3b8d//TYa6EFyIocMlQCew0jEYJn7seYHXX7PIYqiBaRCrXLIUTp4ipArHYp7HsMm0jLUvljZDcdDAI3HCL31shV//WMS7BrYNESa4BxRHpM2z8Wzz5qWUiImA1Pm9i4EZphVIjVoHJthYc4GvTrjwLOGb9tW84vwB/2BfYEcjrI1AybpLMUycRKByW1fuoThOEkNR9DgnzC/sZ1TYKrj7uq5K6wul+85M8WzMimAiBItZKIgg3ht9IkDH7UeE99w34S/2d/z1/gmrKxVQ51r3gWPagBvqHbjjmmvzXHobDldssxqACiARTWRzX4m5IaMNcHTEZecKv3htw7dfNA8E3FJfu+nZdkS079OwvM+V/a7weShCqjDDgRiNmohVfSMQ4FLN3J/ffveEn3r/o9z1oMJZu5FqFXUhma4zXd78LdiCUCfDgpDcGJrQhYpIB63CBKBl7y541QXKt1884GX7Bgyq3j8LWGsVmga0ysG48NSxFjFe7y2f6xn3L0f+9O4xb7+35YMPCO2yQlXBXK4naqTCPJKCUCUwlTzHelOfHo6NqomDSkdiCCsC7cO86qoFfuMrt3P5tqq3m0i567VvGrGkpFBTb95rwsIpoAipwhruJEskhApBRHDNsZJbl0b86IdX+cvPAFUDC0MIhnbLuaA1hJw22CIIAfEJ4gkL87jVsDKCbszeXfAPL6n5xksavubchm3N1EE8O7hbdmzKrenrdq8ipApPJcdHLa3/Dsox7utw55EJ79w/4U/vHPO/9jtxpDC/AI2iNka0A+ps27CFZlyKKJraPLszLEA3gaMTBouJ170g8LpnL9JoQzSncug8R49rQMOJRioVCpkipArH4Kmj9ZrKE6EO4CN+7ZNL/PyNDUtLibBzkEPg1iIkzDSnCITe0mALiAV3RCIe5uFoB+2YuW2Bl5wf+JZLKr7poiF756ZFvzG3XVudJ/aSO/K1Hn8AACAASURBVBmPsUsstU2FU8CJ0r+ziQPZeCzPItLpwGnlow+P+P/ujfzxXZFPPdLlWqL5BaRp8/fap92km52+jjPFXIfojqkStCaujvEJPO8C401f6bzovN1gThsV1GjU+21WKJyYIqQKMxzwLuVGFoWPPTTi1X+3yo33RBhuIwwUmJC0Ri0PWDVqVBLe121sfNYX2J7oqy/QAZMIkrh6X+C7LzK+49IhF+8YMstfOn0CwHAiCaWykEfjhM2wHQpbjRPW0TlgRtKEY1RAIuTozDpvDbOOD9y/yn//XOTt9yiHDkaoahiEXKSeX2Ddq01fw9gcF0+C0GVBlBSlywPB1XMq0wbY6hh0hf/9efO84fnzbBsM8ZhyVF6mQ65zurRcGBXWU4TUmYyBSR5xERJIMKAiphE/c+Myv/IxsMkc7BwAK70PTeiLq8PswCoyLYjdaAeXvjBXqnwxrtanOXLxrqcapcM14l7BKMB4zK49xjddpLz6GUNedM4gz8Hrn5X/FfCUU3eiMwNMmQmzjbYdCmc2hrvg/ck/F6vH3ts+N5Ws7+Bb7ib80d0Tfu+2yHvvdxjVMBfQxsDXzf2TDsjCzVAkKapGmhW9bywE6zv0erfzaTONVAgtUOPtAFaWuejsjv/yVRWvvGgnuUo927mgECxMd/hCAShC6owmeYdbHnMhVe7Yee/+FX74fat85tF8JVoNA9FhLYLTt0dvhm+NkGf/xUTQkKNmFnAFr8eE2JA6oAXVluvOF/7ppTXf8vSGvXM1IEQSE68YmhCKCXJhi5AL0z3XVyOIG9HAgtLQkfd34xOPdrzttgl//LkJdxxqQBUdVkgdSZ4I3RwikaSei7MxvFJIU7GykThRFE2O+V3dqBEmqxHM+f4r4P+6bid7hhWkDjPB1AghIJQDQiFThNQZTHLDPVIprHTG6z864o0fb8GGsC2gYrhVOPF0r+rJI4J4RC3hYZAtDboJjBVSx47twndeOuB7rmi47uwKCOCCSUI9gtW4K4ghYeNdZRcKTwbuhpkjGlAiLR0iA+peUB2Jxp/cPea/3hp5z/0tPgnQCDIQPAwROjR2uAZMlU1bo+5CUMXVsFTBoRHn753wH6+d51suzYOQO4tU2hSz3MKMIqTOQPInnguqoeLvHur4nr9d4a4DwJwS5hXvJuSQTsA21ZySY60Xgme/HQdILYwcTHnGOfADz2h49eWBPfMBCLniyR1JY/AGCSHH4MQxidSzYpFCYWthngcuB++HXSdwbZFKcapeMjjQccOBxJtv6fjjuyLLS8DQ82gaD6h7P7h5cyopAYIkUkogglc1HI0QnX/63AG/9RWL7GzyhaV7v12KnjrjKUJqK9J/pH5cQaT0013whEhgxZxf+PvD/PKNAcyRRYBs8mcEXHMb/8Y8JK4zC51mHY3clUQWRiIJ6PBUw2pHox0vu3Se11yhfOO+hqbOtgURRxyC98ujQ6QiSspDiFNY8zksFLYoZnknMlVwqOgwCbgJwRMueXyR9Omw/csdv3dny9tujXz64QlU8zAwJEiO4va+TLn+KvT2agLJ+vs23gXa+vHjWB6G7NpAF/FVY9/uxJtfNMc/umgBWG8xscY0USgzl/jCVqcIqa2I51EPUUA9IihJHPGK0I+GuPHhMd/3gTGfureD+QoZDqCLoDIbmQCKeJcnqm84BKVCLGLaIj7AtcbTCAmGSw3LCToYLEa+7Wnww1du40Vn5+GvoLinXOcwO9ZNy8Yf7/dCYesy/bavtVSsN7TshY8zu7QSyWm/w1H4n3ev8KabR3zkwQCxgjlHhoJ3HcgQ9QA66a0YBphM50luNCwLwNCAdcB0wgN4BX5kFVBe89yGX//yeRabCnPFSIhnH/gkChIIbhuy6L7w5FOE1BbEgeiJ2ickF0wHVJYb7iDxa5+Y8BMfnGTBNRSom/5YuTa3a21Jj2cTcDoRVDpcE+7zSOsQHNGEJ8VbhdURO/YI//zyih+5cgcXbc9jM/J7aY4bw1EoFJ4Ia6eLqQ1ATvdljwTlr++b8KufWebddzp0ARYqpLIcw4qCasDriPgEt8Fs9M3GY91FVF8KQRVyNG0SYdJxxZ7AH7x8yAv3zoElun7geOUtTsCkobhPnRkUIbUFyd57CYmJWDUE71CtuP/oCq95/wrvvGMO5iPUmn1VPM+Ryx15m6MTJWcGDExorCFVK8SVCbSBS88e8q+f1fDPrnB2NbmAPF//KuqKlnB7ofDk4Lm+CrVZ5AYSnziY+M1POn94x4jRcoQFo64W8FQRmy5Hgvvgz6bADFR7+5dso+LLFUGNX/zKjn97zU4AWgc1IZAg1OU67QyhCKktieNuuAkaWkD4f+5c5dUf7Fg6soAskC8ge7O5XAuQDxK+Ica8TC0W+sOQTGfW9a3K7qADlBbxSJoMIUWesRv+5ZXKD1wR2F7P4RieBHUnquIq1Oag5fBWKDwpuGOeZ/OF1PvJKajmdODNh8a88Wbj7XfB0qpA7YR6gskCjoNPrRbkuP18mk6c/n76EFEEwTyS1ykgZPHoqxXEyMsvnfA7X7XIJTsa6IxOBlQVpbPvDKEIqS3A2ic4rbjuR5SIMI4T/tUHJ/zuRztYqGAe1No8+sFrnJjD86K45ZqH077vSwMxQugQoI41SRIpeP4bAGNYNvCKq8+Z8OPPHvDdz1ik6s0z3aeHYsuTWzRXdgRK1Xih8GTi/UQ+dUc8z+c0E4JMi62Ne1da/sMnV3jLLc7RowEWDJoK0iAbe3qk9ookgkmLmoAPsTBNHZ7GfdbJY58k5eg9ilgDuoqixNDAo4nt84m3vGTAd17WABVuhii4rUX6SzB8a1KE1BYgWcIE1BxFer8j45aDY775XR23PJjgrEG2NDZbM9TckDt1ngcmXud5WBXUnp3Jk6dcDL8UoROu3Bf5d88XvvWSnajmq1j30F/PnmBcRqFQOHVMTy0iQLZaeWQ04lc/tcybbw4sHxTYLjBQ1CCEhugJp0VjgMoxEmzYeX995MyBEGA1wcqE175gwBuvbdAwyMeh5CSZWitIKUDfghQhtQXoLCKuiDhBFYj8zi0r/Nh7E8tWo4uCJCNtAlEhCLV1tJUiNIR2QmoSLkNYMkhjrtgX+bdX7eB7nj5PXWX3cU+JWkIeXVMoFDYWqWOsMJA8j/Luw5E33rrEW24Zsbo0D3M1LBrSTlCfI1VKFSeoK+1mSMW7Z9sHBA5FXrDPeOvLG67asYB5rlF3MSoVtDiibzmKkNoCeDLEW6iUzuGH3tvx1ptaGBhsa9Aut/mnDXlVdyyCEqzC5AgqFe4LpNEY0pgL9zqve9YuXnNFQ1Xl2VjJA05LSIqEaoNG2QqFMxyDRIuLErxCtAWcu480vOGmJX7/jmW65QYZzBEGAdPDwAL4AGPMZtixKwNTw4LCwZbhcMDvv1T59ssG4BGPClVdouRbkCKkNhu+9t+a/VECVT7xyBLfcn3is/sFdoJUFbijOCYV7hvRt+V4BEJH6BKpnYd2zDk7xvz0c8/iB6+umSflx7jiDhFDvcZJhCBl/lWhsAFw92MEQ/IOLA/4RiOVV7m4XHK38B1HA7/w4WX+4M5VaLehQ5DBmCQN2CYQHiKIC+odSSpEHF/poFVe/XznLdfOo2G4NvC9sKUoQmqTYYB5QntX7yAGGL9/xxKv/V/K8uoAOWs1F5KnCvGEBsU89Z4tp5/pAXb61RMhh8ZFck3EJMA4sH3HMj9yJfzIc/aye5DX3XrfYHXpj6+eb/fL2QSH3EJhy3O8kDKyZhKlj4znSx7rpwpMH/vhA2N+4WOH+fO7t4E5zLcQqqy3yPWdPuvs20B4dnQXE8wBVUQj3hkcEV54ofE/vrbmadsajEF2Pe/tZjbYOymcBEVIbTLcIuaGuKJV9kf6kQ8t8R//fgLD7WgzBnHMeys4kfVtfRuCNSFlCDVV6kiaMK9hpUMGzj+/suann9Nw8faKbHlQ58NvCYsXCluKqd+lzObzGe+6b5WfvhH+/p4IAWShorIWGNIpMI1MbySmaYKZPbwQNGGu+BLsHK7y1lfu5JsuaMCcaIKIEUJgw72XwhdFEVKbDI8tRiBUgQOjFb7r+gnvuS3BzgWoxtkYz+b78Qsb/6MNIliMeZr8xHjlZcavfGXN1bvnAMVQJE1As3Ny0VGFwtbDHcS7HM0JNcoEcN56W+T1H1ph/5EBzAlSST/Gyja4l0A/Z3DqhacdjAbQRv7P6+CnnrcANLTtmKauN40RcuHEFCG1SVhLg+Ud8/0PjPgn755wYFkIiwYeSNqAJyprSVXYaIGoxyICowlE4elnD3jTC+HrLmqAhs5j75QcMJR6Ix8zC4XCl4xhRG8JNCQTqmAoRtt2/PxNiV+9GdrlCcwp1FWvvjbqgUEIdJCEVO1AfJngiZQqfMV41WXw9q+dZ76qewcFL9H2TUwRUhuefoToujqC37ntMK+5PoEMqOcSWKCrLRc7dmBNwn2dM/hpI5vXHRO2dst+VlFh1Th7e+Qnrh7wo8+uqcMAs5SN7EJDDt8noC5jXQqFLY4DZikbdFIjBi6JoDWQ+NThlp+/cczbb8tGvMwDCKKCex4unI+W0xThaa4JFUExxIwUhqgZapFEwJfg2eeN+MNXLnLV9jlwZzYrvqT5Nh1FSG0gzA11yQWV9AWatPm+/mDy2g8f5bc+tAxz8zA/QGKXi7Ql77BCjQXJhZqnE3dEFNUK0kp2O6bJXSvjAGnE9z8LfvnaPZzTTAeXyqxeAslFqGvHlHJwKRS2PA6QQByf1XmSi7N7kfG3B1p+9H1H+MSDNQwjMtdAUtRGiFS4BMwNP+3Gl5qPY9ZlfylRBMOlyp17B4+wsAj/7yt38srz53olOSFphZCL0CVbxuNSxs1sZIqQ2kgYmDhJ1rpa8qFAWJms8O1/PeYdt0XYXkEz7IcNxzxMc3b15RvDtdwdNI9kEXeSOT5O0BnPv3DAb7wA/sG+eSD0aUvZuFH6QqFw2smdgABOZ5H/cPOIn/mIMFo2WIhoHQgEktaYxX6y+UZgemDLQ53dLA+Lx2B5DAne9JKKf/WcRaDB3El94b26EqZvYzMYk56hFCG1weg8IWRzN0RBnU8cWuE7/nLMrQ8vwFkK1s+ecuvn5MmGq4cSIFgiCiBDWFpl53bj9dcMeO2zG4ZSYwlEtdQGFAqFJ4yZZasTMe442vK6j4z5o9sdfACLSrAR4kKUjTdaRvA8e0+n0TaHroKjY/63L4u86bptVNSQwBQ6jIqK4HLaM5WFx6cIqQ2E4SScOjqgUAl/cfcRvu+vIgcn88jiJOfSJV/NSNC8U57yostZf+8ant/B2uB2RaohvrwE48R3Xa388rVDLpzbBqkjaYVZS60KUp/CdS8UCpsZs45EoMKzZYIY77iv5Uc/kLh9/wh2DpG6xlOamtRx+kP0GfG+dNX747YGhA63ASw5L7toxB99/TZ2DYbQJqx2IkJNKBH7DUwRUqcJ731QxHU20FKS45oHDyPCG295hB+93qGqqRYcvMHSCAs1WK5BYl2J5alCZvVMmgs9zcFblAZzAU3gCkdW2HeW8JaX7eBV5zfkKFoCUayfFC8lXF0oFL4oEskNyYUD5CKqSCLxUzcmfuNDqyQZwjYBM6QfSWMOSEUuf/BcrwScWpGVhV1vIQw4KopQ4bZKWhpy6VnL/Mk/XOC527dBSrP6Ktf+POFgJEQEKWGqDUERUqeLFImqVK5ESagBKBpymfnPfGSZN9wwguECDFlrRNkAqGeLYtOAWpdFUwWhgyQBW1kBibz2mnl+7vkL7G4cswpBy+DzQqHwJHBslMnMUY2A8MGHjR95/xIfuTfCYk0VGsBIGpAY8UpwbdDU4dl44HS9iWMRAIWjLXvmx/zxK3bx1ec3JBfU8iQLQkI89J3NjlCd7rUuUITUacMTmEaCg3tFDIm6H57wXX+zwh9+2mEhQCUbLM3v+apOHPUJGlNOzcmAZEv4uOI5exr+83UVX3VeBSQsDgBBQkKk7PiFQuHJw91wT4jXIBHRCCi/9vGWn70xstqNCMM58BpkFQSMgHuT6458g7mkCzAylMTvvqzm+y+bx4hYGlCpYdIh1uQuwA202mcyRUidJhId6hEYkhAqaTkcjX/0J2Pedx/oWQ4MMYlsMCWVi+BtjAoYC4DAUgfNhNd/WcUbnr89R6zMmIhRp4CIkYLTlCuoQqHwJOI4nRuNK606ZsaQChTuOjTh+z54lPffrjDXwFyNaES6ZVwGuNa9kNooOFBTuRO7MRyp+OWXBv7N8weA03lD7R2RhOuAeiMJwDOYIqROF+4kEzy0VNR85mDkG991kM8+kpCd26nM8JCItlFGB/QF8OJIEmpJdAjOPBx8iGfvE9784r189TkBGGOpyt5XqQOJmDYIFaHs94VC4UnEgWiOeptrj7QGBLEJEiqchl/75BI/+3ePMup2ws5thHQYtCEleluBadPO1NPudJFHyzQKZhXREhw5yqu/bCe/fd08AK0pjTseirPURqEIqVNB71qbECoH1w43IWmgJnLjQ4lXvesoDx4NsF0RawgpYSFinF4hJf3oAiMg3oE5XjdIiviyU4UJ//Kail994XYaatwinVbZvgFHEFzzVyybjZ7Wt1MoFLYgbtl/T/vy89zOIyBOZQ4qfOJIx7/420N88C6Hhe3IvOVGGesQrUACYhPsdEfNxQlm4ANSZRAjLEe+7Url7S/dCWokzx5TItnV3RWUxGMmSRROCUVInQLMDU+577VTUJygRhB49/4R3/hnK3TdHOwI2ZHcrb9KOt1XR3ksjaZIAMwjXtdYN48vj7j4vDH/9bpdfPW5+cDj3tuHlv24UChsELI7zPQ46rzhE6v8zA0jiA2yoEhIhBjRMCC6kRN9p/sgJvQzcvIBNQk8OuYlVxh//Irt7GoaOnfEBBcIli9Yg5ZuntNBEVKnAMfAnH4EJ7UGoOK/ffYg3/vuBAyQec2Ot2JsuNa23qdKguLLCdoJr7k68OYXbaeqqjzkHCCUMQaFQmHj4e6IpWyEKYmbHj3E91yvfPIBYIdmY2DP/nwmG6hFGgBHPds22FLimn0T/uzrt7Fvbo7kI1wqNNYkMaog5Rh8GihC6pSQiElwV+pqAji/efMKP/a+AFIT5ltMtW8e2WA7gSjKJDvtrg7ZvbDKr794wPddkse7jGgJUWi0LiMMCoXChsUtMlFFzWk0cKSL/MSHD/M7HzcYbqeqljEZ9E4zG+m0mKNTAcNNsaWKS89a5c+/YYGrdjUkd6LXVDImSEOxQD/1FCF1KnCIDpUmIPDvPn6Yn/u7CVQ1Oh9wcwKBuFF2XumHHksfXp50sAovubTiD142x4ULNY7hGNoFYhURqQinuZ6rUCgUHo+Io9aiJqQqEFDA+KPPtfzwe1Z5dAVku+Lrj2MibIT5W+Kg7qRguaPviHHWzsQ7XrmDrzh7SHQDgyoUEXU6KELqScaB5JHKIl1oCH3RtWruZnvdDYf4pRsGMLcIcyv9hU/dC5fpEk4fwfOBxKVDxLDlGsIq//7aIa97zkJePxNcFYj9aOUSiSoUCpsEN1wkT2hwAwkcGCW++70rXH+rw4ISmgnuDYL07n6n8xjnMBN3DtKCDGApsHN4iD99xYAXX3AWyRx14/9n783jLauqe9/vmHOutffpT3VQovSKwS5GxYDYK6KR2BETMcnHiwm+eA0v6lXTPHyxSW6M3YsJidEXY6JexUs0NgiGLiDSBjBICYINSCNYVHf6vfeac4z7x9r7cKqgjEjtfZqaXz9lUVV77zXPWmuv+ZtjjPkblXf4VPtQJd9Y7tL5/YIspPY5CYsVHWniJCEowdXGlG/+xgwf+Y5BIyJFiZlnuYXTbjhBLEJsYeUY7IocPrHAp587yfGPGgKU1AEJjlzTmMlkVjtaVQgJKep+n39xzTRnXJvQMIoMR6jaWNmAtJLqpmpR5+igLWMoOL76/MALDhtF1UiiJAt4SxQu1aIr01eykNrXmFJJ3bKgkSooGoDyO/++jX/cEnCjozjfIS72WlpJSB3JbkeYE05+rPHJ5zcZKwOJiEueZAU+O5RnMpk1gKrWO+J8G3EewXHJnXO87uIOd0x53KRiUrISp0lBKVyDzgJQ7eRLLx7h5UdM1B6FsU0VSkpRXI5J9Z0spPYxZtChwhsEVzfU/K2L5/lf327BJk/RMZwMUXlFV0xrgq4hnQjMJ4jwoWdG3vqLE0BB1A6h8ph3xNAiWJGFVCaTWfUka6GiFLGJSge8x1GwvTXHKRe0ueC2BowmKFZGrdRSggSkSljZIXaAlvK5F0/wmiPqcouKuia3yMXnfScLqX2BJRDBcIgaqesTBY7fuHCa/31zhPEmIoqThFE38R1403ExJArm6i2yRm21IKqYADMVh0xGPvWCdTxncx3qTrHWV1EUR8SpA1fk1F4mk1n1WDKMDpXzOA0U1kF9wEldiP7O66b58/9oYW4IaQpY12DYQHDdeivo1q0PlPqwnbpExBVoS6Ga41MnTPLbj2kS1fDmENddJJPqOWpFLN7XFllIPUwqjYTYoSqaCIpP4IIH6/DrF+7k7O82cOMeFeqCcle3WalXN4O6oQVcxKniUpPk667nooJ40AqYLjjh0S0+8/wxDhgua08rQMRhAorWX1xzKyOIlslkMvsCq7N79VrTQBQxuuLD8dXb5/jtS2aYmhvDjSlIG5USFyMiBeYEaKMWGOzDsdvSRuv5RALYgkCs+MwL4DePWodqXS7fctBQQCMWGvj8EN+nZCH1cEltWhQIhher03kaOeXiOc660SEb2oiMoLaMxYoCrjK8C1RFh2AKUTHXJC0ItKd587GjfOCYcYLUTUDFEojrrmAymUxmP8KoF7tdb7xb5+b59fNnuOHOAONNAlXdwksEZyUhOjoSl9VLT8zhQkVqJVgo+OwLjVN+YZwEWIp0JFBqJHhAymUb51okC6mHSRvFKRSpA92dH6dcuI2ztjRho1IkR5QGRpvlC+V0t8+6iIji2020KNDZecaKxD8+D37tyCGgrFsSoCDdli+ShVQmk9l/sCVONIbWqTGUlGZ50zeFj92gMFpC2cTHBZyrqLwH86DLuWAWfCoQN0OsmtDu8NkXe045YhK0wtRoe08QCNnzb5+ShdTDJGrEUApXAJFfv2Ces281GGsTtERpYtLBlsWxvFtE3rVYKC2COjpuDKbv48gDHV96/hBP2DgKyaFSdXeu3J95rPPpWUplMpn9gVo0qdW1RCJKIkESvK9tbM78zhSnXzYFbhPSbNDUXbQloM53VZirfx+4/ZThzCMaajGVHLQ8n36h47eOGsUQ1BJCyE0o9jFZSD0UzDAMk9pl1nCgivhabJxy4SxnfaeNmyix4JDowUeUBDbA6uzul8QlRURIBHAOpwt1kXtrnuc+os0XX/JI1jVCveoyqeXWEsFXG9bZyuv9l8lkMn3BoLvbzboPUkMRdYikxWfhuXdN8Ztf38UuncQ1FJOAWQPnKiRF1AnWE1SDHLszgpYkHEIbbQNVm7NePMFvHFFnHMwUXK3yzByOCsSTW8v8/GQh9RAwMzRp7SniHSAEBxD53Yun+cQNBusLxAlmS7p3L0aGBoQILhmC1tHmrv946nhYWOBNvyic+ax1gF/8nq+0Fn+ZTCaz4ljywLxlV4tXfX0XN91X4sc9JrbomO7VkUTQQRsu9+YdkVpXOYfOGxJn+OKLh3jFEetIBokKMFwswXcIzkNO9/3cZCH1EEiARKuDv04onAIV//clM/zNFoFJh1dPMls+ZSLgEniEqlRcVeBQYmsezPHXzyk5/ehhwJFUcRKyiMpkMpmfgXq2tLrPqHjmqha/dmmLr393AT/WBBtCXQcRJcSCjk/LOl5RkELQ9gJlJZx3YsnzD5sgAUkThSlJajubHI/6+cnn7iHgk5GcoaFN4ToAvO3KHfzNFg+jIxTJMIvLmwozQ50neY/TecwZcdrTLANffUmT048eBzM6qQLns4jKZDKZnxEREBEMIaUWI0XJeS8c5/96WpO0y0htQcp6gV2tgEIk8w4fO/hQ0pExXnThApfetRUPlM5TeY9YxOV4ysMiC6mHgqsQhSLVab0/vXaWD11dwkhF4TuINupmvrJcN2WvQlzBWoQ0gk1XHLrxx1z28gYnHToKqSKmgJeAZ3lXS5lMJrMa8ShGk1gpoPz9set4/wsjxHvQqUDQgEnF7tXmA964Y4BTFI9LBX5knlQFXnU+XHHfPKCE2DUWXUk9X1chObW3VyJEw6TAfMKZwyyBAyHwwS1beftlAsUkUs50bQICavWuj0F+YUQUIWAmiCXMG6YG2wPHHmL860sCm4cDyQqc9IzjHF4Y6DgzmUxmLWAYESFQiyUhAC2+fLvyG1+PtA0Y7+Bi3UpLJSBE6sKQABjSTQf0dQo2Q1xATFEigsPmhjlg/D6+cdI4j50YJioEHEkMFaNQh0nVbQOW54efhSyk9oIRiSp4ASeJlErMJYIkPnn7DK//qsJQAUNA8ovvGjyCiBGsDTZGlAUMD1OJlz26wxdPnMS7BtGUgNTFkLnCPJPJZPYppoY448qtc7zivAW2zg8joxWSCjyG0kL9cF3+0RUoIjK4hsgmdSDARWy7cdimyBWvGuMRjYJk4JIH1wKadTBrBaQmVws5tbcXxAJePGKCWgm+TRDlvLsWeP25HShGcKXn/uzYMqbzrASaJD+NxQbsqHjTkyJffskmvHMkbREUkG6XpTrRv0zjzWQymbWHkqhoc9wBo1zxikkeNzqD7SxQlzDXAsYe4IYw0DhGtzWZRXATTW7/SZNXnTvFdEx4gU4QkIDIAm7QjQNXOVlI7YUkhknEcCQzPA2uuqfDyV+bgTCKG26Dk274czlvOiPYHElAWyMwp7z32ZEznzNOvTMPEiU5RJvJZDJ9wgxUwAJmFUdOFHzz15s8/VEzj1766gAAIABJREFUMO2JVkCYJ+gCyz7tugKkwk3CVXcVnHLeDsDRIKFagDaITnLV1EMgC6m9IrgESRKFi3xre+KVF86ykEZxQwXqHJIi2GDrocAhYt2AknW9QjxagVTzfPR5s5zxlAOAkqgLOPN4g+TyCiOTyWT6gYmAcxRaoCaodVjXWMe/v2IdJx85AzOCpUDdWbieM0R61ueDnYbF6gJ59eBGhzj3R55fu2Aaw+N9h4Qg+sA5LQurvZNrpLoYIFobqimGqCAGEtr8pJU47ouz3LbLI2MNLBk4pbZeG7DZpkFDEtEcyUWcBXS+IDDPZ08IvPrIccBQc7UxJ4Aq5qTb7iWTyWQy+5K6x7HVz9uuGaaidSsWVX7n36f5xy0C400ktDCEQusd3pXJYNfiVm9QMgn1nAews8Pv/3KDvznOA4LFRl1P292EXpuNklvY74UckeoiCiAkMZIo5hQJymwlnPyVDrdt68B4wFICV68oBi6iEEQqYrd9QZEa6EKFhDnOf2nJq4+cRM1QrUXTYlG5c1lEZTKZTJ8QwC2tPRVwODQlcJ5PvGCCtx5jML+AVOBUSJR1UYh0GKiSEuoNSaaYGDiBdcqZV07xgevqXYUSBHORKIkkhpjgLM8heyMLKVjUQpVTzBKlghcHJE69ZI7L73WwfhJS6HpEye5vHBiKaANFsIajmotMFhXffMUozzt4jKSKxA7idNE4LpPJZDLLQHfHt1YV4PjQM9bxx8c6dKaDqkMLxZJHaDL4uWTJ8czAD8G6Ed5xdcVnflibTXsVgkGURBTLub2fQhZSAFIXl4NRJAGr7Qz+8LIZ/uVmg/GKkCDYMtUZLd7ADicVwQzbGplcF/naK9bzjI1NokZc6qCuQTS6fiWZTCaTWQ4UJVHinKCxBST+51MnOOOFwzDXghnD+4hY1Y1kDdiwc8lIi+govUGZ+J0L57nqx/PgPdIRChOiKJbVwl7Jp6ZL1wS2bu/ijfffeB/v/88OjAWcDIG0UXe//8dgRuS7MeOEWP0rSkk1m3jExDTf+JUJnrHeE3UB0YCFEvV13++cystkMpnlw5nDUJIH54aIFZh1eO/jR/mr5wZoTVNVoW4qr4qQQBK1Yhnk81tQ10alwJfDdBK85PydbNk1Dw2HU6sX7wMc0WojF5sDdF1fTT3eC5/73gyv/XobRoagsNrIbMBu5VAfzkvE1CFaYq6FzgWOmJznvJeNc9RIk5QU76F2y81kMpnMyqE3vdZzR0qKFwMX+ehNbf77pW1oNAjeUApgHiSgyxHjMOrImAOmE0/YUHHRy4Y4YGiIpIITkOXsI7uCyWelixh477nqnhneeGmEZqMromCxh91gRwQkVB1F2yGloNOeoze0ufjl4xw1MoxFRTFSFlGZTCazAtk9XWcOKjWwBm98XJP//4QhWOgQK8Gb4qsC83WZybIMtd5uCKPGlh2BUy+ugIh3jge4iWYW2e+FlJnVPepcyVRrhtdeWDFVDRMacZmL6+qdEqSSzrAn7voJj90Y+beXTHLo8DARowotAt2UZCaTyWRWNMFqS4EWEfD87qNH+fQJY1DNUOk0sTEEVVhm/2TDieCHHOd+b5Q3XzYLtBHnB+vEvorY74UUgDghaYdXnbfAbVPDuNEO6prLMJJeGrEbATPDfBubjhy5foRLXjbEwWMFbQWxBbwWRIqusVsmk8lkVjLJavfzUlokVTQZv3VUwT+dMAydBtZpIa6q5wFZMhcMeFWvFhBvMDnLR66HM29oAV2LrCymHsB+KaQMMI2QqkWLgN+7Yo6L7/AwIZgmSK0Bj8oBDnEJZwFnCfMFzDoet1659FfG2Tw8DLEiiIIM462Bd0q298hkMpmVj3PgneJ0BJMCcxGIvO7R6/jEcwJ0Wmg1hIjgY0LwOBcXd5IPCkHR5JAiwIjj9KsW+NLdLUBqz0WNeWf4EvYrIdXLPCeUjlVU1DfnR27YwT9c34IxwCImJSaDrjtKFFbhksdEcDiYrviFdfOc+9IhHjneoEqJ6ANeXD1yD06y2WYmk8msBqRXsO2EIOClQM2jarz+6DH+6QUB5uewjiHeY+IJ6vFSMch8n2GoUywJFA7U89/P38kPpufAC22DpB3SYg3x/s1+JaR6iBmFFBTe8dXbp3jz5RGGh6BoAAKaBr9BT6QuGncGhRKnEgcNz/KVl09y6KgnJnBOcTmNl8lkMmsGMcOsRVLhdUdNcOaLBOZmiFFwvkLNUTefGfCz3wxUEVfAaIN75od41XlzzKUODR8QcyzLbvYVyH4ppBwe5+COmQV+68IKwhA0S1ADq1cCg86XmSoaFMxhOyMHHAjnv/wgHjPcRJOSXAunDpcGOqxMJpPJ9AsDsYB6I0oL8LzpsRv4n89fB7GDTgnmDB34AlpAPDipy2BUYKLBt39S8Hv/Pg908N7jcHkzH/upkBKBKsHrLmgzvSDIUKw757k68YfpAG+O+w/k1ZEWOqxrLvDVF4zy+HWQoqJ4SlMUh7n98pJlMpnM2kNAvUEaojRHZQoW+eMnNHjXUwtozZCS4az74j18qfo7NEEwQBFRRCNMwGduMv7qujbg6lRl30ey8tk/ZmWLRFNMqd1j6fB735zmkjsiTAak8pCqWjyJdH/v85hE60J3KWlQUTghzTmQDue8fB1P3+gx6yDBEB8QGcL5+3tiZjKZTGb1I0AhAtLA00uXJf70qWP80XNHYVcLlZKmdfACEBCXuiKnf1ivnFyk3kSoiiPAqPGWq1t89a5pIGGmJAPVCiz2dUwrlTUvpAyoAFVw2gE8f7tlO/94YwXrhvHJoY1eb7quedoAxIozj7cWPlZUUlC1hKab5xsvG+UZG5rElFBt4Ah1Ybnkti+ZTCaz1hBqN3ERcAJISYweiPzFL43ztmM8TLVpSUCTw2sLb0rdzWIQqRMBc6hXNAjBOShH+J0Ld3HHQhtxhqgS8STcfll6vuaFlADeBI9CUK64d5o3X17CyARCi+QbiNF3db87dR890WEsLKAtj8Q2Z53Q4FmPGKXSREDxPgunTCaT2a8wCE5JqS6I/cDx63j90RF2CHgDl3BpBCMxyMSaaELMEcUjzch98+s59bx5OtrG+YRTY3/dQ77mhRSaEATvhZ+0hNdcVBE7Q0hYqD08LOIrQAal7gEERyJJB43jMNfhH56dePnhEySLBIsogUiuLM9kMpn9CRUlCggBjQuA4xMvGOOkI2ewnQ1UmqgtcL+zlA1ATxmOAhcBL6ALMAwX3x74H1dHwAjBIZYwtf3OtHPtCSkz7u+YYpi4bhF55E2XtLlzR4Gsn8MMRIcptE0sFOt38dFinWCdPjSrUBOYXeB9z2zz+scfiJG6zb8dSQyXnTYzmUxmv8JZnUpLHpwELCWgwb+8ZBPHbt6GzSjqE7bYx89Dsm5esH8k7zBpEToJsyEktGG9cua34HO3doAOFX6x08b9HQPXvqhaW0LK6vK4BKhGkmo30Gh85MZ5vnBLgnHFrAQ8JhBd1+qgnwpaIGjdE885wVGRcDBn/MEvKn/4tA3U4sohIeCkILh6a2kmk8lk9iOkrkMKOPAF4mvDzkYo+cKvrONxkx10vgSXarseHMEc3vrsNaWGOU8K3WCAFrggEIzTL+twx1yHwhlRBY2KmaFmta3QGmdNzdQmQjKlsAUs2aJX2DX3LvC2K4FhQ1wA7f3YWt92fY78iCkiHhHBxTlUGrAz8OrHdPirZ68DPEqnFn1dQSf0ei1lMplMZv9i981FzkGkzUGjw5z94iEmynl0pon4iLkZtIAyxr5n+My61cRSx5s0NZBhY/uc8vrzKyxVBC8kBFIHR4e4H1j2rKmf0ACxhOLRUOBDm20LLV7zbx2iOWSkqEWN6X/5WfsOwZmh0sK8JxUjsKviBYcYn37BJGBYSogW3fYBWTxlMplMZikOnzymHR63vsHXXjyK1xbWCXgbxRJ0fGSwrk5S74Q3B5uaXHS78JYr2kBF6SIpNMAMp4Ocb5eHNSWkxMA5T5KCQiog8PuXtbht2sEIuE5CzBDv+py2XWqhoCRKkhPMErYLHrtpB2f/SpOGL2lrJIrvFuet/RBoJpPJZB4aZoqZpyPQScrxB43wmRdF6OwiLTQhVCRfdFvJwP0F6P0VVq5wSEq4lGCd5yNbKj7/vQ54UBSTYm2JjL2wtn5GqaVIoQp4Pn7TDJ+/2WCyxCkYHvUFqrF/aTMBqPAJxLrpORcIFrDZNuuH23z2VzazrimYGgUFwQR1uZf2WsHswXet7G87WVYLe7teD/a6B/vvTKbfqAjmhNIKgpSgidc8Zpx3HTcEC/dBpRRaLmY0nHl8Muptdv0jqWGhgSTDeQFX8pYrFtjabtHAYShpP0iyrCkhJQbJHDjj5l0d3n5VG0ZLIKE9saIR8PQn+lMXttf3ssOIOO0QdI64AATlMy8qeMr4MImAOIdzHvFCEL+fOnCsfnoTsWpdYCkiiMjiZNv7t6WvzawMll6Ppddob9er9+d8DTODxCN4B+IE5wScBwr+9BfXcdpTC2xXoLIOwSo8FXjD79ZSpj8YdS++JK4uLB/y3DMjnHbpPGC1h6Ou/XltTQkpNaNwjkTiDRdPM90eg6ayaFreb8SQBF6bpDIiTgl4ohbQ7vCx5w7zkkeOg7bwdAYwoEy/WTqpOud2q3HriameuOr9XWblsPS6uG5R7J7//WDXLF/HzHJjFsE8H3vmBk58bBumFzATvHrUddDCEWKTwZaMVDDZ5Cs3lXzkhl3gDPP/9btWO2JramlV1xn90TUz/OUVAT9RgU8kSgZ1M9V7LRI4RTpNkithYRtve1KDDxw/CiZUyeOD4tgP7rA1Su9rs+eEurCwwNTUFN57xsfHaTQaD/q+B3tvZrDs7RpOTU0xPz9Ps9lkZGSEsiwf8L587TLLTbIKTYEiRObn4Slf2cUtcw0Iw5QsEF0b0wKTPtsi7IbiLZI6IxRScfmvBo45cHiv37W1wpoRUmZ1OdLX75zhJed1QBq4oQpLrv9mm0sRh1iHIiY65STs3MmLDm/zbyc9EoBOrPCuAJdl1Gplz4n0xhtv5OKLL+bGG2/krrvuYteuXZRlycjICBs2bOCwww7j2GOP5TnPeQ5jY2N7/ZzM8qCqXHHFFVxyySV897vf5d5772VmZoZms8no6CgHHHAAj370o3nmM5/Jcccd9wBhlcksBwkwrUgkGq7J1fe1eOG//phZtxHnA+LnukGEQQopAEO8YdvhqQdXXPPKDbUnYm+SXoOsbiFloBIxdXiXmE4Fx3zhPm7dnggjTaJ3kOrmjwPbFirgzCgQ2vPGL22Y4+sv38wBpaBWG1s5Urclzdq8qdYKe66iemm6Xtrnsssu4+Mf/zjXXHMN09PThBAoioKyLEkpoap0Op3FepvDDjuMl73sZZx66qkccMABOTrVZ/a8XkvTrL2069lnn82nPvUpbrrpJubn5ymKgkajQQgBVaWqKmKMVFVFo9Hg6KOP5tWvfjW//du/vSio1vpqO7NC6dVmutqJEAL/8oNdvPrf5qA5ifeGYpgMcooXUIcrFEuGTc/x1qeP8aGnj2CaUHEIiiOsqelvVQspM0VN65oGcfzepdv52A0JxksoC4hau6r22Tp/N0RwFtFWyYSb58pXlhy9YaLrs5kjEKuJPSfIGCMhBObn53nPe97D5z73OVqtFps3b6YsS5xzVFW1OHH3PqMoClSVnTt3snPnTg477DDe9a53cdJJJ+32uZl9S6/43zm3m6gSEX74wx9yxhlncMEFF9BsNjnwwAMJIVBV1QO+o72aqaqq2LlzJ1NTUxx//PG8853v5OlPfzoAKaXdaqsymYHSnV8Q4UPXbedtVxTIhIIoZgWDi0gZoCAlqEJM0J7ngpeN88JHjVJZhTcB8bg1NBeuWiFlQMIIKYFXzr5d+fVz2zAk4B21rXltnz9IYwEBLCZYWOALLyp51WM2giUMl0XUKqYXybjnnnt47Wtfy/XXX89hhx1GWZaLESfYe1Si937nHNu2bWPbtm284x3v4IwzzgDqST9Pwvuepbvveuf/mmuu4dRTT2Xr1q0ccsghi0Lrp2FmeO8XBdPdd99NURS8//3v5zWvec1ux8hklgPVhHP1zqrf+ref8L9uHaqDCpIGOg4hYVbb/iAGUy0eu3GIq15VMFk4knrMOdbS0tG/613vetdyD+LnQQBSnYv98Xzk5AvmmKlKaHT/0ayuVxr0oAyYLfjT4zxvfEIT1WKvO38yq4PeBHnXXXfx2te+li1btnDkkUfivV9MEf00EdSbhHuT+sjICGNjY5x77rns3LmTE044YfFz8n2yb1maxvPec+WVV/LqV7+aGCOPfOQjF18DP10IOedQ1cXPm5iYIKXEF77wBQ466CCe9KQn5WuXWVZEBFOHiOPEw5Sv3yPcs12gobsHpPp8nwpdewbrHrdZsH2HMhUrTjq0gdC1ZlhD35dVtQTe0/vb+brm6I+umuPHOwuk0UFSAou1FYFIX3sR7063E/d0m1cd1eZdT52kVnUd1r5B/tqmNxGffvrp3HLLLTz60Y9enHSXehD9rJOwmRFC4PDDD+eTn/wkZ5555uJxIJs97iuWent57/ne977Hm970JpxzHHjggYuvebD37e3vetdPVZmYmGDDhg28/e1v5+KLL+7vD5PJ/JfU852mipEwxieeUzLenIWW1uUtvfRfnzF8nWW0+piSKhgV/v5m5V9vm0fEg3RnRVsbRtSrR0ipkhSSRjR2sNgtrvvuDJ++OcKYR3yBOaE23OxOcn0WvYIgkuqIxHSHx2xM/N2zR+shp9g1TsusNpaaMgJ88IMf5JJLLuGQQw6h0+ksvgbur6HZm1Fj73NEBFVdFFUhBDZu3Mj73vc+rr/++sXP3PPYmZ+PpYXlAO9+97u544472Lx5MzHWjs89kQu7e0o9GEtTgL1rOTExQVEUvPvd72Z2dnbxuJnMoDHoTX2QlCdvGOLjzx2FVgdiXQAuziN9vz+7IY+6eSwmAR8cmOftV8zRqirAk6pEskg0Qw0GGPXY56weIeWEQKTCEa1EAkx1Wrz16jaEYRxtnCXuV069PFs/L45DLCDaRufaOO/57IvWc+BQiZrhnMeZrKmiuv2J3oR4yy238Hd/93ds3rwZqCfUPVN5P23n1p6po6UT9ujoKFVV8cEPfvABr808PJZeiy996UtcdNFFHHrooYtCdk+z1P+KPa+JmRFj5BGPeAQ33XQTH/7whxf/LaXB1qVkMgL1fENdg2QGv/HoEf7o6aMw1UFSRAyQfnX26NHt6NCbfx1I7CCjjh9sa/KWK6eAiMcRrQDTeu5exfPkqhFSCSE5pVQopS4k/+OrprhzugGjAczQBMgAfyRTlA4axqHtOPP4yNM2lJgaYgriMNxqFtr7Lb10EMDnPvc5pqamGB8f32cTZC+iISJs3ryZK6+8kksuuWTx336WAujMT2epaP3sZz9LCGGfndfe5oBeAfr69es555xz2L59exbDmWXDhG5tsNS75jD+4tgGJx6ZSFMF6h1mFYOb+g3M1+NKbRhv8Pdb4OK756EwimQEFJXVneJbNULKzOrichEIjgvumuejWxyMgNMKMYeFcrC+YwIiCjs6nPo44Y1PHKf2rDLE9YqH+x0Vy/SD3mS4fft2Lr30UjZs2ECMcXH7/MNNvfVEVEqJsiyZm5vj/PPP3+3YuXj54dETMv/5n//Jtddey+Tk5D777KX1cSLC5OQkP/rRjzjnnHMAshDOLAvS9Y2q91o5TAUI/O2zh3jkZIJZw0ni/ql/EPeooM6DeXyjAvX84TUVHevgSkFUUNFVPUuuGiHlRevQpRcWrMXbruxAGqL0glAg4jCtqP1e+4NgOLq7EhDEgc0UHLNxjo88pwGUpORBasux+vSmWmxlVhU9EXPttdfywx/+kLGxsUUBtWeK7uf9/KWRi4mJCa699lrm5uYWX5Mn4odH7/xefvnlzMzMMDw83Jfj9ER1CIHLLrts8dhZCGcGj9XFLQIqBmLEZBw5MconnuWhPY+mIaADVjc0q+e0fs1RAlSIOhCPxQI/IVx7Z+DPr1sAQIPDrfIpctUIKcXjfAHAe668j2//JMJEQUeoC9bEsXgH9Ytu2VVd91Rh7Ugo5/nY8zYyVhRUKS4+QB29B3mA3Axm1dETMbfddhvz8/OLf790cny4QmfpTr9ms8mPf/xj7r777gc9Vubn5+abbyaEsNfNAA+HnqhOKdFsNrntttuYmZnZp8fIZH52ukt9EWrzH4cjEomceNgkZxzjYX6hdkKXei6TvtcnyWLqTi2ieBgPvP/6Ftf+ZA6HoFIgPLAGcbWwaoSU757Uy7fN8+HvjEBzCGixu3Dq581gmHkEQ52h0WBB+cDxDX5ps0e1ooieOFD7z0y/6ImYO+64Y7G2pl/HACjLkoWFBe688859fpz9ne3btz+gnUs/aDQabN++nXvvvbdvx8hkHgpRDBVPiAGoeO9xIzzrMEeaASR128cIZgNa7Eu9Oc/5SKvd4C3XJIwOQaraLmGVsiqEVG1jUMf+/vDKGTptwZeD9kV1CBGxqi6cm23wiiM8b37cBCCIeTQAVOSaqLXD1NTUYl1UPwkhkFJix44dwOpaja1k2u02CwsLi+e3n+7x3nvm5+dzRCqzYhAMs7put94nU/C3x48yXhq0G5ilbh3vYHeZavLIhOeb32/zkZva1Fv79hj7KorIr3ghVYfOATwf/s4Cl//Q48Y9Qvfk95PdLqTV/wsepjscvn6Bv37eMJCIHUdlnuTbBAurWllndmdQRcN77gbM7WL2HUttDvp5LZdaKvT+nMksJyE5hIpWaGGpQFPiiZMFH3nuECxMYSbdqqo979W+GzDiXYJRx59dB7fOAqs4m7Myn9ZmYErCuvs5je/NL/D/XTcFZQPnQt27ro+n3Qm41Nvd4IC6iDx1SkiJDzxziIOHAiTDeaEIiaB10fta6mqdGcyE2DtGFlD7lqVCuJ/nNounzIrEg3PDlFbiC6ubCafEf3vMML/5+AKmHUmKesLrzXMGzmJfhyWiJA0wXLJ9W4e/vG4HEBFAMWLfPSD3LSvzqS2CkVA1RBNg/Nl/zHDXzgCjTSwu1Fqrj55Rpoa4Wjw5qRBrI1rAbId3PEU5+dDRWs37gPPUOwedH6iNVab/DHJiXBrNyKm9fcPS89jvaNRS1/pMZqXgRHDiu/501FYEwD88e4yjNs7CHLhkOGsjVOB83calj98Xs/p4zgTWDfGPN85xzl0dQIkdxTRitnq28q3IaV+BhCckIMDX7pzlUzc7mJjESUKcoaQ+Rn4Mc4EkDmf1DgcTj80JTzikzV8cP0atluuRZjL7ijwJr16y5UFmNSCSUFWawfPh5zXBtdCqBIRCEmIdkivob2qlbl3sNEIooNjMH18+R6UdykJwKtQhlNXBihRSjoQzQ7xDgT/9jw6oQ2QWr/OoOXBl17m1H3QNEbXddcEYgThEo9zFR48bxzFCWwUxzVm8TCaTyawa6l57SsLz0kes5+1PFpifQd04kRJPAq36aokgzmFSojHidRaGO2z5iedDW9p1dxIXELG+lu/sS1akkKqzo3WPng/fsIvr7gRGG4h4YnKoa+It1W1Y+iVlzBAJmHa7QO7ayjueMsQzDxwCjWAVFUr2iMpkMpnMasHwRBKmCkTe+bRJnvCIDkxPYwRIglg/pYEg1kGcoqGJqtW99kaGed9189y0cwHv6M7vq4OVIaRMu/UhvbSsw7vAnXPz/OUNAkMBkTaKx0IBKGoKztGX4J8ZEDGX8G4Its/w/MMdZzxlkjqdZ5TiEFfu+2NnMplMJtMvxOGkIFDXKo05x8eeP4m3eaxlQIH5CH1zOzfAYUnBgbkStRJpLDA1PcwHb5wDEo6yrkO2bnDFtI9jenisCCFl1FFEswRoN5xnvO+6Dtt2GQw3MKsFFJbAEuZCH2vhDDFPSIEqThPGHR967iZK6DZgrAvLw8o4fZlMJpPJ/EwIEMSDcwh1t5BnbBjij49dD9Us0XfwMdBPeaB4zHnobiZDEqYOJgo+eZNy8V3zdS9bak2AaVcj9G1ID4sVogQcZopz2j1xjqu2TvOx7yUYcWAdxDz3R5/6f0YNobIAHeUDTy148roCtPaSyvWkmUwmk1n1yP2Rnvc+reTZj3Qw7zB7MG+pfUkv/dQ7hiAmuNCCOMb/+60WsADiEEkICVVqe6EVyIoYVS8ihQlI7Vj+nmsWSG3FFR6nILQY2HBNwCWYneVZm4d48y+OAi3iAByuM5lMJpMZFCKOjnmg4s9+eR116UxtRdDrLzsInBiowHji8h8J/3RLh/vb1wjiVm7p+bILKbOuJlVddFj91+/Pcd4PA4wGHAGvAfV9VsfQzS92f+8EGmXFh44tACPFgF+Z6dlMJpPJZH5ughoQeNZmzxlPAOYiuKIWNnUf5L4bTScpCeoR1wEX+ItvVUy3K0QcptrdbbgyWXYh1QstmikijvnU4b3fmoeiAAkkEtEp7Jba29f0FFLEWwLXhLl53vxLwxyzucQQxAvIyr2QmdVPjnb2j6Vmp5lMZnfEGWoBMN7+yyMcdWCAmQpxikgF6oFIX9WUJSoHpgFGPLf+xPjIjbPd8TlM44o1llp+IQWYGCoNwPjnm2b41l0KI7WzqqG9LjF9xBPM41XqXnqz0/zCZuHPnjwMdOgArp9WC5n9nj0n+iyqVj9ZuGVWC2J1N5E2ifHC+PDTR4F5zDr4VOBNcFZnZ/qH3v/pojBc8DdbOtw1OwfiUSlWbDe+ZRdS0t0K6V1iR3ueD20pYXSoPpHdV/QdM2ABKRpoFUCMv37WKKFIxM4QISnJIprntkyf6LliZwG1dsjXMrNaUDG8VrgUIBa89LDI7z1xCKYC0Q1hZRuzPkekln62AU24b67J+/9TgVZdQ5WF1N6QrqWlcOYNc/xgh0B+Kq0zAAAgAElEQVQD0MGdMHGO5BzaqWB2gbc8XjjhEQ2gRFy3q7sUyADHlFkZDDolpF23/hzN2DcsR0pvpV27lTaezMrDDJIvcGYkAlDy7ieXHLneYL6FxASun+U1eyCCRIXhwMe/W7FlRwsRh1uht/LghZQpyaBD7BpxAqLcNZ340JYAzapeyQ1wMWeAWInOKYdtSrz92CYgmHqcSyRXu5y7nNrbK2v1YV2W5aK46Se9CX94eBjI0Yx9RaPRoCiKgTQTNjOccxRF0dfjPFT2/LlV9b/8vuaasv0LjycRsJDwXkE9B4yW/D/HOWi3cLHAujVUA8HAHEiRaLeVP/+PAoho14NbiXRMuwGX5b9Pw8CPaJFkAXUJklAFKDE+eN0003MemdBuCHGQrVcUTQliwTt/qcEjimEsWV1gTqgtywawa2G1YWaLD2kzQ1Xx/sGvW0qJbdu2cccdd3DHHXdw3333MT09TVVVeO8Job4VV4KA6KXYvPfccsstrFu3ru+TiogwNDTEOeecw49+9CPm5+f7erz9AeccMUa2b9/O2NhY38VUT0CdddZZXHbZZSwsLAz8fu59J0MIjI2NsX79eg444AAOP/xwNm3aRAgB59wD3gP3f/cGITozKwxHbThNWLRpFHWcekSDs49QzrtdkMl5TOta5r4j3bFYhOHAWd/v8MbHKc8+eIyI4pJiIpgaOEOWQcrsNlwb8LIjYThNSPJEJwQf2XLfAk/+8jQpTBBYIGmJFR4G0WvH6gvBrHLCIQXnv7SspTChr00bVzu9B/aet8/SB/A999zD1VdfzfXXX893vvMd7r77bnbt2kW73UZViTEuruJh5T3ARYTJyUmGh4dJKfV1bGaG955du3YxOzuLcy5HBB4mPUG8YcOGgUUWAbZt20a73X6AYBkUvfvUOUcIgWazyejoKAcddBBHH300T3ziE3na057GUUcdtfie3r229PuY2X+p27UlnFNu2KEc968LLIhBGFRUyoASn1pIUOKccNLBHb760o2AoMnjLBI9iIRl73g7cCGFApJIAr7+A//tkhn++aYOfngCdQlzbdABKUwziEphylWvHOIpGxqkJHUD6hXqorqS6Imf3sO73W5z4YUX8rWvfY3rr7+eu+66i6qqGB4eZnh4mLIsF6NPe9J7iA9qwtsbPVHTi7INQtwtjQb0onrLfR5WO737MsaIcw7nXN8FcW9xsTRSO2iWivDePdxut2m1WszNzSEibNq0iSc/+cm86EUv4sQTT2TTpk2Lr186/pW0sMkMDjVFUZzV5S1nXD3Ln18VYX1jQH1aBCQBCZdGUYuQZvjS88d4+RFNIoKzhOAAv+wxj4ELKTXFAS2EpiQuv3eOZ351AdwkhV/AnCd5w1K/z0y3EyIC05EzjhHee+wEmiCieAdeljdcuNJZ+sCdnZ3l85//PJ/97Gf59re/TVEUjI6OMjIyQghhtwe7mS3+3VKxsNIe2j1ht7foW7+PDSvvnKxGllPULP2ODJql9+xSgRdjpKoqdu3aRavV4tBDD+WVr3wlr3vd6zj44IOXZayZlYWpYkSSeoogzFZtnvGFOW6casJQ95ndb1siqTuMFBUYjjgXeNahu/jGSRsAR7QClxLmHX6Zn5MDFVIGqEZQwQcBEr9x4TT/+yZBJocQ10aSoq7s9v/pFwLmcVKh8xWPmYSrf20D64KS1OMlYSJdtZvZk6VRqKqq+PznP8/HPvYxbr31VoaHh5mcnKTRaBBjXHztakxVDVI89Y6z9DwNWrytZZZD0CwV4svJ3u4j7z0pJaanp9mxYwcHHXQQp5xyCm984xuZnJxcfF1O++2nWKJnUCQCn/tBxWvPnYLxZt0DTw1zibqeuQ/3uDicGkgbfBOtPMxPc/ZLhvm1wxto6pb/hOXfCDZYIWWGmFCZUXj4j3vmePpX56EcAV8LrG7TvT6Oov78oEYUgekOH39hk9OOHu1W2OUIwFIebPdOT0TdeOONvPvd7+ayyy5jeHiYAw88kBjjMo109ZOF074ln8+fHe8909PTbNu2jSOPPJIzzjiDk046CdjdkmNvm0kya5f7WwsrLzp3mgt+oIRJkChUIQwg1Se1YHICs8azDqz4xqsmSAScKiJ+2TeCDXx5oWi9vZLIh65TqAoorNuwGPpfyGbdqFeCeeFZhzQ57eh6J0J+5D6Q3io+pQTUERMR4aMf/SgnnngiV1xxBQcffDAbN258QPF45qGRJ/19Sz6fPzuqysjICIcffjhbt27lda97Hb//+7/Pzp07F7/POc28fyL0vkuOPz+mhKIgRldnbQbS8aMb4FBgzHHZnY4v3VrhURKCsfy1pAOe8QSTiEP45j0tPn/3AgwHSIMdhQkoDUgV7ztGgALIrtIPxtKaJuccMzMzvOENb+BP/uRPmJiYWKyp6K1ae1vOM5nM6qGXgldVNm7cyKMe9SjOOussfvVXf5Wbb755cQGVxen+iYiAwTGbmvzB0QbzjhRCbT8wsEFY3e624fngzXNgFcEZtgJ64A5ESPViPYLhxQPKX29R0BLvFbGKvqna3u6TRd8uQQqB6RanHi0846CSiK4ATbty6T1Eb7vtNk4++WS+/OUvc8QRRzAyMrIYqeo9ZJezuDaTyTx8UkqEEDjiiCO4/fbbeeUrX8l5552XWxjt51QAJN7xtJJHjVfYXISidsgUA+m3yBYHKUHTuPwez+e+XwEet+zmB/0WUgqajDa1g7l2w4NX39PmC7cBww4z6cqsflwEA/OI79CIhnMl+Aqbj4yPBf7omBFAkBSXO8W6oug5H/dEkYjw/e9/n5NPPpkbbriBQw899Kem7/IDN5NZXfSiUUu/86rKQQcdRKfT4Xd/93f5yle+AtxvqZDtOfYvCgy1NgeNNDn9SWPQqkDbUAjBmpTWBl9v5OrLfG71/3kxoOAfvqtAG1BIRtQWlSUsDb5Qp69CSp2SfEUzemIF0TlA+chNLTQ5gpur856uSX+q/muR5KykUwrqp/ELFSw0+YPHC0eNC9EcTkIWUl16AmppCP/mm2/mlFNO4Z577uHQQw/da4uJpeIppwAymdXFgy2AzIyNGzcyOjrKG97wBr74xS/mhdL+ihimTSDyB0dHfuGRDZgaIcQ5qnKeGIbwyfWxbiphfggl4YeUi++O/Mttc4BjQYQQPYUKlVQDr3fuq5ASrGshYJjrUGJ8696Ks3+s0CghDaOFgvapq7QJBEWTYHhcdKQ0xiEHtDn96AB4xBxIB8h1PT2Wes5s3bqV0047jXvvvZeDDz44C6RMZj+it6ianJxkYmKC008/nYsuumjVWppkHh7iHKpGowyc8UQHzohxGBeVFB1GB3y/IpUOrA0hIKkE7znz5nreHnJtkhcQh3eD30XXXyGlgk8BC0rhOoBy5i0t4ozQYAF1zd4L+zYGE8N8IlQVwijEef7H0cqmkSGiOUxSLbgsm2/C/VEl7z2dTofTTjuN733vexx00EH7bSg/r74z+ysiQkqJlBKTk5OUZclb3/pWbrrpJiBHnvcrDMQSigdKfvOxDY7fPAVtT0hDOCqUXjajH89MwZFAPeY9FJFLbxcuuLMFGNEp5sBb6NPx905fhZQ5QUiYGuJGuWnnPJ/+/iw0RmgXCn4Bn+rIUF8QxVclTgOx7JBmWxy1sc1pT1gPKMHa1Eb4jWX3oVgpLLUvOOOMM7jooos45JBDiDH+3Lt2lhai9/689PeVyNIxD0JALjU9zOwbljqaD+q8roR7+qe54j/U8S1tWZRSYtOmTWzdupW3vvWtpJQe0I4ms5ZxRHGA1EXfFPzhU0aBWTpErDS8NpF+1UihKEWd4/JzeOeBBn998zQQKKSE2EEtrq3UniJEWt0tc8rff6dFNT8MjQQENDmSKPRxz5wICIq5AFSc8YSNDHmHmcOkpJQCn22PFuk9DL/85S/zz//8zxx55JHAQ38AL32Yq+pir7OeKFn6972ai5X0a6kj+yBYWney9NzlX/vuOg46otq7nsvxc/fuo6XF40vvrZ91/CK7L55UlUc96lFcd911vPOd71z8zKUbVLKgWqMIFOLxTrDuc/FXDxvnZYc0YGEe0wae2EdRUZtpJzNUHQkPw45zfqBcdOdcLbCcktCBC6m+Opsn6i9e4YxbpyPHfHGW6QiUJYPpIA1Q9/bTGTjmUW2uevkkjgKz7rZNWf4V5Epjx44dvPSlL2Xr1q1s+D/svXuQHVd97/v5rdW9HzOj0VuWLT9lm2BsDNgYDBxzATsh5vJILgkm4RFfyL2XSqiE5OQmXELVqeTUSQpSFVJ5VKUIt6giIRBOIAHHQDCPcGMgAfO0sZEfsmVLst7SaB579u5e63f/WN1bI2lsj6Tp0Uj6fVzl0ezes3vN9O7u7/49vr+1a0/qBlRfgI8d4HrsRX25pwvnuyk3tZ96oG4IYRgFsJvSqTH3eDV9rtfHbjkM3p77vp17Hi6WPUm/32ffvn186lOf4qabbppXtBlnL3M/7H1p1wSv/uw05CvBF5Xl0BK9B0Rgos+br8r5xM0joJ4S8LK0Q2MaKwxSBScFiAc8n/zJBIcPA6vbye59SVCgRaQACn7rmpVpJs9wEoyd8HOpL4Qf+MAHePDBB7n88stP+YZQz/OqhcjMzAzT09MMBoNhpGA5Ut8Y1q1bx4oVKyiKotEbRJ1CmZiY4NChQ8NInXHy1H/TDRs20Gq1hu/DJnHOsW/fPnq93lEDr5eKufurI74jIyOMj48P/wanuiZVZWRkBOccf/RHf8TnP//5oz5omJfc2c+R4xv4mY0d3nSp51MPTcGqMQixykItAaowPsqnH53ix3uFq9ePQ6zsjGTp7i2NRKTqYjMhgDgODEpu+KeDbD2UQbdN6pBr8kQThulCl8GhPq+8NPDV164BCiIdG0d8DPXF7wc/+AFveMMbWLFiBe12e8EXxKe6eDrnCCGwZ88eiqJg8+bNXHXVVVx++eVcfPHFrF69+rj0wXIgz3PyPOfDH/4w3/nOd44a4toUk5OTvOUtb+Hmm2/mwIEDy1ZkninkeU6v1+PP//zP2b59O+Pj442+z4qioCxL3v3ud3P11Vdz+PDhJRcUdURoenqaJ598kkceeYQtW7awZcsWDh8+zKZNm2i326f0AakWTQDbtm3jgx/8IO94xzuGws04dwiUeOCevYEb/mkPZKur8EzJkdrn5mfncniWd1/X4i9euoqUCxOWsnevwVY1RaNHfOATD82wdX8bxgShQJuaFk0y/HQUoDlRPMQeRMdvP3ccKIjBpSCZcZT4qb/+zd/8DbOzs5x//vknNOrl2Fboumh97969lGXJK17xCn7u536Om266iQ0bNizuL9Igd955J1/72tdYs2ZNo+kaEWF2dpbrrruOl73sZY3t51zkYx/7GI888kjj+wkhUBQFL3vZy7j22msb399C6fV63HPPPdxxxx3ccccdHDhwgPXr15Nl2VFRpBNFRFi1ahUf//jHefOb38zIyIhFo84xnGagA164Ht66eSV/95MSVkWII3h6qAiqvkGDTE010COeTzwI731+j00jnTmze5eGRiSbiCCkrJ4yy0d/0geXkUVFK1+pRvarmlofXYG6iNCHaXjVZQWvvaQNZCBi42COob6I3nPPPdx1111s2LBhmMpa6EVx7gW5FlXbtm1j06ZNfPSjH+Vv//ZveeMb33hGiSiAwWCA937JImb9fn9J9nOuMBgMKIpiSTyP6vf/cps12e12uemmm/jgBz/I5z73OW655RYef/xxJicnT+q9PVcsrV69mvvvv59PfOITw23GuUMQCAjQ5r9em5N1CxiAEIiuAFFcY118R8jyNvunlI9vmWLpfc0bjH3VY18++2jku7szGOlVv15GU39URUBLVMagTLUAZJ7/eq0AgSJ4QhSrjKo4Nhr1mc98hgMHDjAyMjJ8zkKjMN77YU1Kv9/niSee4C1veQt33XUXt9xyy+Iv/izHbkiLz7kaKYkxDsXdlVdeyUc/+lH+9E//lImJCQ4cOECWZSf9txERsizjM5/5DICl9s4xREtiVFB4/gbPL2+O0M9wzKDaRWiBNlvKI7EFQaFd8tcPZswUBSJLew1t7F2fzsvARx9woA4RCD4Cg2Z2q0AmBBkgfci1AzM5r97Y5zWXrCGgiJQIGc7uUUPqN9vevXv5+te/zrp1646LLi2E+mcGgwE7d+7k937v9/jQhz5Et9s1UWAYp5Fa7My1Jnj729/Oxz72MZxzHDp06KSFVAiBdevW8aMf/Yi77757MZdtnAG46BBxFFICLd7zU6Nk7VlCMUarzIhlIOTNCil1gTLrQzvn0d0l/7x16SPCDX58EL61J/C5J6ah45AwiqNdbWtirh4QFU8bkQGDfBak4NeuagOeGEGiQ0/DHJ7lTH1h/drXvsb27dsZHR0FTvzTe92Bt337dn7t136N3/md3znq9etuIcMwlpZja6Dqf99yyy382Z/9GVNTU0xPT59UNMk5R7vdZjAY8K//+q+LtmbjzCC4NFsvTYUJvOCCUd56iYPZPppN4vA4zWk2tReQ2MVLDs7z/25Jg4yXMgC9eEJKlTJGogZS1En59MMlzILLHUoghkhjLuYAClEyfO5hquB/uSDj9VeMAYEcwXtP5r25HlTMjTh94xvfGFoShBCOes6xHOsLVT+2fft2fuZnfoY/+IM/OO653vtzNrViGKeTuf5Ocz3RAG699VZ+4zd+gyeffHL42Il84KlrwsbGxvj2t7/NzMzMcduNsxcn4J3Hia8a5YX/65pR8IGijOkJoeqsawoFQiRogNGMr+6KfHNnCUSIA0oNhIZ93RZPSIng1aExiaUdMwUff2wGRrtEDagL4JXm/qCCSATtMygECuVd1wiQJfNNlwSUsLRGXcuZWtgcOnSIH/zgB6xYsWIYWXq6C2B9wZ1rPDg9Pc369et53/veBxx9ATUBZRinj/nOv7lRqve85z3cdNNN7NmzZ3juL7T7rn7uyMgIjz76KPfee+8z7ts4e3BQ3VsFlVRUfuN5HX5+MzCTEaUkBVYaTO2JQ7Pa7ggoHB95+DDgwQkuCr5hK4RFe/VaIqkkD4d/fKTPrkMOWsc8oTE0CSYfYUa4YVObN12WN7nDs4atW7eybds2RkdHT+oTZG1z8OY3v5lrrrkGsAuoYSxn5pp2tlot3vWudw0/GJ1I9LiOcLVaLQ4ePDgcZmyce8gw8CS857ktkAwNoNkS3Au02ocAnYxPb1MeP9wHBJWy8aExiyakhFT0lbkMNPAPD5Ug+dI5nAKQZugRBvzac7s4aRGj+Zo8Ez/84Q8ZDAbkeb4gIVWnA2sDvqmpKc477zx+8Rd/ETgzRr8YxrnMsef5rbfeyg033MCePXuG2xZyDs9N7WdZxgMPPLD4izXOHKr3w8vP73LrJQKTJY3aVc63hDxy+FDOJx6aBRR12rg356K+vEQAz6d3TvOtvQ7pxsouXmis8stVr6sKBJiGay4UfvlKmDMLxngatmzZAhw9OPeZmDtr6dChQ7zqVa/iiiuuGG4z8WoYy5e5Aqiuifzpn/5pyrI8ocHDc68D7XabRx991D5EncMoUFbH/11XO2gpOijTlmriSYq6LGKARfWo11NVyB1//VhkKhZk2kIartVbxGJzcC4VeP3zAxFCiXoPDfqKODSpN6kqn5xCEG7fLLQkI0ap1Z3xNOzdu/eEjPnmXjzrqNRcN24bXGoYy5/6PK0HZL/kJS9hw4YNlGW54HN47jDkdrvN/v37mZycbHrpxjJGJALC6y/Neel5DgYOcQGRDFwy61zUu8OxgRrJoKs8tqvP17fVGiAsqnY7lkXt2kPabJmc5bOPC7TaND9PL8MVJT6WgINZ4cKVA27/qZXpGYHFVb5nIYPBgAMHDpDn+Ql9kqwvskVRsHLlSq677jrgiJ+UYRhnBvUHoyuvvJILL7yQ6enpBf/ssam9yclJ9u3b18g6jTMBxUWqTr0Ov/rsHAY9NLRwGvBhgJSSRFVTdUvqwAvELn/3aB9QRHKkwTqpxSs2r+6dd27rMTkd8S3BhSar9ZWogohP1go+eVe89Vmetd00BiZ6sczeM3D48GEOHTo0/FR6IiKong+3YcMG1q5dO3zMWp4N48yhPuc7nQ7nn38+RVGQZQura6mj0jFG8jyn3+9z8ODBJpdrLGMEiAKlKFDw5s1dLj8/wiASHEAE54mN3iIKXIgw0uKzO2Z5eGIWaLbXbfGKzUUo4oC/e1ignQODYTtkU7hMUZTo29Dv0R0R3vJTY0AfxSHOVNQz0ev1GAwGJzyLrBZMg8GANWvWsHLlyuHjkCJTJqgM48xi9erVzM7OLjg6fayX3GAwoNfrNblEY5kjTkAcAaXbUt75rJUwM5Mmj5CnEhyX0n/NLIAUlWoN6B3O+eRjRfVwc3rg5IXUHDuDovr65R2B7+/20PUIEVyb5oRUhLJAQiuFw6YDb7q8zTUrM0Bw6nBRETUx9XSEECjLEufcCUWT5nb2tNvto1yR5xoAGoZx5lCPdDrRD0FzjT6X29BmY2lxKmQIoule/NYrR1iz2sF0gXMtXOlBC5oTUjmCw0uArMM/PaxEChBIbRURjeEZXuTEOGkhpQIalRiVZBMR+dQjs9CPQB+NgpA8pZpBwEH0QFlC3uL/eLakx7WVUnqVMjaemZOdAD+f+DIRZRhnJidb4zjXxLP+UGUR6XOR6p4r4MSBei7qKr90RQtmI2hBcM0306uUKX3YLfnersCXnpgBki2PhoCyuCUop6AyIuoVISL02TE74I6dJXQE0RbR56gmQ6xGUJccTX0PZhwv3xR52XmdtM3u4UvCyXxyNQzDMM4NFAUct1/mcV0hlkBrAE3O39OIEFHtJCngHB/bWgAlOSXqclQUWUSPy5MUUqk2KaCkATuRf9ka2H+wg/MeAqhzKA1aDwgQMqTMwA942xXVcGI1uwPDMAzDON2k6GbkheePcOuFAr2Am81QHE2W/YQqG5WXQDbCl7blPDlVVlmquOhO5ycppISoaepz+kO1+Z9beyAF2nKQRSQWIB0a+2OJghZoIVy1Snjz5qo2ylJ5hmEYhrEsSKLJ8b9f5kGUIA6JJY2W/ZAjcYbCO8gL9h8a8PknSiDHaYni0Lh4WuGkI1I+RpQAAj/eH/jq3ghdSbVTAFGb7TfUyoxzILz5ihZjncwso04CsyswDMMwmiJ5YgfesLnFNRtzKBSRhoVUJT/Ug3iFluMz2wZQmXhnMcAiZsxOOiKFE7y0gIw7Huuh0x6yPI2EUVDnqWvkm0HQ4Oh0C35ucyutyTr0DMMwDGP5IAoqZFmbX7rMQW9A9C2ai7RU4+JcDjGiKtBq8dUnA/ftHwBtxLlF1XEn37VHanMMWvL3O2bTolWPLK6aAt0YIjDwvHFT5No1GahDNNBsGMwwDMMwjIWiosmlE8cvXSqsHC1h0KzHZAqsVLP9UMgcs1MZn94+CQiKLKqv1EkLKacRBP5t+xT37gG6Dpay0DsqhD63PasLeAIQXaqTMgzDMAxjOeAoxRGBy1Z3ufWSHHr9JbQmcsm3qpXz5ccDGno4WVxD0JP/TSSNEPjcjghTHbyvKuIbQoZfK4XZh59aF7n1ohYATnoIRWP7NwzDMAzjxBCFjBlUB4Dj7VdkkIdUrnR0CqshNCmdFty9u8Pd+/pAtqiFRycspIbeQQKzRY+vPBGhW/1BGqtREhwlTqt9SAGh4E2X5WRZTk8DcdBGo7PEnmEYhmEsE6IohIygKZ1386aca9cq9CNCQKLDIWkaSkMZJYkZ4kuYLfniYylzpiiL1aF2CrG1wFf2KD/erzAilOIarB1Tgvdkqoj0IY7Q7ii/9KwWUNDWAc47gre0nmEYhmEsFyJK6TNy8RBnaeUtfmFzBjOBKEJOiUdSLVUjJFtQFQfecccOKIhkUqKLJNxOQkjVyrHkc495CC2gxGnZrC1EdJQSEQWmS265IOOqVa1qc5rp54hWIWUYhmEYywSPIKJIhELSPfvnLx6hvVKhcASJydxbq7KdRUcQiamue8Rx756Mb+zqU+UWF4UTFlIigDimNecr23vQSqE5QWrDiEYQTVOlg7YhTPO/XRSAjF7MKRXERZzl9QzDmAfzSjOM04MAThWVSAipe++atS1evbGAmRIVn57osuayWhIRdUjmoOhz5+MF0Fq0wMuChFQkpRIVJVYthf/f9gGP7B9AS8C1iWSLtKT58URapUDMuXh1zusvGwGgq4qXQCQi0uwajHOPpb4Bx2gjjhYbVcU51/ixrIf9mmgzjLkIOI+6ko4oMaRaqDdf1oUQiLTJQzVurqnRvIC6FhoFMvjC4yW9EKnH3aXa75PXcQsUUkosk4hylADcuXUGNMdJjtJDKUGbamcU0JJ+5mG6x89e7FnXrQYUe4dzaR2GsdjUE+2l6XHl8+zXWDxCSD06TR5HO2aGMT+C4GiB9zifdMIrL+6wca3AQCkFfGjK7VwgglIgYQCdNj/eB998sgcIqiUaIUQ96Rl8C1I+XiP4qlhLhMlBwRf3DKCryQRT22SRRn2kSnHEWAJ9fv5i84sylobx8XHKsiTG2PhN2HvP+Pg40OwN/1wiz3NGRkaGgrhJsRNCoNvtMjKSouUmrAzjqVA2dnNuvQDo91AfiQ36SnkiTjPUdXF5CWXkS0/OHHmCpNKkk+37X9DKheQFqlGBjG/umuKR/R1wLuX9qmr45q79CtKCPly1wXHLxW1Y9PnNhnE855133jCa0SQhBDqdDhdeeGHj+zqXEBFWrVpFCKFxIVUUBStXrmTjxo2N7cMwzgbqbrlf2NwBF4nSrpwImjg/FXF1VsFBMYC8y7/tcBT0cJIRNdlgnqyEWZgEFIcTJXdp6N/XnsxhEHAugGvTilOUyqK1Es67UC2ghJ+/1JG5jBhBF3HooGHMx+WXX0632yWEcNRN+FRvyAYRsRoAACAASURBVHMjTiLC9PQ05513HhdffPHw9S2isTg8+9nPpt/vA81F+kSEmZkZNm/ezOrVqxvZh2GcLSgBcNxysefq9QLTgwaj8EKpQtSCtvaIfgVks3zngPD9XekZzvURHCcrpRYkpFQjGgMghBj42pMFtIXoM1TCsAC9ETSZZsUI5AP+1yu6gKs6AZrZpWHURd8veMELuOCCC+j1esNtdZpoMV6/ZnJykmuvvZYVK1YAnJa6rLOVF7/4xXQ6HYqiWDRxeux7wDlHCIEbbrgBsKYBw3g6nApRlZbz3HyRh0FYLG/MeVCoknalBvAOWqCz8OUdqS5LAqBl5Th14iwwKakESR7rPzgw4J4DfWi1oPRESkrXhaaiQ/Ug5GnHS9YJL13bAQYoAT0VP1HDeBrqm+SmTZt48YtfzP79+4edX977U6qZmlvALiLDtNPNN98M2E14sahF00te8hKe85znDI/hXE72GNZpwvpYTU9Ps2bNGm699dZTel3DODdwaOwDws9dmEELCM0OMlaU4FpQDkBbIMKXd/eAiGStSmo0KqSE2nT0rsemiTM55K7yjRJoytpdNRWBOQ9EXnGRS0uOkSgxDZQ2jAYQkeFN8u1vfzutVoterzcUPt77k45uzG2TFxH27NnDC1/4Ql73utcdtd04dWqRettttzE7Ozt8vBbFJytaayHlvcd7z65du/jZn/1ZLr/88uF2O46GMT9BwIsCyg3n5zxrfYQiNbM1F5qqDD+l+trN+NauwIMT0yTTTg/4k3rlhRWbi+Bd+qW/tMunwu8GO/SqvVZV7gIlMDrgDZd206aYkyl4S+0ZDVLfLK+//npuu+02du7ceVxE42SofY1EhH6/T7/f59d//dePKoa2m/CpIyLD4/WOd7yDF73oRTz55JPDNFx9DE6GuVHFAwcOcNFFF/Hud797uM1q3Azj6YiUeAg5Y67FGzflUCQ7gqVCvDA70+aundU19xSiYQv0kXIgGQ9PFPzHAWAkVqqxyV86vb6IQC/wkrWOF67LgEB0oOqhsdk8hsFREYs//MM/5DnPeQ47d+4cRqNONS0UQuCxxx7jV3/1V3n1q1+9mEs3OHL8akHz/ve/H+89ExMTQzF17PNhYSK2Pv79fp89e/bwW7/1W2zevNnEk2EsgJRb8kQpAeXmi3NoRegvXVmDKCDCF3cIUFKewrjgZxZSqlXwKfLNPTP0pjzea7MRKQFX/akVhdDj9ee38Hgqw/kFLd0wTgURwfsU6h0bG+Mv//IvGRkZYceOHce10j+dcedc0TXXZXvr1q28+tWv5o//+I+f8TWME2duRArgxhtv5E/+5E/YtWsXk5OTw+NwrICae7zmO24A3ntmZ2d55JFH+N3f/V3e/va3H7VfO46G8dSICqKCVufIKzZkPG9tDrFAJMOLw4mj0ZopDZAL398L+3oDspN2kVqgGnFJunHXzj7EQHQueUg1RQSnAacKA0G6nlds6pCElcM5QZyrhhwaRjPUYqm+eT7vec/j4x//OKtWreKxxx4jy7KjnhtjHBahz3cDrv/d7/d5+OGHecMb3sBHPvKR4fPsxrv41MeiPoZvetOb+PCHP8zhw4c5cODAccdwPoFcb6vrrbIs4+DBg+zevZv3vve9/P7v/z5A46athnG2oCLgBCcexeF9m1svECgLRCMSS1RLGjSnTINY2sKOQ7N8Z3fBqST3nlkNSZrcPFlEvrkngwy06a4irazaXYRCed7ajBvPz6gm5lTrwszNjcaZK4hUlRtuuIE777yTV77ylWzdupV9+/YNI1d19KMWVHNvwnUqafv27ezbt4/3vve9fOQjH2F8fNxuwEtEfUxuu+02PvnJT3LBBRfw8MMPMz09jXNuuL0WxfXxqwVwlmXMzMzw8MMP02q1+NCHPsT73//+4WvbMTSMhZHKn6Uq/0564mc3Z5B5YhQCDlVpMiCVypOcQOH4+p4U/fInucNnnPKbGueEH+0u2XrAQdvjohJFmxMyUo2jcSmtd/OF2XCDcGK1DIZxqhwbmbr00kv5+7//ez75yU/y13/919x///10Oh263S6dTgfv/TCCURQF/X6fyclJ2u02r3rVq/jN3/xNXvSiFwEcdbO293Nz1NGmuubt5S9/OXfeeSd/9Vd/xT/8wz/w8MMPMzIywsjICHme45wbit/BYMDs7CxTU1OsW7eOt73tbfz2b/82F110EWB2FYZxMtTXPFfFc65f3+ZZq2d58EBERzLSgLzmzi1RkKDEDP79yQAxgHPDpsETuR7PK6SOrhEACHx5d4RBAaMZRG202Nw5IHgiyTzr1k1tIKVH5MiiDGNJqc+J2v7grW99K2984xv5yle+wl133cVPfvIT9u/fz8zMDGVZ0m63Wbt2LRs3buTaa6/lda97Hddff/3wNeZ27xlLQ/23jjGycuVK3ve+9/HOd76TL3zhC9x999088sgjHDx4kMFgQFEUtFotNm7cyEUXXcSNN97Ia17zmqHFQS2umx49YxhnI8PrXnXqjLmMl230PLhngEiAIKiTxkp4Un2WwAh8eyLw/QPwgnWVfWediWBhKuc4IVUnzyQoKiAuvcw39vXBt2gVA4qsDTQ3fyyqkLtInC24YnWXGzfUab2F/2KGsZjMTfHVBeiqSqfT4bWvfS2vfe1r6fV6PPHEE8Mb8cjICBs3buSCCy44TizVaUATUUvLsUXkkOYp3n777dx+++0cOnSIHTt2cOjQoaHYuuCCC1i3bt28rze3mN2OpWGcBFL7bkdefX7ORx+IqAYy2pSNRaQEJOC8EAtHOev4z709XrBuBSpVMKkWGws4r4+PSGkawKIupm/w7Dis/GD3DHRWU7gBjRlw1ohAHECAV50XGPUjaBrNYxinlWNn5MGRCG632+VZz3rWCb+OsXxYtWoVq1atesrt83X0HftvwzBODKnGuLxyk+f8MeXJvkOkBJc3lN5TICPKALIOzPT5zycHvOuqFaR5LYoTVw2je2aOkybJp1wpRYc2Tf+5T9k7004OmA6kUVWTnEcLchDHqy9OruY4ayk2lh/HWhvUX82U8cxh7rE6tsh87nYwwWQYTbKhq7xqQwbTPmW+mrRZimlKinNA2/PNfRmzZQmkWE4QPaq/7ek4Xg0JIDFZD8SUwvjG3h7EDCGiGqHygGimpF5S0VfRZsNI5MXnp4nMYjckY5kyVyxZ4fGZx1zbg2MtEObWQRmG0QyKQCyAFv/lfFLSK6YtTe3RiSAuSw4B7YwHpwI/PNADHL7yzlyoO8DxQiomA06n9dYB3983C84hri5nr6JEjaT3JPlWzfZ5yXmeTV0FAmou5sYyY75o1NyoqUVQzxzmFv4fa4xqx9Awmid9BFX+y8aMzmiEQa/Bc0+qaJeHWKa995Xv7C3SZlU8Do16khEphAKX7A2csnUavndQIIeoCuREtEFho8SqEOzFGz0wSiw9pViBlLG8OFYw2c33zOWp6p1MDBvGEiAQJAP1PGdtm2evA8pWlQFrRmtEiUSVZLVEBDK+vqfK5TklRh06rz8Tx6sTB7mLBBxQcs+ekokpgawyx9LYvP1A4ZC24+aN1X4kkjXqzGUYhmEYxulAgEwDqhGH5zXnAaEeCdcQOmfUnQh44Z49MD0oksmUk2TDcFKpPcBHIau8G761I0DsgCxh7UcB16wquG59qtGKltYzDMMwjLMXgbLyHHjFJkB61RyXJaKV8dhExn17BkCOi4LqwsbGHLdKRQkIriqS+sbBAUhJmiRczdhb7ILauSsVgSLwkvMimUvupiIZ5h5lGIZhGGcnEU9WCafnrs/YsKKAPjR27xc5kl1TTcGi2T7fOpgeclqVGS2A4+WeSurYI7J1MvLIQSCvt2k9M+aUf4chIuAjLtZdgAE08LLzO0BOLFO4z4JShmEYhnF24lUoUQiBjZ0xrj+vC/0C8QXgcEpKtTWEiIJ3fG8PQAmuxJ+0kBo6eQoPHSw5MAXkTeYpSZ2C4lK+ciC0RjOuX5cDgShVnnQpU4uGYRiGYSwdkqbp1um9l67rgPdoTO6WbmiD1IAeEUkWDJnj3olAL1YBI1nY3uYx5IwEF4DId3dOQ8zANzeFWSK4kKNZwAswm/GcNXD1qgylJMMhokmpGoZhGIZx1hGIZAgqHujz8vMDtASKDkJBdALaoklvKdoZDxyMPLRvhiSPigX95DyVXI4MARzfOdwC56EMzXXqCeAEgqIudQq+Yn0JeCI5eMVV/xmGYRiGcfbhKtsjL8lm6bo1wuUrCggRqT2dnKM5IQVooF94fnAwBzxysqm9eol7Z0r+Y6IPeWjQxRxUFHUlneiJCvgBL9uYAw4XHIFk2Z5qqIzlgHnrGIZhGIuJRCEQK6nhGGt7rlvnoZhF8GQokarxrZEFCCIOYsG3DlQzhRfoX3nMszSpPjz3HRiw6xCQO8Q3lJeEagizp3QBSmV8pMV169tpk6viY+kfxjLh2LljJqoM4+yhdng3jCXFgZMcJ1X0iRYvXpdBdARR1AkSmy3xcT6Ca/PAnggMSD4GC1r6EZLhQTqBHphUKFJ7YNSMJvOSUZQYBArH81YLm8dbaVNVfGYsL+YOeZ07l6xmvscMw1j+1OeuzYw0lpy59/vqy4vWOhgRCI4QaHZUnEKIHjLYMhnZMZNGyJxUsXn6qcgPDglEwRNAmhVSOBDJoQg8d02vof0Yi8Xcwa4hBPI8n/c5hmGcWbRaLcqyxDlLARinn+eujWwcHaRpJ7rAFrpTQMgh67OrJzxwaOEfJrKjX6T+X8n9B1IrYEQRQmoNbAIViJHgByCRF67tAGIT188ARISRkRH27dvHXXfdRQiBwWAApPSARaUM48zAOcfo6Chbt25lxYoVp3s5xjlOfedf1W3xwvFZ/uVggXYcEn2jUSkhJCumKHx/r3DLBQsrazpKSFH9zM7pwJaDAfIMcQF0YXnCk8PhRInap9VxvGDt8dENY/myatUqduzYwVvf+lZUdfhJ1kSwYZw51NHl9evXs3HjRoqisA+zxmkmde+9eP0I/7J1qir8HiXVLjXxvpRUzC4CQfjR/gKI6ALSe0cJqVp7bTmg7BtEyD1OA6VmzRliCqhEmBIu2ZBz5VorYD4TqEVTndrbtGnTcFt97CwiZRhnFs45BoOBdeYap5fhe6/k6vMc+AwN5ZFxdY3hyOKAMmvz44k+qWpLq4EuT73fbL4Hv7u/hH4JuSfGNrgS1NNInZQKEpOr6AtXeUZdcjQHv/j7MhaNYwvK56upsAuxYZx52HlrLB+E568IjI20mSo8kpWoa6pmW3FEAm3wA7ZOBB49XHDZePsZ93fU3a8+fb436UEFHyNIQwJqzl6jS3u+fl0JOKxfxDAMwzDOXZIOcFy2WnnWygjBoY32QNRjYTIkUyZmMu47XFn9PMNPHr0sEaDPlgMBsjYOh5JcxpsTUwFiAaXjeatagEOa/WsZhmEYhrGMSR7mAozygpURyn7De0yZMacDnMuBnC37kpfUM012cUpENVbyT9neU3ZO9JIVu8sQKVNnXVNohLLFmpWeK1fHtGgrrTEMwzCMc5qoERBesC6CyxrPkCkxDTCWDKKy5VAlpKo6KdUI89T+OjSiEkAUiGybduyajpBBSahEVHMjYnDAwHPBysDF4w4Q1HL0hmEYhnEOoyABgKvOa4P30KSzuUAqLRKipO69ByfrDTrUSPMKKVGP4pISA7YeLCGkYcESBxDdgufNnNziPTDL9SsEoQUxIk26lxqGYRiGseyRqunsOSM553cHUDY4rk4BMoglEiPkwpZJx+7ZkpSyU1T8vGk+pwiqrtoWuXe/gstBAyoZ6gQ0NLh4B1Jy3do0oKYQhqLOMAzDMIxzD0VJ8ajIxjG4cnWA0GzjG6RsHNFBVrK7n/HQwQAoUZ86IOZwKfeXtIvnwYnk1SAIqhlIQGhQSIUAWc7VG0aAMi0qWmrPMAzDMM5VBPBRiKQ6qWetHYMCmqyRchTJOV274EuYmWXb4QhkSUgBzBPocVEVpwJOmRkE7p/SVGiODHOGutg1UiLp5aJCEFZ1PFetSGItqlpEyjAMwzDOaQRRTYbgKM8eC1XQSKBy3V9czzNFcRA9uAKkBep44HBK7eVS4jSierzHZcrp+fQij0/NsnN6AFmWolQS0WGx+WKud44oK5VLVwjruzngaOGI88xSNgzDMAzj3CAiBKd4IuB59riHNhCVpsqoU9BIKtun5Kj+0EQJlCAOcX5eEwPnVPAK4Hl8Wpnuxcpdqi7qajgnWRZcsaIg93kajaxqxeaGYRiGcQ6TTAdKvEbA8ZyVGSvyykmgmqzR3BiyKiPnhG1TkUFMesgr8+oTp6oQA+DYPpVBmYFbKiGTpN0145XE09Ri6Mz+wDAMwzDOWRzgORIBunBMuHRUoYxLM8ZIFbywrQcTs1VmTsOwBP6otZZzUnsPHk5FXc/k4rkYiJDMODPHFWuqWTbRM3CVKaexrKmHFgPEGG1AsWGcZdjMPeN0IijgKTVAKMgz4cqVWdW5p8NnNYp37Jr1PD6ZomJBhTjP5BWXiVb2BoFHewXDkJbIvMZTp05luglApN2KXDKeJjp7DTj8vMVcxvJBRHDOEWNqCvDeDy+6JqgM48xl7vlr57JxepHKadyRPAmEy8cVVIgEBBlmsRrDKZTKI9MBKBCJ+HlquDMHIBmDENh+uA++09yioPrlQwrXRWX1mHDZeBdQ1FcyK6aQmrE8qS+wMcZhVKoWVs45pMpfG4ZxZlBHmEMIw+8tImWcVhScukoUpOjUlas7wAzQSmbjaFUg3hAOKANbD/eBsWQNNc/usqCKF8eBomTrlELW8CwbjWSaOhhjoVzWCWxqOSASxSWhZSfwGUEdiZqdnWXv3r3EGIctqXYhNowzi7IsWb9+PePj4xRFcbqXYxjDe0ioIkHPHiX5O8UWIskyadHtmY4lOh6aTv9U8ZV0O/relokqCDw+WbCr7DSY0oOUNow40RSRKuGyFa1KOEmqcdfK7LyhFRiLR4yRwWDA6tWrufXWWxERQggmpAzjDENEyPOc73//+2zdupWxsTHA0nvGaUQgquJiFZUCLhh1rBzJmCgV5yodoQ0Kqajgcx6ejkDA41MplBxdfpSl/GNk52QJhQffoIs5mmrKnQNKiJ6LxmufKkEUVHRexWcsH2qh5L1nYmKC5z//+XzgAx843csyDOMU+e///b9zzz33DIWUYZwuhuXktYG3wHljjrUjjokDAh1B8alprTG5oOBg9yT0ilm6+Sjz7cylsFjJ9lkPswKuSVdxRTQZbla2DFyxovpHGrWXCplNRC1r6k+pddSpLMvTvCLDMBaDOqVndY7G6SbZONXNb+mxMS9sHlUoy1QehDQ7ws4lTbRvOuNAmWbpRZmnaw8C0GL3dAQtGq5PEvAp4qRBII9cMtoFkjm7cWZiF1zDODuY+yHJMJYVqkDOlWOt1LCmdddewzVSznFwdpb9vQxwQ8+Bo57iqwe3zmjVZtgsiqJRIMBYu+DiUYs+nekcWwtlF2HDOHOx2kZjOXP5WAAUjT5VCwk0FpFSBe+IJTw6m7J1Ms/9Lc3aI/D4VDFH2TV4I9SIVwfBsWqF57wx1+z+jMY5VjjZhdgwzlzsg5CxHKnflZtW59Cq6qpFU41UIySrJpyAep443AfivHLFgWe6VHbNOnABp54me+ZEHNFHUOHCtmNVnoSU3XzPLObOObKIlGEYhtEs6T5z6VheFVCl2I+Q0UwwRsFlOE3TVrYfTp168xibp6bCw73Iwb5CLsOBgE0h6tJkZVUu7mZHFmwYhmEYhvGUKBe0hBW5h1iiGitl05xlk1QRr11T6fv5cKDs6QcmZgO4VqrnajCioBpTV14suXC06tiLFo0yDMMwDGN+6vjO6o5jQ0dhEFNZt8ZGgz9RUuhrz2w/rWM++wOA7YWnLB2Iou74ycaLSSqyT3nNS8aWbkiyYRiGYRhnKinwsqIFG7sKQRFX2SM0FvupRtAIPDFwzD6F+aeDyO7pAqJLHlKN+kiRAlAxQpaxabwNRNSElGEYhmEYT0elYTaOtyECMTRbX60xRX8yz57ZkkO9PswztNiB41CvhKjJHyE2aYEgiAoa08IuHc2xYTCGYRiGYTw9Mvx6aScDVUJMppyNhaTqmnEp6fXbHB4kU85jcQC7JgtQRcTVpgwNocPFdVvKqrxqYWxwj4ZhGIZhnD2s6wA5JIuCqta6ESpb9cwxMwjsnS7n3ZcDYXsvGw4rFtesrFEHBFiblaxqNborwzAMwzDOGtIsufO6ShrOS7NJLSEJNXWEENk9Wz94NA4iu8o2OEmF4A2uaUgU1rSU1Z3a/NPsDwzDMAzDeGrqhNnGDklINVxfLVJrEwcR9gQ/7/McWrK3F0A8Qmw4TEZ6/Sis6XpS8Kvh4nbDMAzjhDFjXWP5kWqU1nYVyVwlH5rTEPUoP8kEgrB3esC8XXuH+yUTRR8kA0Jq9WsKEZwqRGXdaNpf4/s0DMMwFoRzbiignGt+9qphLBjVNKiYkvVdWNHxyYOysaiUAhlIBB0AbQ4MAvMKqcnS0RtEIKDDEcZNVcBX3psS2dARIAd1JqMMwzCWASEEsiw7agSUYSwLhs15GStbOWszB7HJ96gAMZVI4YCSyUH9+NG4Q6VnOkjlce5xjdYrKcmKNHJBXgL1XD87YQ3DME43qkpRFHjvh/48taiyeajG6eRI0ZFjRe5Y70PjpUhSSSgkAw8Hi/lnEWeHC+gVdW2UT3NlGj1fPHhhTV6dpNVizU/KMAzj9DI5Ocm+fftot9uMjo4yOjpqESpjeaCCSArA5Cir8xQxanKknajiBNRlqM5yeDD/87KpQqEAWtViGtczARBWddzwu8xElGEYxmnnV37lV9i0aRMPPfQQjz76KNu3b2dqagrvPe12mxUrVtBqtSiKAhE5KlIlIsPHDKMJtJoIgxNWtB2U9cDiZjSECkQ0DUd2cLgvBI14Obp+MJsoyrSYLqCRZiftAQRwGePd1EYYLVxsGIZx2lFVrr/+eq6//noADh8+zH333cd3v/td7rvvPu699162bdtGCIFut8vY2BitVjIDFBFijJYCNBpDJNUqJdnkGWtXXXtSVgaViy/gkzlTTAXn3jExq0yHkvHsaBPM7ECvah3UyLBmqbEi+GSmJRmMt+psJ1hazzAM4/RTR5NEhPHxcV760pfy0pe+FICJiQl++MMf8vWvf5177rmHBx54gJ07d9LpdFi7di3OOev0MxpFtHIyd47xTmRYdx2bNMGsBZswXQamisB4dvQzsoOlG1ofJPMpQZsq/hagUEbzyNpuvUQLAxuGYZxO5qbj5kaVYozDlN3KlSt5+ctfzstf/nLKsmTLli38x3/8B3fffTc//OEP2blzJ/1+nxCaz2sY5ygiEAPg2NBRiLHK93maaloTHMSAemEKz1R5/HOyyX5aFE6TT0PjYVlPxwsrcqjNtRRvMSnDMIzThaTuaUHmpOb0qM69+qtzjizLuPrqq7n66qt55zvfyRNPPMFXvvIVPv/5z5+e9RvnBBFwlbn4qrquu8lolFI5ckbwntkYmCmPNwDNDhdVC6FkOC0J9ZC+Bqcpr8xgBRlpbrOFgg3DOHcIEZzTqluZYQt3qhcVXIRIQJ3i1KEiKAGHr2ZkpMqNKglHLYHqm4mkPMRwTNhcMSSSMg4aI04UFUdUAQUngmpEnBKrmWZO3JGfe5r6p4suuojbb7+dt73tbcSYbjRWK2UsOgolkUyUVVkObkAqSWoqi+YQDYhAEKFflEwO8uOelk0OKrsD8SjlEU/0plCl4yMtly4aUoeU7ZwzDOMsR4HSRTJVfDXctKyFjFOIJeoEkap+VKSSRNUkCBHSFjnqkjkUZcOvlbySFPUfPqYxFW/EJMQ0CwQRJKYBsCJJrNX7Tl+O7OnpxJGq4r3H+/nnkRnGqSKSRuyB0s2SlVJK7TUlpNK5GUm1WRoC08XxT8umCiEZJUQUh0hjFVLUJ3Inh9ynTzxKbHruoGEYxrJAgHaEQiGIpyVCNhQ7Hryr/p2uwgMNHJwNTA1KJoo2vTIyGMwy0JISIZADipdIJoJKJM9gVZ6z0gmjubA6L+i0PCLt6rUdLpPhelpEVCJBU2TLqYCUlafgEVH0TBEmi0AZS4ETDzg6mYCvaqQazO2pq3rxYgA80/OUAGbTpQev1ScVIc2+a/AThSqdDHKXLhR1r6BhGMY5gRPyYUlDSS/0eHTWsW0i8PBh2HZowPbpjN1Fxr7pAXtnhdngmS0n6cdQXdW1MrkpqixCVSeiDsjwrR5jvqSTKatajg0jno2daS7pBs4fz7l8HC4ba3PJWM7KFohzZEQgpUq0ShBa4YWxnBCUAiEHRjIdapcUsW0gBKSKVFNfkuGmZ3owj7P51GwJuCqEJWkoYFNhMoAInQw7Qw3DOKPQqhh77iNHkmo6rElSFUTqtFp9oUviZxDg3onAj/dOc+/ByI8Oex46FNg+lVGEQXpaaKWXdkW6LntXlV8IuIz0TXXNpmohOlI6BQSCOibKnIkB7J6BLQcihDS9AongFJf3uKAzyWWrHFeuavG8ccc1azOuWzNgVTuvblf12mX4u1bN3cTa1Uer9Q1dCB1Wq2E0gVKXFCrdKoAbQpPvNUVjiramecmRqcHxIansUCjBVSeMi6g2GB8SIHpWSlF/k7KK2GlnGMbyRavi7qj17C1QDTj1BAqcy1B1CGXlpZQEVC+U3L+/4Ju7B3xzn+O+A5Ethx3FbBVZ8hlIO3VN56NVeD6C1gKpEmJxTpqtikAl7TSPaBE96sN52upRsmHNBzhiiGyf8mw/rPz7YwG0D6M5549GXjTe44bzuty43nPDOmG8DWkGhSMJNUA9SIlWRolOIRBBxPqwjYYQckmx0q4r6RKZokWldhrZH1HBh3T+6YDJ8vhAU1aoVAWNOjTMbHaIWhzO+QAAIABJREFUsJL7aoHM/WoYhrE8SR/2BCFWkSbQ6IgIWV1cLQCeiX6fr+wIfHln4Ou7+jw4IZQzWRJLrQCZQjsD5xCfOuUS5ZxLrzuyYxjaExzZz5G+veOu10/5bX2NB4hJtPmqvkQUooPgePJwzmf39vnsQ4eh02bdWItXrO/zmgtzXrGpxWVjnvoSrppTxIKMgkhOJMcT7LJuNEYdeGl5h3f+SC9FE9SRYI0p8qpKEeexPygjlTNomoF31AnbyMICnWFXx7GhcsMwjOWH1B1vokQFh8M5qjxXYP9syRd3KHdu6/OlHcr+wzlIAVmE3MPqSsRonlJrUOkabb5T+hnRFF1Sj/g+4gZI1kIlJxLYN9HjH/eX/OMDSqcbeOnGAT9/WYvXXdzlkjFPS6pol5ZkGgjqEWxUjLH4DK0+ULre41wErbRLE+iRveIEnE9dtseQBa0s1jUVUjV7QgtoIJd8uDhL6xmGsdxRrWJEWncNKf044Gu7I59+cJYvPl6yfSpLJUvdHFnh8RKIMkpUQEskQoZSzjErAE6ziIKhDY0I6nJUI3mV/kPBtyGsaBOjMFtEvvpEh69uc/w/3QledaHjFza3ef1FGStbbRBHpiHd7E67QDTORirjDlqS4dFKSB3v7bRoSD2WJoI4yjhPam8QfbI+cHWuvcFolALiaPu6eNEwDOM0UhdouzSwPQWZIkhWlYcr/ihfJWXXTMEnHurzd1sLvre7hEEbRjIYCxBT57PTgIYMdUeML3EQqhTBkY+RLAuxoS4NZpXgceSUPla+go6oOQTwsQCnhC4gylQ5yuceLPjcgwM2rh7wS5fO8M5nt7h6TQepTRJViQKiciTZUUfkrOPIOGG0anZw5L6knbmqdmkJRLsCMdLXeQw5ezEVDOJaVYFjkwlHAE8nqzoFIalJsS4PwzCWnkAqkM5jxIlPndTiUgF1LHHEqlMO7tvf4y8eGvDJhwoOHxLIW9BqQbdSY0GGF/MgpNZsqlREbWKOm3OpW0bXPBVQjwoEwtEpDQnVr3eM8MlKGM8h5Oya7POh77X48/tLXnnhJL95VZvXXNLCSYZDUJmhrx6hTSsESudSpuQ0/KrGmYziIuCFLIu0vaR0uZtnAN6iULn9i0vpbwb0pXvcs7K0+9oErja2atL+IOJ9fQGxPLphGKcPIaRxLSGDCKUHjZFcS5xLjuJf3dnnQz+e4QuPQhh0YSTDrSpQlSavlGcAVRGuBFrtQBgRQpHz5a19vvxowQs3zvKeq9v84uYOrWyEnJLALKVkSAiIlyNdiYaxUNwRx31xtY9Uc4acR0KpyeojhPlSewHSPJmjRws0h9LyWYOvbxiGsTAcgkZh1kGLAXnt20TGf+4I/Lf7D/Gvj5bQc7CyhXQKJCpKTpMzIM4c0my+ghFUPZLPIr5PdF3u2dPmrdv7/I9NPf7v543yy5dmtH0GkhEojq0UM4yFUWmmzDnyaipLc0Kqft1qPJM65plZjCsj4ORI90jj4WYl87XFgp1IhmGcRiQ5eGeiOHGA59v7+7zmi/u58bNT/OuDDvE52SqfbAt8xMkAaXQsxZlDsoTIgZJcJ8hjRNwahBbSHcBKzwO7ct7xxWmuuaPHpx7uAwXe5UdqW+w2YCyQuVYe3jm8kzmWHg0glT3UsAZLCPMUm7tQ+0aJoJJMMhvlKMFmPXuGYSwdgYhqQSCgqimN55QMYdt0n1/59/3c9D/7fOEhgdESGXdo5qrBvh4tOpQylgqxG68nPUOIJapQuA4DzQixQOKgurznMOah63n4yZLb7upx0x0H+MaTk+lna3d2VUJt6KklpaZ5hEc8tgyjchtRoBraItBskbkOW06qgnaI86SjsyOWCPU/mu6okzkTaExIGYaxdGisRpuEAnVtnHPMDCJ/du9B/vj+yNRBgRXAaAYBNNYF41UdqQvV91VX2jmOQupIrL9xgASiesBXDUwCeRefTePIufuJEW7aPeC2zQf54xfmXDqeinc1Ki5G1EVEZxFaqDi7QxhzOFKv5IYWGw3vUmP1Hq+uBfOc9vNU+jW8qtopdIhdjAzDWBocEZUMyTo4p/zbkwNe8M/7+f1vRKamRmB1DpmbIwrkmOvVEjTknOno3MF/6W/ntEd0I5SxRTY6g/qSTz6gPPdTU/zFvT0iSuYGRCcUoYWPOeoCjY5RM85olu4MfObz/fS3TOjwf4ZhGI1Qp/EcSiZwsD/D//n1KV756Rke3NNCVrXwnQFZKdZJvOgIzpVAPwWpgkOkhYy3mXKj/Ma/9XjJP+7l+/sdmQRaWZ/SKRLzyhjUMJY3p19IGYZhNI6kTnuXc8djk1z7D5P8zY8yGHfIKkWioLkkA00LgywykRDHcTEHnSHkLXCOLBT4LCIrW3x7t+P6T0/wh98rmImRrGpxr2uknmKqoGEsC1xy8XWIKE6TT0Kz1EXtAI45BVOGYRgnhaLEGCGmYe1RFQ2BoKBaIhKYCpHf/OaTvP6zk2zvrcOtLBEKVHOigxgjIc3tNRYVAR2gWqDq07cESpcMEFQzWDWKZo7/9u8z3PS5WR44OIt3geAcpRZoGBCAqAUmp85ddGg6IgRIafd5uugWj5TKl1gOI9Xz2Xa4TOa2ny7BG1TSRe7IIg3DME4NCeBUCA5KiUSJlDhES0QG/GB/nxs/1ePPv92B8fNwnYO0mEGkW3XmBFLeyVffG4uJCsT/n713jZLsqu48f3ufcyMin/XQowq9xRsBwhhsjI0buzGYxp7GbmO7ZzA93bg9a7zGq9fY02vGvbqnv/R0L9OzxsueWWN7DN02THvGxmMwmLaMDRgBEi8JS2AhHhIqSaVHlapUj3xFxL1n7/lwbmRVUQlkleJmZWad31qlSmVE5Y2MuPfcffb+7/+WmC0PLDc0OYIhebJGarJT/L4+X3g88NI/WuXdX32ayJAoVf5cGmsd2Mvnc7lyRrIomHu3MdQ5B87yAHCibhBIVUHADEeyRlC6PkmFcZM6PkahULisUMHEabyhMic2UAVBVfi9ryVe/v+Nue/pGrlK6ckYNDLUWXw9/XS+QLowbb6Vd2Ar4LeGCkcXjBRm+Md/Ffint49Yq8doNERSnv0nYYtfd2Fb0Y4vSubU7dw93Dryk2rP2XXLAydsoKHUnkAeWS5n/ekSpUmTYE069dIqFAqXCZJLchFBGoEYSCT+uzvWePuHE0SQvUpITiMN7hXRnehLl/qVFwAwkApxRQ2kZ7DY4z/co7zyA2t8eWmIhoSII1uWhihsS9qgoTEjJet4WPFZMiTPPptnRtydQavgYDmi83beebc4dYLibF4oFC4GxzGaPPqK7HznDiFBcIGecni0xve+/xi/dfcK7InIQNBGaZqIaSJIjaVIXc1d6l+nAOQbVqIWJwEiATVHr6r58hPG9/7BmA8+JKgGRK1t9vZsrFruJZcRZxRKZtAkztVZTz0z420o5evWTb2NNFJ9NfA+WXTu3QZ3OHjNWqry16SJNWmXBy0UCrsIcW+NNQEzxBM0jomAGnc/PebV7z3JFx5X2DsHGJ40exJVBh5pXDC1Vq9T2C5MDD5NDFOHsaD7YEVm+anbjvG/3fck7YRExjbKuinr2kS6sH0QTAGMOgVG5q1JbtjA821KR3QBS+SsaWCG+rznaGQyPTmnrjovtYnS2JkdRDn9C4XCBeGKeyDJKuKJoQS8SkQ1PnB4xOvev8ThlQXYOwM+0WP6OX+dq4kqbDvaG5GFCjEnzK3SzC7yzz8S+cXPLuPU9EIfsYiV8ceXFdJKkBqzdoCwdNr97+0IvUlpTzfo6tW+eCswF3RLzDEjw9RGd9k6uOPjFQqFXYWCBiNapKaiIqEov//1FX7iT9c4NRL6cw2YlOVlp+MOKeBWIVWEuQG/85lV/uHHVsAd7ZHnHroVve1lQ24IWU2JlKBzO0yZiM3z5qvSjcTmJBDLNWnXLVh4lMYSk93gGV+IQqFQ2AyONkJNjyqMiQjvuG+Vf/Lnp6Ev6N4IboiN2FWew+tlC+H83+ubR9ecvaru3BVW3SHErFSxFZgdwdwC7/1S4I1/fpRkI6L2KBHz5cHZRdyx1dk7rstrvLU98PVpyUbcqGtvVkM7lM+yUWaXYX1rr7CWJtGdbsnMwUKhsFNxoM4rqBmOk6gxTfTa9fPf3HuSX/3UEObmYaaHjSvG3noW7dQgwielBM+FKwdJiSCKUBNZI5c0AI0EaVAbA/1WKhJQbzvcZKJJ3XlYABNDSKhFZDwHMzWyr8eHvz7gh247xek0zpUXq2lo8AZSSU/tSqRtiQMYWmREBDrUObq3W5T2OC4MNnDf0IV+DxptpygL2uUF51kMujJps0GyoVY56QuFwrcgmbAshjFCGiBVqEQA/vVdy/zrTwwh9KCnkBx0DEHaie07lMmu19vsvQjEXK30UaRZ6sFyA0tDWGpIpxVrBJWGvq8iTYOHPhJqxCb2NjsQyxkBI5Ak4DpEU4OwQrwy8qlDFW/6z0c5VtdoiLmTz1qD1XJf2X2Yk9oNxmoTGJnma6TDLjlRR1pnAzSwp3f+uhLn+tLWl9tYT6XDzYuDBtaahJmgAULbUlgoFArn4YJYpB/GaBMYBaEfcpfOv7v7JP/mToW5PUjPsvNw2wXsO95rqGkz+CGXtUTz73TyJFfuX+Bnbwm8+mqY6c1xanXEXx6JfOAbwtrpmuHCDH01GkukniLjBti5WanMmWkYajM0QQnj04TFijseXuDHP3SE2//+VfTDAKtqFMeJOzV8LHwLRJQoOQkzmnRsBu3w1M6dgFmHpxCMud75Kak4HxtI0rqDNrh/c619+q9raQxjg0Ho2m6hUCjsaAQ0NODCMFb0NGdX/o97T/IvPw0sVgQf4yJ5jtuODhYmtJtZkVyeTDU0NawK//jWBf7XVwlXzvQ4ExzN8k9etMaXXjbDr9yxykcOG/VspPIh1gxYt5rZFWGFkOIQvE8T9oIuEeb7fPbhPbzpgyf58JuvJKoyMqG/G37dwvlYzgytNuQUbU/p7rqXtnI4EZzXzMfzJ7PoXK8921S2oIk0v5jhxEgL27pZOYVCYUfi4iQJaNud93tfW+WffWoF5pSIQfBdFETB+qItAcwRdxga/+MrEr/3Q3NcOTMgeaRJiWSOmYP3eek+5bY39fixa0fYsjIOSrA6//tdEUQBCJ4iIssghqZI6o2Q/cLHHprjH3z0GMmMvm5F41Rhy3Ewz8bho8ah6dyvKTfttdlhFOaq80t7uqdqO0C8wSzg3mV0B7ix1gRWSPm4pWuvUCh8GzyBuNFT5wOHV3n7X63BYBFi9jh3rdpM+m7BERS1MUrE68irrlfe8f1XABHoISiEiGhAdeK/rESd4fdev5fr9g7xYUVSsF21wjoQwWfAR9nTOVkefHxV4s/ui/zXf30KWCUbsTojEo01uyfOvmxxTBxt7QeWUgKLrQ9mV9e/YYR87qgTQ2A+nC9u14VeYDIwEhVkI7epaRJgpUks1TnVLOJl41AoFL4lTiSqce/Tibd+dAl6rbDchaSCpUnparcguBseelhTgy3zK7dW5C7nHA2oQHRvG7+VSQc05lw1GPCPXgisDfHkiHQo1bgUaI07uAgpCvgAfIZITdgzwx/cb/yLz60AjqhTJQdP2dm+sGNp++HahjjhRJ1aAXjHBxbJ6Z4mMYiRmY0yUosR8GbicUWnrYQACisNnBrnbFTaRdd3oVCYNk4IDU+sKv/lh4esrFXEqo+cPdplF46ZEkk569Qkblic4fXP6k0eOftJ53052Zb+vWsizFfQgHfc1bTlnJ19dIAGYUzSOVTGsGeBX/tcj9+7/3TuRNecxdDSxbfzccfac/ypUetovoFB5lQPSWsNlYxZSczHDXykrhi0uxXJcZ53fbKJUSfl6RFkV4iOS4mFQmFH4uvanoafvW2J+48o7KlwGeGym2fkZT8/SWMQ4eBsn7neID/ybe4ZIpL1sDg3DgKLM5JtISbi9V1Jq+yVUZvFm6HvpyHC2/9auePocvbRMkF2VdbycqT1VWutT54eTmbrdXlye06FadZgLgRnYaOM1L5+D9TXo3ztNCPVRpDunFpr2u/s2iu8UChcINluz7PIut15/vd3Dvnk48vIPiWMQ3YZ3k0ZlvNw0F7bSW3M2SrRhmyufJnLnFXsMc8qNE1b2tutGGgF3qdX51LmSCI6D0jkbX855qGVZTRkOwRvJ2qUJqcdiNAaZGaH8ZWRr3+vy0NKa7dAMhb6gfkqnvc8XYjkiegpd4lo5417CpY4uZYPFCYLZ6FQuOwxHK9XySpi+I9fOclv/k0NC3twTSQM87jrlwx3W5c9NOsdaJsIiFyAbNBnXoHv9mYeAU+YC03skWQM3ssC+3nnoRMVv/jXq/mZYlgSGku4lWBqxzGxBGn/Z3mUTWrpsGNXHAKCEKCBhZ7R32jW3nxP6U1SVW7r9cfOEIVkLDfSvtAd7D5cKBSmSvBAHQQUvnB0hX92xyr0Bm3WnHaLeDncAc8YUOYN94Wtyznv0pY+dnNCCsjSlDYwam+0Yk5INewXPvw14199egQYLgk8gtQIzSV91YULZz2MMuPUuMnrQocZ15z7msifAgu9yXi7c9G9lTEbvfVrS1uzezHhSN26g8pGAzgLhcLliJvR0xnc4ec/scTKcBGq3eQRtZVcru+Z4d4Ht1wG2j/Hv/3ckD9/dERUI5AIOLV7CaV2EHkUcA5iVg2eqs9kp7rCRXOW3PK8z/29jaVPuhgbZirAFVnv7uhwbk07r+axcQLGeVhyZ0crFAo7iUmr/r/49Br3PFUhCzV5btquT6sUpoiIk0IkjGpiCDBQfvETKxxeGSFB8zTkXa0d241425XacLJuOJYmHphdHlPapG4CDyz2jI2cDXSxUuarCsTaF9WxCt4BFY6s1OSkmez+zHOhUDiPbHtkmDuW6vxNhdsOr/GOe1agVxGoYINp64XCt0aBBlUQiVgjMB945Fjgf/jscn5KFCrL8vPCDuGsKt7xtcSpkbfFrK679lrdIcbeie/mN6G92GN/rwc+3vAJU39Zmjv3Tq62gRslbV8oXJ44aRJItfOsnqpX+Oe3L4EuoH2hITentH39hcImyJkLM6GOioUxpAB7+rz3K8I7v3IacBK2yxzxdzdnrLsjx1ed0djzuMkzJphTJ1tmeJ74ImOumulteCwF5epevZ46966FnC6gzskaVuszL7dQKFxeiDeIOipKbCcq/NtPj/nysRmYa7AEFTXqqSwRhYtj3YvMIThUgV/9PBxeNWIQpLTu7SDWu004PgJski3q0ItSWnF5ShCUK6qNFyIFuK5X5ynKonmwVZe4Q4BjdeT4sKyOhcJli1S4RTzlm9zHn1zmf/9ygL2RwBARIaG4hpK0LjxzTJCB8PQx41c/vwpoDq4KO4jcR/fYmmYrpY7jFbfWPqTtJD7Y2/h4CsY1izG/KHwLdn4CYpwcwnINZYUsFC5PskUihOg4gV/+1FoenaU1yWcQM3z9WWWdKDwzhIRqHxYr/uC+xIceaoOpwo7gjHrbOT4kZ6SUbpsGJsuONczEiqtmqw2fpiDsHwQQa31Huh29IK0rsdXCY6NEWSALhcsT98nYDuU37jnNPY8D81nbgsTWL6qsD4XpoAJWOwwCkPhXX2io3YAas6YdSVTGyGxnJmHv4RHZs1e7HH+UZUjg0AQG/Yb9A2HDrj2Aq+cqCJbLex0bZLo4MQZIiYdPjyk7gkLh8sQBNPLw6SHv+OIYBjOtgaSC15iUWZyF6eHSjihLCRZ63PvYmN+49zQQMQKY05ShZduXPK8FcB5dGq3HOZ3781oCC+zpO4uDb9G1B3DdnIBaDsa9215jcckntDmHl3bz4NFCofDtCALQ8I4vDTlyuo/2U5sQP7sLp9zWCtPBSKgqITniEWYX+Hf31Dy6tkxUyfdLSl/D9iV/Mk2CI8sJYh7u3d0H5iCKaARruG4Ae6uN4yMFOBiFhZ5kJ9iO20EFISWHoDy80qbJ3Nq0aqFQ2PW4r1/vn35qif/rK8BMjWii3MYKneCARtwtJzzdkBnh5FLkN+5aBRytnOhFbrJdmXwqx4bCkXEFlbRGF12tGQ4EVASs5rqBnvX9c1GAPf3AnpkKUt0mNjtczCQPR0aEx1fa+L+snYXCZYJj+Lo+9De+GLC1BnoR9wHI1vjZFS4zBEiOmZPEcgVmPITZyP/59cgXn1rLVWXbeJZaYRvQxi9Pj4zjaykP5hbBzLr9yPIQR66YjXyrnKWCs6/vHOw34AFTo8uI3DCC5a8OjZWRl/JeobD78TwU3RoSDZD4zFNj3vu1McwDVHhKOY1eMgKFLnBANZ9dlr+WnjBaDfzWl4eAIFps9LcvWfh9aM1JKWsn1dumlE6WjJyJSqLggWsXJtnKDTNSBhq5ei5ksXnneNa8B+H4csOx1YayAygUdj9JDJOKigAov373KagTWs0glpAIVkr8ha4QWNffieJaIQ0wSLzzAeXuY6vQZRNY4RkxKeEdPj3KWSJRzLuuaDmtbznXLsb89QZrlE7OmmfPau5m6DqmkVYcFuD4mnF4udshyYVCYTsgKEJqM+OfODrkjx8WWJjD6oQa6x05ZT0obAnuCEN0ALamvOu+BKTsV1QC+m1IXhsOnQY8ZSulriux2o6oColnz0ZAzhpVc9bTvB3Gd8Nc6xTacS+huCEEUMEbeHilyd/v9KiFQuFS4+70QwMo7/pyDXXIAvMApo4ly/rJkhMobAk1FiMiFcyM+L+/7jy8UqQm252vL7cxgyvigniHTSqt0Hy+H7lmprUD3WDup7YqPA7M5DlEbMUQR4EQFGr4xtL4zDfb9bMso4XC7iO1HnVffnqNP/qGw2zMSSh1XB1pbVEKha1BQXrI2Kl6FSvjwG/ec4p1PZ9D9t8vXCqcrH/KIxMFaPjG8iRwah/oMmYxhwb2zSh7+1k/vtHRNCuWKq6fAQYJ6m7Fdi4BTVnYh0QOLbUPtJkw99zVUygUdhdV2078H786ZLxSI0ExBJKAFyPEwlYjYIlGhToBYcwfHKp5criGaMAdkuWgqrD1OK1Nynp3ADy55jy+HCBGlBrVGteKrtIvYoBVHJhL7I+5tCcbuN/rJJi7bu+A+dhA6ng5MwfJJykRHlmqaZ1AsXY8TdiKrFihUNhaNPDE6pA/eLAHcxUuucxXKFw6cmmZGKAfOPq08CcPDQHDZVwMOi8hAllXKeA5ouGJ5ZqnhuPs5usKpmDdBbquAtZw/byADnAsb/6+CdX2mwcGcGN/3AZ2k1xaF+S3B3OohAdXhVzyVBzHxEt6v1DYTbivd+P9+TeWePKUQC+1O7tyrRcuHSKCeNvSXlVQzfHur+Z7cxQl+sbi4sIW0H4sLpOsoPDQqpDqkD2ktiJZKApuPH+mBnJXsWyw+dN8itQsVsINi1X2X5+cOF0EUwImiqmCJJ5chYdWVgFaf6kuLd8LhcJW45DdgXF+54EehBEhCciAjQaAFgpbhXnMw7MtQdPAQPj8E/DRR4dAxC2ROh/mVvhWuBjijnoFwFdO1lALooZLwFWQ0KFnhTkE4dl7+kCDtl2d34w2PhlUHLhpfqZ9QcK69fC0adN0goMGTg+Fh07ld8EsG3bmicuFQmGn4u64G+5Qt2vJJx5f464nBQb5+ndXSmmvcElZT2m0fVfi4Mr/c2gVMFRDGWN8qRDBJJGwNqmTePBUyvPv0Nz5L61VRZfJl6g8d74HCOZhQ/WTnsk6Kc+ZE5B0JrrrIpjyM4ssGqFRHjiVd6su3i6r5cQtFHYyWSiav64MIPEnjwxhnJBQYR7AzxdtFgpbyqTJidbPUB16Pf7qkHF82EAQghe380uBky0O1A1CbkL76mmHGHAX3FPu9O0yXDBjrm/cPB+BPFloI48xDTIxwDNuWkxAvTVxzMR8LyUeODkCBAtGSPlNKhQKOxcl+624g2jN06Oa9z8iMFMhpliYQRhTNk2F7Yb0E48tRz54aAykcoZeMnJHWmyD3JNr8NDpUSs0z3FLp8apItAY1/cbrpxzIA+8DhuEJ2qi6wZTN8wp2g9bI1twWsfQwJeXcv2zIuZ0Xjl1C4WdjTiOIW3f08cea3j0uEA0xEaIjsjzOQqFbYQp+BAE3vdIzpgKqa2ilPvSVuKQK1eSbQe+etJ5YtRfl/7IVoipG3j2QmShAlBMw4bRieZBogCJG+aUq2Zj911zZ5+QVeTB03BiuAI4tRTxaaGw08lF+oR4DUT+/PEa6jFaKalSQlOjNnupX2ahcBat1sb7MEh88kjgG0s1yJbcsgvfhLRm4WNPQMNXT43wce7Y61wXBW2yx7l+vmLiOWap2XjWnkjr3GrKgfkez50nL3gABESsbVOe4quWdtBgyIKxw6vCI8NWJ+UQUpH3FQo7GfM8fIrQ5+RwxMcfSTBb5WS3VyTi1sxILxQ2jeRMqgiqfU4dW+bjT4345oFu5d60NeShB6G1FhC+siJQa85IycZapWeK0uTAWTRrOC1xy948ZN3aZ+hGI2LEs3/TpHnmhYsVEDBv0/Ku7e6yo9MnCtQ19x0bwWQGX9h4wnKhUNgZOIJ7BRifPDLkodMKvSob/prjqq0hZ6GwzbAG9QBV5COtOSeSRxhlp+1yb9oqkiqxDVzuP7GazVOhM1cB8xx7uCUwgUHkOYuQhxVX7TSa86tmKi6I0hrmObfsa80yRVAfIy5ApLNASvN8rS8+VQNCdMsWCIVCYccSJDewQOJjj+YxVKgxaY6aiEULhW2FC6KBFAxm5rn9CeX4ar43OTmYkq6sgQrnkJ2YciwwHDsPPN1A1XEQKxXiCZEEpswN4Dl7s6u6Iqja+ms6G0WMPPFKgcgtVwRgDASStNmqLk8cT5Ainz0R2hc0SY6Vk7VQ2KmIOyr5BvTJo9KmycsGqbDNmcx18wSx4fG1Hp8+6mcemnxRklKdI0CWdgtfWXEeXBkvzZzfAAAgAElEQVSsW4h3elT3PL+vbnj2bOLmxX5+SD17im3gKqCGI35GAX/9grIw41CDSARNrd9LR7+AWxacLyknxsP29yjivkJhJ5N3k5G7jjXcfQwYFPPNwnYnJw3cc+k5+AiGY+482gCGtO32uZPsUr/Wy4D1ETDO/SeGjMbhTGmvEwS8JlcSe2DGCxaVvuShyE6DuLYG5ueiKgGR0GadhOfMJA4s9ME8Z9G2wtOpX/P4qciDJ/J0eJ2I0QuFwrZno9ZwEQOULz7VwNha85WSkSpsZ3KXGBLAwSRC6PG5p4awPhqkoSmd5VvEZK6d8sUnPY/w0Y7fexUwIfgY6PG8OcjrVkSpcqy0QVbsvNBqUA24ee8MpJpEAu9lt/OukACqpPGQ+083gOTBxYVCYUewsW4k2x/c+cQIZIwQ6Hg7WShMkVbD11fuOuY8sjxqv6toOY+3BhFcBRjzN6cADa0+qassS57rh/ZJPgISz7t6ls1k0s95hrcC0O/ak8BqTCZzrzt88Q5iDkH5m6NOHgxYIv5CYWcjjD1xx6kIVSDrTkqaubBTaM/VYJxa63Pf03nWmzvl/rQF5Cx3fq9PDod85VSEKrLhoLtpYglDoQF0zK17N7dmbRhqvXK/QBVwAsoQPNcIO0E8b1Td+dyJvIstWopCYecyKfN97UTNodMKYYDLmFLaK+wUzsmwOnz6mK9/v3TtbRGt8P9vl/o8fLoGHSLaoYMAimtAfRWayM17hRfu2VwssuGzXrIv0KsCNNL9JtIl/+k7950ac2i5Q2F7oVDYMu45nhierkGFInss7CTWNX+iwIgvHDUgoG6YedkSbAHSGnHe+5RBU6OV4Ra7Py4OjfLCvZG5anMemucEUpNI+/o9wnPmItSOEdp5WR3h5PlGg8DJZbj/qfbbRSZVKOxIJgHTvacFzAjBEA+UUKqwk/CJ51mM3H/CWG7qVmjsxf2gY3IMld/le58cAoJLr7Vw6urdd8SdpBWIccueHLTZJrJJG2akFmLgliuzSl4dnC5LewlXg2YAtXDXiWVKCaBQ2MG0G7IHjw8hOKkt3Zc4qrDzcIgVD60MefDUKhBwF0LX82gvcyZjic3GfObkCGIfLOIhe9N1hdAHqyE4r7hagcBmBtadH0h5/vZL92cTh4RMzBy6oU3fhcYgBu45noWppQxdKOxcRsl5cClA7CFurfdKufkUdiAKXke+vpxvl7kFq2z2t4Kvn3AeXK4gajYP6Fg+beJgkX6v4WVXbj4I+RYvS3nxfGi9XxSR8bd+6jPFNWfwqhoq597jPZaGZcEtFHYyh1fWeGCo0BugTcrDYEsgVdhxCIQGmooHTuXzNwhtW36ha77wlLC60oPYgCak6fJ999xc1/R4/mzg+tkcMPsmMmDnRUeTiewv2afMziVIHbctCwithiIaDy6PuedEDUByx60ugqlCYVuTZ2aYn9mnf31ZWB0baA3SzwmpkmYu7Dg8z5sV+NopB2pElFKn7gCDhGGe2hm/xqefrqEetuNiBA8dxgIiiEeoa56/DxaqHrC5qTTnBVL5G4nn7+vx4v09qNuuug53ky6KOaAKtfCZJ0bk6NBxyRXKEksVCtuVrMoVoZUBOI8vOYwMQgJinjJVbj6FnYgLBOeRpTy8Nm/+y7k8bbKMsp3tqwA1dx9roF+hko2ROq3tOSQzkJpXHoxkX6bNlXA3eFWO4agY3z9r0IB32HEoDmIBC0blDqnPR48ZUCPWgERcHClu54XCtsXdc2a5XXgOnx7lbDYR93G+0MtuqLATEYEgPL5as5Ky1q+cydPH1VHXtktuzAMnG+4+LhD6uDS4CmqBLrv2CAIh8D2L2YD1ogMpByzn4fneawJQtz+rmwg8DzdNCErjDj3nb45XHBkBQXCbzPEqp26hsF3J2SgnLynCg2sKUmX9ozSIdrkA7mbaUSUlA3LJcM+TNx4fBY4W/W5nCO29vm1u+9SRyGgUINa4aXYQ8C679gRq5do54SVX9shdg71NrVrnB1IuRMsX7gv3zxJ6QOqwtCcgIRGS4iHAoOHo8TH3HhsDFWIpT4EubueFwvbkrH2OiwLG4ZU8Vkrcs6ehyxSXkKyYyNPas/eLrAcbfuY5O1mTJXlYKxPXiHL/vnS0sexqHTixkm/kO/jM2raIKzWWR8YR+dTRMTQNEmvcq/w5hA4Nu0VgPObWfXBgToGazarhzg+kBFLrRPa8fcLNe4Bxgq58M9xJFkhiOfOlCkn57NEx4GhxRC4UtjcCJkJyUHJK/OkhoIqJYQTc0/QCGxUEI1oNElAiSE2QtD4btBLQ9Uz2zvsj7kQdARWNKDU1ZXTWJUIcHOo68sQI8s6+lPemjYkRcUIMuBuffWqYR9V5BDGSOM70R8SItJsud0jGS69oB6xbIG3yaOepn/JC5HgSFqLwin3KA8cVtNvTxqUN+w3oRT75+BBePobQw6whbjo2LBQKW4oDYuvdTKsJlhvWUynuMkVDTgGvcdZowiKiIPUICKRxBWsO2lCnUSsSjjtQmyU4DY04rAnLCyuMZYY+A3ImrrDlqMJ4zOlRRf58csa1MD1cUutmLnzx+JC/PZ6gF9YbWPK138Fx18cBBUiR11wBEHEcE0c38TlvGEiJJmoRKmpecyDyRw+mnGq2VnjVScp88jMdepHPH6945HTNDYv9dpdbKBS2J1nXIJKXk1ND5+TYv3kA1fSOZYrKlVhygi2B9vEVIJzg79wcecW+GUZUDOtExHbc6uE4gYC48HQz4tZ9FQMWaae7U27gW0yrkcISJ+sKKJ9AFwSXXA1T+MyTCYYzsNcmQuruDuxtp2Bt7N0r3HqFADUugeiOyHfevGwYSGWJVAIqXnWNQ28F0mzbYjdxKO5Q8BUTJ5eV2486b1sEsYiplMR2obANyQ0qhlrWO56qjZM163PJpo/isoZKotFZWF3jtc+q+bVX7+H7rp4Has4EHTstjJqQzZBzit6gSdkYUDezPy5Mj7O1JcapeqeeT9sf80gupjXc9kRoo5NzNVEiciaDNA0E8nXmMG544fU1N+5bABKOsdmo43xjA8vC7qr1dXrxvsCL9hj3P2XorObGT8snVzc+nYJowpNxxxHhbc9tEDWMXhcHKxQKz5CsqPT1CtrIoDFZHzo6/QNOrBR6cDLxtheu8p4feRbIZDmb/L2Tt14NrWgUx6kD5KLSZjjrWeW+/wzJpR0n4Q4nx+05tZMbGbYphqHacGTN+MzRGoKRz/qMTPk9F0A8l2ndFcz54avyfD3MssbTlLCJvNH5K406okKSCAlmQ+C79gNN3uEJhoqg3pUK3BEL0Ku484kxqymBJkIqs40KhW2JgGpE1IBA7UK2Mqd1KJ6WPqo9GA2g2Bq87OAqv/V3D+QgytsAq22WOfP/O/FPANdWXxapqFoN2oW+V5Rg6hniCKIN0ONEM/luCaSmiTsEHwPCZ59UjpxKUFXt+jF5zsQKaTrkfZ7jntcT1HnVgfZBC7nEvklp9oZDi929Le/lFPmrDiyANpgL5hGThHU2g9QxVRgoXzoh/O1xgJC/VygUtiHnikDX6gbSFLv0zsFBAt6WAP7ld/eZDwHSWYW8yWEn3Tg7+M/Z/3sh75FAMTGeFg5u0t4by4a+KyTkqtOnnqyhEej16LI30kVwT6j2oTH2zgVeccUcABYMc990jLOBIaefcWQRAOMHr6yI1Rg8tI9Z27XQBZI7gBhDCnzkkTXYlG6+UChcOmT9Zr/aWOtq3tFVawKjATcvjvjha/PCl8QRkamn/3ccMvnLwFp9iXS2670scPJNFxFSutSvZneSB8Epo5T4+BNjGCihWeu0hOpi7c8XGDZ8917juvkekDARdCIy38Slc36ap12MQsrVYYCXXgEvuKIHI0M94RrX2xSnj4A39D2AN/zFE/llitQdHKtQKDxT1ruH2/+vXc79xpQRDOrEs/f1uHKQy4gqJVNwBicGoary14VnjoiCKHYBY0MKmyefpYkvHa/4/Okx9JRwAbPuLgpxgvSQZgQorzmQGzzcFXEheKtQuKjSXqsiFwUhAkoVAq+6egDNEFTxNEnld3ORisNYgEHkM0/BfSdrzhadlaWhUNi+yFnj0nNMJVO9aPPiVhMVIG+4vJSxgMnbbAQF10HWr+04H61thijiDmKk1DrOF6aKtF2qH3pkDYYR1UBCz+zSusBzmJY8Qc/4vmfNAIk8sE4vyL/+vDMi19bzF7LevRx43YEs+k7mqExCtS5wlADBiZVSr4355BNDctGxfVOLq2yhsG2YZN8n12RPtRX2dHVAIEYeOdWwkhpQoYyQyuT9e+DYUs2J5brV3F/m5c5nRC45mScgIV4MUbuj4a+fWgMTTMEk0WXQKghYA6nixgXjVVcFQAkTteUFLGGbfJXOqw9U7J+voE6YN502LZg74pqn0miP2x7N42ImEaJImXVUKGw3JoFUtb7h6epAAanG3H9ywOePjoDUmt8VgtWA8cEnalZODakCeKQrr5rLgDyOaDIrcrYqZb1OEPjqaeczTyoMItLaTXRZf8oTpHL567UH++wf5PmdOZl0YdfLdw6kJI94uHmx4uVXCtQBtMqW+Z0hmHmeTxiUTxwRHlnOj+w8n+JC4fJgsvT0MLoUiWJOCDNgNe+4ewieCOqtc8DluT7k1nBAhbXxmP/wtzXM7snvh621gvPCxSDe6oHdma+copGaAmddppN7+scfM8YroCEQDLTzc1ba/deIH7wmZ7/sIoedf+dX6pPTJvFDBzzXi0l02b7gAh5aG4Q+nFxKfOrxXN7TiT9MOZcLhe3BOQkoY6ZX5ZEaXQU1CskMZhN/8XCf/+WuIZOuwXU1wi5kI7upCSKTrsnAf3vnmC8frQl9IWkArygL5jPB20BUGCh0Wo65XBBwc2xyTyfx4UfXoDLQcOYi7jKYModGGMwq33fFM/tRm8hITSI04bXXzkEvEVPHS1XrvZCwPGUiVdz2RE1+dxvMJ629u3XJLBR2FuKe52QBMwohtuWQddHlNNXm4F6jYRZmhf/5syP+m0+c5OSobnUN6cwTdxHn20ytO2cBNceGQ/7hR4/xni8lmJ8jpXErZS26nmeCiyDmoNDLN6Qcll6m2c+p4N5OQ8jas4eWGz56JIFEzMY0ojlT1eF7LAg0iZdcOcNLrpjN8cZF/qzzR8RsQMjadr77iorn71nia8cCzE2mMndB2+VjhonAoMdfHV7hyOosB2Yr1BMpGkooe4NCYZswyYjPRpiPzqk1g0o6yBJlIaglyyvYTI93fmnEnzyyxk/dMMuL9i3S9yXcR7jEqR/9UrG+SScrRgeVsK+XWKln+ezxVf74IefYyTlYqNstcig3+yngk7KMwN6ZPKjHvB0lWbgoTBynIViEoHzkkRVOnzRY6IMYW3LNKtDUvO5A1kapp4vOgG0qkHJ3JAlzMfB3rxa+9mTMB/RzBwpOjYnITMgLQTSOLEU+dHiNn39+BW5ZE9BhY1ChUNgc+ToMiCQgMF8JC9E5NRnVMmWkNZl086zV7FXQn+fplYZ33rsMvSXw8eZNYHYKE60Ovj4LjBggnQAi0u8TFkckVzqdK3/ZYaARpOGqXh6DJLskOL9UrLeOBYAxf/poDWGmnTW+FSeu40SIypuuFyDCM2ii21QghQiNVkTgdc/q8zv3Z9fx/NjkP9M8sSYOf60eSoEmcNvhmp9/PhDGqMcyN7JQ2AZIOw/B3UACC5WxWJEDGbez1ojp4O7ZODgqntoSImuEOYHBHG4JrwY50DpnZswOx/yMrcRkfIULzAyAASGN8+gcKaW86dHe21wgwv5ersLo5Ja3S06trUZb420EDp2GTxwF+gG8pvs3tf3ghsbz9sErrxoAkIibDIjOZ9P2B0IDOK+7ts+1iwmaZj23mTUJU/zlWyXlOSMfespHDjsPr45BZkFi201RKBQuJesObw5YogqRfTNVzli7TV8BINJ6wBhgiBqCYeYkMVQcbSIQcplAfHf8iYBa/p3UkQqkAk0zaBrTBCfJYMpvdiGfa3mA7b7BZBj3ZJha4WIQh0QPiLzv0SHLp4HQtJuDLu7rra1Bu9lDHeqa116jzMaKlBpcxsDFNdFtLpDyXEOExL7ZitdcPQfDEaoNgR69dmrz1IKpVk05Kd8hQugnTi0rH39s2L4m2lpqoVC4lGQfYIhEXLOp3fWzAjbO4m9p7VK8YVprxHrwJoq74FS4x5w9D0LS7KeUlzjZHX9c2t8n/8m/N5iMsHVn97ImTpc2YHJjsXIO9tvzt+hKLpqcJ2mIGoExH3skBy+ik4xrV2+s0Sfl9ciHEJU3HsyDkoM0BMJFG/tu6l8JjopilgOqH7lmDF7lddITtc6hYh3WjZ2kFRD44wdH5Jo1lG6UQmGb0K59OUusHJwN5DlTgogjbnRqoyueN1buZ2ksdnnGetK0J1kzxkQbVZgqApCMq+cj++cGlGD1meJM7t0PnBb+6rEGZmc6lUblTJRSyyxSr8Jan2sXhB+4NgBOomq3Kxd3AW0y/EoInjvoSPzwNT3mF5o2a9RgRGJnKbkWTzCr/PXDxpePr5SBEIXCNsNV1g3Gb+iN2pu6YmmMkBeycqcv7DQcAVNu6o+YC1l2UuRRz4ws2THe+5VVxquK9pusAewIdSe4khwkODSJHzxoHJyJmCfcwzMKXzYVj5iAJwdJ4PCcPQNee5XD2PEQgBEN1mHNWIgkJMDqqvKhx89EtIVC4dKz7ije/vW8vQFizJsrkbYMVW49hR2IAMm4fm4iRe7OjPpyIHfdOo7xvscThAoaQzsMTxOKUaMMSdoHb/jRayKQXQAUMBfSRR5/U4GUE9o6sbcDMANvumEexuBuiIIROw3RzYXgAnPz/NkDNVDn1+aOueUJzoUtQ1UveB5RYTcj5zTIPXtPn6qXoMkWBXnWaymJFHYek+zJTXuyh9S6jqc0O20KJ7uYJ2/abF5uTrvzsRF3HwHm+mjKg4o7Q8FFs43FqrN/IfLaawf51Um2s1D0ouUHm3rpAUGjEiUi7Yy9N9wU6c+AN+MsWfKQdQqd4KCRYA30hU8dbbjziSw6H5tAcgzrNDW4W/Fv7o7cJGbZy0s7nblY2CmITCTQ+Tw6OBM5OJcgBdQcXW8MKcF3YWfhCVDjxXv7gIJpO+yjnMubQQDMSO7UjeGtPccfH1qFUUC0xoOAxO469qRBk2JSwXjIa68J3LxQAaASkCBo2LTW6Twu8t8Zz513XnttH8YRfIQwRDpULpkIjQAyhFHgfd9oAEjBUQKBgEnT2fF3M5NgarNI21E5+beFwrk4+weB589EaMYIQqjJC2XRSBV2GubEQeIFC/n+tkW+27uIbNlRUWFBUZzTa4kPPmYwCEBNUml90ro4viNetUHaCojz4zdO5k9O54AXFfl4KyL9ezdEMMNlhiTababTDVFFvYa5eT70GKyNhswyBka4KUmyAr9wYbj7eoZps8+fZLHMrGSlChsgvGivQhpjQdrZZJf6NRUKF0EN18zVXD+fT+BGQylSXwAGWIgI0JMhkPiLw6s8dLwPM0IwqFLbddtJJOWYKxYjjJzFReF1180AaWpL0kXeAQWo+MmbavbNGdRtLqqzSEoQGlJSzHvQH/HVpxs+eHgMBFJbVgidzf7bvYgIMcYLykidncEKIdA0JRNYOEO+DGteckUPJOKNkYJ2OJuzUOgIAWrn2fvmmO/n0lPw0up0oYQETatHAuP/fXgE5ojV2QNufSRcF0cXxA33NVgLvPGayI0zwBRn9V5UIDW5id44W/F3nqWwTNZAdFYzdnDFaedLuYNV/Kev1oBjoQ8yanUYpW59IVRVRa/Xw8w2HUxNnufuxBhZWlpiPB6vf+/svwuXH6LZkeWWRUH7NdQBJXaooSwUpkQ7gkdwRLx15xe+ZxHA8eSINCUjdQFku94h0CD0+PrxEX95GJiLiARMW/m5a3drhEr++Wr8+PUVkK0QphW4XXRNxt2APj92g0IY06TOwsl8PCZKMAePMAh8+LBz37ExeaxXIJV9wgWzuLjIzMwMdV1v+t9MynoiQlVVHDt2jOPHj5/znBJIXe4Yt+5RbtxbgY+RZsjFTlYvFLaM9XVLssjcFCrn1QfyyCHXKd59LxMc8BDXJSDv/YaxuiwQsvbZcbxTaZDgNPi44oa9zuuvAzDUBZ9S4HbxgVQruXvjdRV79w2hrqbygr7dEc/5uoJ61Of93xgCBhbRIsS4YObn59m3bx9meY+1mQBooqdydwaDAcePH+ehhx5af3zyWOHyZs9c4JaFGZA6O5yXbXxhu+OW3flFQQNYxexcwyuu7ANOrQ1uES3L26YRDEkRJeBpxB8eaqDqnRm8DXR93xZxGCV++Lo+B2crsBHTtFJ/BlvEPC7m+vk5/ouDFQxHW98OOhD+8FDNqSahevH27pc7V111FePx+IJF45PS3traGrfffjvARVkpFHYfiQgSeM0BgTUnhX4x5Cxsf6QdFDKZ1LG2xncvJm6YzWujUvyjLpw8EQXgzx5p+NsnE8yFLXwfHU8R4pifvKECeiQZ4DK9FekiAylH3ahtBCTeetMcxHqDN6bDhdMNYuK+4z3+86FWnyOx22PuUm644YYLev7ZZpzuTr/f54477ljXSU2eU7h8CZZNDF9zoIGqD2lcLs3CDmASKOXzFxq+9+A8hACWiBaRoiC5INwlv3/U/P43HHSAWtel/rMCXgFGxi1XwhuvyRIk9QRStwbjz5yL7tpr/IwL6A9c3+OmvQKjGhFBgyCeOn+jhAQof/K1MVAj7QibUla6MF70ohehquvlve/EpHQ38ZPau3cvd911Fx/72McANv1zCrsYzdfmy66KPHePQJ27dQqF7Y20xrINeA9mlB+4Mn8/OzZqFk+XTcGmabfc3HdkyG2PDGE2bEEDr4CP28/LYTziTddG+r0+0JAQxKupFdEuOtIRbf9jxnwFP3HDAIYV2gA1eIxMxrh0gyDSh37gfU/WfPZIXritLNabZhJw3nLLLezZs4fhcHhRZbmqqogx8s53vhPIlgglmL3MccAbFuKAVxwExg1FJFXY3gh4wipQGcOo4doZ+KFr4vrjJX66CNo37fcPwXBJCFKDzNHdzEIHbUBniOOEjSqIFf/g5j5guLfD1aeY57no0p5IO6RYFGh4ywsqmJ2EMQLeZqW6OvUcPDhajWG1x+9/dURuryyn+oVy88038+IXv5ilpaWL+vdmxtVXX80dd9zBu971rnMeKwHV5YkTMRxQ3nB9BLWpijsLhemTReZex9wZbolX7wvsHxSZwsWSl3/n1GrDe79hMAMWHKehy7ResATayxFOXfM91wuvPhghjXAJrcvF9O5NF13aExeit6I8Ij9wZeD7r67xtQbXBm0aJBsTTO3FnvsSJn4eCj3hfYeMJ5fHWexcgqlNMynDvfKVr2Q0Gq1rmy4kABIRQgjs27ePX//1X+fuu+9GVUsQdVlj+drE+ZFrBuydA0ZWhr0WtjE5kBJ3En1IQ370ugqI3/FfFjbgrMv8Dx9oeOREgl7CpUJ0zFRTQucQwAPCkCYCNuKnbzSgwrQCM6pc8Jsaz+w3ccNFGBGAHm+9cZDLerQ15i4DKQw3IaQZdEY4etJ5z8PZksEnKUNf/09hA84u473hDW9g375964LxCwmEJs9bWFhgZWWFt7/97Rw6dGi9g6+YdF4enP35uhueGqDhhjnhh56lUBuaHNHsKFy2O4XtheQmJk14nVhYFF53Xb99rKxdm6a1NfC2cgXC7x5aBYSgC8RGpyby3uDgoJqzTj6CceCKucg/urkPCEkCKuBmTDOQu3iNlCgSIirK5FR703P77N3vMA64tk7knS2XimgAH2Maodfwn+6rGSZHpKbJNl/tayhsxNmjXr7ru76Ll7/85ecYa262824SLJkZBw8e5NixY7zlLW/hC1/4wvrjZwvQJ2L1EljtHs72FjPLczFjUFLr7fb6a7JrsaesNBFt2j1hCacK24UsRxFRGDo/eHXFzXtD2yNRztPNke+55k6SBCRue7ThC4dGsKAkN1zqVtLfxfov4E3++R5hJfH6m+HA/CzgVAhIWN/MTYup5tZumo389I0JRuOcvrMhXZ6A5oIFAxvC7AxfOj7k/Q+vAT2cRJr4gRQ25GwLA4A3v/nNjMdj3J2U0jmB1rfj7IxTSonrrruOp556ire+9a285z3vATinZHhu5qIEVDudyec3CahVFbe8UE7Onh+5ts/iDLhUmDeY5eu3UNhOiJObIuKYn7wppwisjDa6IAwhiZNHOwd+9+snIPQg5HKbieKdlfUELOFWY17BYI2fuzl7Xq57g3XA1H4bt1zQe8vzIohgTcyZos5SooIk0GSEZpL56vP7960CSoUQk5V9xLfhmwOlH/uxH+MlL3kJx48fv6jOu8nPapqGZz3rWQD8yq/8Cj/90z/NnXfeuV7qm/hQnf2nsHOZfKbr54s7DqRJ1hjj+Xv7vP5agaUlJATUpW09LjepwnbBcQnYSNg/Z/z4DTOAksr6dAE4akY0R6j43JGaP31gDHPzSJ2I7qh5hxkpByIeBFYDL7sq8IYbZs483NFnObVAKt8Ma97wrHm+5+oAa6vT/PEb4KgaFsBjD3WHeeUvH4/8xSOrAJh6cVP+NkwCGDMjpcT8/Dw/93M/x+nTp8/TN22GSTZCVWmahvn5eW688UbuuOMOfuZnfoa3vOUt/PZv/zb33HMPKysrXf1ahUvEJDA3z9emeiS5k9pN1n/17AoUPDnuoVybhW1COyfWHQ8KqzVvvqbHwdl8s49Wgv3N4iiuk8Hlxu/evwajARKGiEQajbikbjv6EVwExku87ab5XM5z63TDLj7FuorbGNHIv//iSf6nT5Ft4Cc3ZACzKUeElh1TE1kkGBKcjvzk8xve9yNzYJEkgVDW62/J+s3PDFVlNBrx5je/mfvvv8/HMkIAACAASURBVJ+rr756/TmbYfJzJkHYRBcVY6Sua55++mlSSuzZs4cDBw5w4MAB9u3bR1VVmy4jFrYX7s7a2hq/9Eu/xK233npWmc/BdVJgRyVyYpR46QdO8djJgA56GDUUnVThEiKAeg0MSFGgMVgb8YE3Dvj7N/VpkhCCtBmUwmZIlggKX19a4xXvr1mqBXp5Hi5BEAxP3o1ht7dDpWuYrxru+ok5XrCnh7sh0t084Cn2dTomkQD87M093nFPw9MjWFeiu3eQVgvQeL4aRCEJzCQ+8JDypePOS68oJ/93YhK8TDRM/X6fX/7lX+YXfuEXGI/HVFW16czU2cHQ2V+nlFBVrrzySkSEpml49NFHeeCBB0gpFSf0HYyI8Pjjj3PVVVdx6623ApPPPrs/B9p5Gu7s6wfedr3ya0eH+KBHJNGUG1ThkpFv5mqCqaEkbKXhZdcE3nh9HjemUvpLL4S8Lcrl/Hd/BZZOOSwKeJUFaNZWiTrbNOeGAR8qb7q5zwv2ZBd1V+30U5xaIOWtK2yShhsXBrzlxtP87pcU+tK2GtLBm+dnnePtTrgn2GnhN7+YeNcPJ9RDR8fevfzoj/4oP/VTP8W73/1unvvc50410DEzQggsLi6WDNQuYXZ2lttvv52TJ0+yd+/eDT/XiavUP33eLL/+lSHjlLJhZ5QikypcIv5/9t48XrKrqvv+rrXPOVV1p57SIQzBTCQQAiEh4QlhnkUmE4YHBQcUUNQXZTCCvPqCoowiDqgPAioOiIB5FIgGQcMkCUNASIIBQjAhaTL0cMeqOufstd4/9qnbt0MSGpKqvrfv+X4+1X27b91bp6pO7bP2Gn4/x73Gsy3EuJssFlil/PgxThEyhq5kEpMlTBtMHRRijijsGla863KDjkKm+xMe46RJ1rjkkJe86F4ZEKilIngx1se/83qkAPUMYgACzz6xA70B1HfWI3zvIxCJyeJrSvmrq5b58r7h/rJiy0ExCpp+8zd/k9NOO43rr7+eEO48l861F9m1MgjtbePe5ubmuPLKK/nYxz52wDl0wPve/H38ETlPu2cO/T6WTbVBVMshRMhwYl2D5tRll51z8GPH9YCaPI4GYdog6mBwH5kXCH9++RK7FmroBSTWE3wJBfrGg+5e88h7JsmDzIqxl2bvvN/uThRbtYx51F07PPGoDgwiaJPKG+uimZKKkYLQg7rv/NllSaCznQ46eEa9Tdu2beP1r389APPz8wetKfW9fvcokLql9ELLxsTdCSHQ6XQ4//zzgVvXHxNX6jrt7J9/rxyKGup6NVPcuhG0TB7BpIPLkMKBss9zT6w5eq5DjDke6tQU3cp0HBTSXGtv7lf8yRUCHUNdcMY5vU8TwTW9lhYhVjz/2Ol0ROZEYex6kndimJbqyaojjYiMHz+pA7WhEYJniGdjNS51F9Q0vZjTyt9/w7l6fgAYZhGPRm1VK9F5O4z6odydM888kze84Q3s3r2bfr9/gGzBD8Lo946+Hj1ey8ZlFHhv376dSy65hM9+9rPArQTIKgQdAgMee885zj6qgOVkgyBekFEi6J1s3NDScjs4GIoGp6yELDgvOHkaAEVRCYhkbULqdoiAxwqigVeA8LdfX+GGfYJO1QTJCGPvg1TEMjJyqJx7bIdnnThNSqIoquO3jbvznqGArvrcBcB52j07HLdTsJUapMTDIKmNjgMHMsG1j9dCHqbYu+y864plIDBUMGrwHG0jqdtl7cTdc57zHF75yleya9cuBoPBIT6ylvVKp9Nhfn6eCy64APjuANmAWhSLBQq85MQcVKEuQZaoVAlkaSPU0jIJxIAhWqVy0P8+seY+26YBBfXmWtaej7eHWJI8KKUGLRgMS97+1QEUPUKcIsYK1xRgjY1geO6gK7Ds/Ngx02zJSY8pAWX8WoVjO0scYbYQnnd8ktg3ImJpEmIsab4kW5GCuSJPPl9Tzp9/A25cXqKHEkkaFu1n47a55eQdJFHN8847j2uvvZZ+v3/A91paRufC9u3bufDCC9m1a9cB/9/cC/GMNDsz5NwTcs66i0DMmv7KKUxKoo7XFb6lZT9KcKgJhB780ikdoKZd2g6eJHBiiOdA5N1XLnLFnhyKASY5kgXcxvx59oBQUtdOd1p57vGpr22S7+OYQwrlOScXzM1UeFWQeUbqPh/PCyvmiHWJMiRmkZDV3LAQeOsVfVidvYgjS+OW22AUTLn7ambqvPPO47WvfS3f/va32bt3LyGE78vYuOXwZXSuzM3NcfXVV/Pe9773u+6jLogrRklFhmqH805xKCuQGbKyTn59Y26naGlZK8BpUkC/5DnHCmftnAUUkbbl4GCpNL1OeRAG9ZC3fi1CCASNxKyPeYVawTg/1GpOMIXlDj96bMX9dx7YhzsJxhpIucGxM8Lz7tWDPtTZMuJjNDIWiBgaa/CCyDT0nD/+r4yr9tRkoST4+Cu2G5m1Ni6jnqhRMPWLv/iLvOtd78Ldue666263YbwNsDYXo3NkZmaG97///czPzx+oPyaOhEiUDrml0v85J3V58F0CtrxEla2gMs24qwAtm5tUrKuBAKJ4VRJy+H/u2wOcaNUhPsKNRTBFMaDibf8FX70xhykjMoeaIV5jOsZrPuBSUZtCcH75fgVQTDyrOJaYYnVgVAAKnn1ijkwP8CrDZXxbTkdwqTE6qUvfaygKFhedP/76PiBDpPXf+17cMpJX1dUL5bnnnsv73/9+TjrpJL7xjW9Q1/WqPMLasuCt7QbaXd7hSwiBGCNbt27la1/7Gv/0T/8E7O+3cwclkDeSPO4B6PDiU7vghocC9T5OAe04SMsYUDz1zIijCEEiLEd+5t5wxl26lETCONS2D2fECEHYU0V+/2uLoIEUVgxwKzByfJw1IPdkkN6veNg9I2fdJQ0LTPpSM9azRiRF92ft7HDOUQYrjaXLJHL3Aqk5K4NZePtXKy7bJ6COt7WDg2ZtYDQKpk477TQuuOACXvjCF3LzzTdz/fXX4+5kWdZcNP1WR+DbLNXhS4wRESGEQK/X4z3vec8BwwkHvPeSRqUBnn2vwFN/qAf7aoIMcL3zNMtaWtYibohFaplC6BOHkd50xitPTy0nYjn1GG1EDkskAso7L4frdg9heqQl6WtUI8Yc1WgO1PzcvZJaQLpOTXYzNtZAKrpSxvQwzzt5Ok3pVOW4H3YNAlKinYyVfT3eevk84Ii1odT3w+giOMpMmRndbpfXve51vO997+PMM8/km9/8Jrt27VrVFWptXzYPI59GEaGqKo488kguvvhi/uEf/gFg9XsHIMl6E+BXTwfJOgzjNPgy7TRIyzjwZF+L+goQYBB41f2MY6dnqb0ixwjUtE16B4e7o2TcOBzwB5ctQb4FqJvgamJHAQPjtCM7nHtCUgSwQ6BEP94eKQkoFRB58g91edTdDZY9ee7sLwCOFaERVJvN+JtvrPCVvZoCujWaRi3fm5EG1Kh3ahRQnX322bzvfe/jHe94B6eddho33ngj1157LcPh8NYvoC2HHaOhg9H54e5s27aNd7/73aysrAC3lo0UVB3IeOhRXX7+xCEsDZqMNaRmYBndtaXlDuPqmCiBirjc4ZSdNS87vQuASkFNTO0gLQeFNP07f3pZ5Lq9Q+h2CDah1hkfCXwLDAa84N6Bnk5hVgIVk27gCa9+9atfPa5fLhgaK9AckUCRD/jAVUPIp0GqJnINjK/53MljnpoKOyVxnzKINU87tpd6pdyJ7owmNVpunVtTJIf9F9AQAieffDJPf/rTOfnkk6mqim9/+9vccMMNLC8vr95nVPpZO+03+t3tbePf1p4v09PTXHXVVWzbto0zzjjj1gNqh9qSofVpRzl/+Y2Sfl8hc6AL2TBtt0zbYKrlDhPMEDFq68HA+f1HCKftmMYa8w3TgJC1m7/bocYQB/Hka3f9SsUvXLTCghbQMfJYrLGKufMRT9kfzzyJWC0r9zyi4q1nd5nOiiTGjSOaTXTJEB9nWsYNiwKZox5Bah5w/l7+a9cMYaokZh1CdExkfH1LDqiQxyGVzUB1M5972jbOOGqaOkZMIhnZnWKBsplZ22gOcPXVV/ORj3yEiy++mK9+9atcf/31q+roeZ6T5/lqUNVy+CEi7Nu3j+3bt/Pxj3+cI4888rvuUwMSS8QFzXL+4rJ5fuY/KtjeQWolCyvUdFOSQNvsccsdRJQgJXGv8Kx7Zbz3h7tA1riLtCZF3xvHqHDLMIc8wK998ibe+JWc0OviWR+jk8b1x4QaeBBEIlpCvSz8zqMG/PopR1BZJHiBSATVidpOjT+QEkEcal8h1y7vvmzIT31mCYoZRASVARYV13E8aUmZLxMCBSJQLzhPO36J//vEHUCOmaMMQXKQttH1jmJm35WhuOGGG7jyyiu56qqruPrqq7nuuutYWFig3+8zHA4P4dG2jIvROXDNNdfwohe9iBe/+MXfdR/DscqQEAhaATVPuKDiI9+MdGaMOmRgBe41Fqz1PGu5Q4iADwpmWeK/ntXl2C0zuFkKotos1PfGa8yTknlQ4Wt7ljnl/5ZU9MilonbF86YH2sezQRZXvKjJ+0pVFeycW+KKp81yxBQMzenQTdHWhFqH9h/XGAMpa1RP8zKnFKfIhboqeeCH5/nyd2bodOcpsynccqBkHE9c3RHNMYm4LcBwBizjn59Q8ZRjpqgtJ0iFSCCVGVt+ENaKeK7lthYoM6MsS8qynMThtUyYtcMGw+GQI444YlUmYxUHsz4lXfJYEoqcL+4e8tDz51lhCullhDggeo5Lm5FquSMIEGFfyZseuY2X318xAxWd/Kz8BsWpqUwp1IEBP/nvkb++rEOYmyfmIHEasYiL42N5TVNPZfAhkQ70l3n1A43/78yjGJjRqQUJTqU1mRSHT2nPHWqPgKGWU2XQxXjHZQu84CKFrSUhdogC45mUcPACzYfkQ6EsAmp94kLBw45WPvHUDskhWhAdkwfgJuKW2ajRSDzwXVmqlhZ3MIuIOLUIhQuo8pbL9/GyC2t0RwdXS9pzNnJEGA2qtLTcHrewIlOBvRWPPgE+9sRZ0pi8oyJtIHWwuFNaRREKPnF9ySM+OA9BkWklVD2CLTEMHYgKOp7JPTElCyVVDNxd4MvPDGyfmiZGSUr1WqExoHmY6CoxXh0pICOAKpo5XU8P+WMndTjhyBr6HRRDbIz+WmpYtNTFXyuRLmxxPnnNkD+/Ykiq+3rrr3QncMspvVH/Uzu9t/nwNVOxt7lXExAJqAi5aFO5c15636089eQMmx+AZMlbtjEgFXIyd9oR9ZbbRsBLEEFp1qFlZfvskD988AyQepKjRKzNdB40EShCKsH/zqUrUAV0WvGYgzkRbbrBx/WaCohh7rBU8dyTCrZPJQHOoECWmsxDmGwQBeMWbBEQhZyQGr8khS3TeZdfPAmoBtQ4LjnjWRgljbN6yoa5VOCOeIA847Vf6LOnNILm7R53DIhI20y+SVmbgbytIFpISiQpQBJEtOlTdf70UTPcfQv4Up+gNcFLJA4RBZOR+XlLy60gyVk1xLRBttiHwR5e/5A57rsV+gAiZJ4hrWbZQZOat6d59xVLfOQag5kcqzKIkToMqTVP0dbYxDDTBiqWypY54wX3jqxK+woElAw9JDJ0E39Iazr6f/bkLsduDfgwjLk1aWRQOfoaqCNhOuOafQVvvLQmiYi1O5OWlkONiVDXNXfrOG95+DREoa6FGDpoDmKDtCNtM5wtt4UbRpG+1gjzyvMfMMsL7pWnwSPPEU16Ue2yf/CoGMN6yO9+MUBeJB04r1O2xBXw8e5v3PEsQF95wQkFx2/t4G7JDu4QM/FAKligNmM2n+LX7lNAOWCycu6CB9B6AFOB3/tK5Et7UmmxFehsaTm0CBEsLcrPOrbDSx/YgZsXgCnMOygRoW4rey23g4LUeG74Ys4pdw38yUOS1EHtGUUFtQvmsU1sHgTunhoaUX730pIr9xpZrySzkQ7khD6MojCo2TFV8uJTpoAMN0H90A+JTTyQcvXm3I087/7KyUcGWGqalLUR+hpvWNvkqHpIBvWw5He+kNSXRZrzpe3BaGk5JIgbnhnRkufZm86a5nH3zmDvbgDcc1wmuHi3bAhS+bjJimAQwJaEnZ0Bf/XYgjxzSnNUIGYDPCrqjNdQd8Oz5joowhV7K9542RAKw2IgShh7HCWehL1lNBSwEnnhfXOOnoPKjFRNGt/jHywTD6QijrpQOhShw4tPAeoBXja7TYnN6zK+V8ddqCWNaTJd8P6rIh+8ehEQotdEhli7Tre0TByRjEwzVAV3QRHe88M7uccO8L3D9Jm9xWarnQjd3Ign1fJUauiQWQWVwHDIHzyix+nbpnAryEVQFVQL8iBICG2P1O1gHok+bKrokTd+aYnBSoBuwCUQEbAxlvNEEYXgdXqIfsZRW2t++f4FIKgoLusjFJ74WZRZQJSmxyHyk/ee4X53y6BaQaoCDz1cS8a745T9b34Q8MArPrdC5TWZCuaddsPb0nIoEEmN5+kfuMOOTPmbx83R62XEsiQTOeDz2ZbkNzcuaT3vsIRamZqe5+FVZxf82AkOMWIeVvvqZGQJJpMVbdxQOOCB6KnX7J//p89f/fcAZvLm25YsWsYXRQE1ltW4z0HtUC/z/Pt0uMvUFLUZLhAoCIe+ReoQNJsrOBVFdGLM6WnGy+/bgbhCnQdC1Yd6jP573Mqvng5ccVOHN1zaB5zcImMRWm9paTlopLlAmtc8YmeHtz82gzJQD+W7Vq42mNrEiFFLh0oV8Qrm4WdOjbz2jCmgRyUBkRrx9ZC72CBIKrMXakDJb10aQXuNaviaO40NBwI6BMIAM+XobRUvPrkDRNQCWSwxUrvQoeYQ5DUrzLM0eWOpY+knT8g5824Ky2XjyTfpKEag67z2SxVX7C0hC2P1C2ppaTk4BMfcqGvhucd0eMvDgOFC2qE27vMtm5WmxGuO0IeQE+e7PP6Yknc+MgcyYozgFUMPeFvGO3ga/0EQXv+lIV/YFWFqkmK4nkq1IkRq6Pf5lRNzdk51KVHEhSg5eNycU3vqQnRlkEWCRswFQs4rT5mFyqgkawS9JvfiiDtaFAwXjf/3kpSVQrWpHhgVtg7eqpaWzYiA5yglUPOS+x3BK8/owMIwKShjiFurhrCZkNQongrAFYQuWIbtiZx61M389eN6wBSDCKKBgFNojUsbSN0mbiQPkuafYogKVywYr/lcHzJFbFx6j7eGAkMsACvKCVu7/Nx9pgChcMMyY9AYE+s68OCc/JmlGUUQpuhAyAjNrvKce03xmGOGeF9Rm+w4o2vAKWGm4PyrnfddvRcQqujUVcSAGL0tH7S0HAIyVTQUOB0AfvesbbzogcC+IaBJHd3arc5mIaNGJaKao+SILeErNSdshX996l04sjuNmdANikpAQ0GQvM1H3Q5uaRDMPWJxNFlf8VufW2QwyOkUEQ8TfAXd0Zgs3qgrfvV0mJ7qJkl6CQTJmQYkaJJFOMQc+iPAMU87y1ecmkMWJp//8ZT+Dd0A0uE1F8MwVhShQiynY4IwXBfTAS0tmxIZ5YcBlD956BZ++lSFPWmj45JUjlsOf8wNPBlaE4b4Uod7bhnyr08uOKrbpa4jdau0+X0RRShsCBbxZlNy/lUV773CYbZHWYBan0l+xlwdViIPvGuPF57cCGuv04/4OgikmgkAAo89epbnHlvCQpxslOlCbt1UUZxWLr+p5OWfGwAOecWQSMCZvINPS0vLqBdqNGOV2hcL/uJRW3j2yRFuHqRJ2/biuQlwjALTgGvE9uXsnBryT4/byvFbM2KssaCEdVDu2UhkktIXtRSEvGShLPnVzw+gMEIQgnVgoqU9x8nBhrzqVAOmiSbrNplxyAMpRxAnNQWS8/IH5GTdCsr99xg74lQSqGxITgWzc/zx55b5+K5IUENRnKINo1paDhGjVUAAE6jqtEC85/FzPP/0APssfUNYE1C1n9jDgtWgaGRcPUSsoprvceRsycd/NOMBO3O8zgmWLENc2lLv94UAWpBLBJRfu7jiqhtAZzLMlvCY49m4wxjf/5cqLJQ8+ZjIOcf3GPnmyjoo490ah/yokpyHEppWt1OPmOXl9+nASkXyH8wQlzGviY5rBFXq6IgKFFO84jOLlLWSqyYroXbH29JyyAkCGjLMBMj580fO8uIzHRYGUAvEPJnWUpHKAUmhWddvZaDltnABTZZAKhViQ1ymiYs1x+0Y8ulzprnP1i24C54pnik5krTGWg6eGHBzVAIfu7bPn31lAHPTWJ3hGohSJh3cscoSZWQuSHAYOuTwqlPngByPFUHStN565JAHUkB6b0K+2sz9ktNnuMtcBYMSsTQ9oF4zvjdRVwXIPGSp8bwnXHyN8bpLBwAEK7F2GW5pOSTc8pOnjSNIWjFy/uDsOV5+5hTMD8AHuBpOaJqqUlHQzVud3Q2GiNMxI6jjFCAd2LfESXd1/u0pBSfMToGlzXjSec5QCayXS9tGwIFanaA1S7Vz3n8OIFPIqrQJ8YykVZQxzgqRYo2XpsFy5Pn3zjjrblOAI6opS7VOWRdH5u64pzDFYs2RUxmvPk2hFKIYToX4JOqzjf2EatoJTfd4zWWRz9y4AiG0gm4tLesGXdU/H60Kbzprit9/TA4rS/iyYBRJE65OatYUwuR6PFruDESEyqcRaoI7vrviEcdVXPKUWY6bmcHiEqZV+67eAQTIxIGM3/7CEpfe0IFuF1YnYUf6UWN+la2i0oj1p9ixteK3H5jCE3dLlT1fvynldRFIpfJeaGIYAYyfv/9WHnyUwPIQl5yo442GD/Dq8kZVtZfjg2Ve8qk+NcWqqXErg9DScmiRW9yiG27Gr9xvK+/54e0E6cPyCuIRDQE3w+M4LS1axoEjeKekHij13iE/cQZc9KSdbCmUKg6wMAOWt+/qHUa58DrjjZcvwjYjq5XJhgeOaYFLAf0VXnb/gqNmp8GSz567pAG0dXrtXReBFDQBCoK7NobBOa88I0/qpqWDDmgalZofGOfRKMgAixXF3BYu+bbymov3AAGR/Y7Y6/MtbWk5/DlwPbVmSsuozXj28VP85zldds46vrePSYQAao0+zmjTJKzbnotNi4wyH/tvPl9Cf8grHtrj3Q/bAmQMDNQNasepaVfjg2c1GeD7tRGruuIln9oL5QwhZsRiyNhf09Weq3RTKlgseMDdSl5+ao/0oc2IDris62B53QRS4KgqopJMKKl5yj2nefrxwHKJSJ5qp2ZJ2VaqJqi5c17eA7NMKc0pBOroMJXz2s/P86kbGzNlq7BYUVHdKY/d0tLy/XFgL7FAs3aMNq0P2jnHpc/YwaOPV9gdoQpIcFTS9I96BzVBdXionkLLLRAccRDPUAJCwBdqurnz/nOmeN0Dm+kti3Q0J4QeQSUNB7UcHA6GU3oJZkgzHv+rn9vHV3dV6FSBGPjapMWdjqA0fraSNcchmGdQ7eXlp3bJtUOMqbQYNKy+x7JOhwjWRSAlIge8QMFrYnRAee3ZXbo9x1cc1ZJMI5jhUuC2Pzs0hqNCqIEh0usA23npJ24mAhI6DDVQjPXxW1paDo7R2pERUssxDtyja3zsiTt5xVnA4gJxpcDzSKgFCfsgOE7v0B12ywGIK7mVEIaYKT4/5KS7Cpc+fYanHz2Du2PRcQmrmUVpJrvbku3BkZpWIhnQ1yRA/dHrV/iDzw9hy05cDUKZhjTG9pI65pKkj+KATCtgAPPGj56kPOdeM83dIhvl+rouAqlb4pIRRYmVce+5HufdX2FQE3UO84B6BeYg47KScRDBRFEBjSsw1+Fzu3q84nPzgNGzUTasbUBvaVlPiEjaeUfDpeJ1Z23lH57WZWuvj92kaMhwm6OIglat3tB6wYJT5Tm+3IWlAc871bn4KT3us7WLVzVmERNHWo2oO4RjqAd6UrM7Vvzyp1eg2A5ZhdogTadnYbwxjAbwCpVIlA4epwlFn9eeMQ0oXjkeAr5BAuT1GUghiERiY17862fMcvKOEuYHWJhC1MHrMR6BpBKi5kQylArxRZia4s1fqPnodbshKBHFycZ4HC0tLT8IImmuL0YluvHMY7bxlaf3eOJxfarlEhvUDNWIBWt6NWCj7IA3JnJgTbbp01lteIvg+0pmsn387eNz3vXwHWzNc4YGwywHClQq2s3rD07aY2TJow7hVZ+5kStu6EAeyWwZEcdCp2lPG2PA6o6Kg+QpK7ywxK+dOsV9d/SgMuqsTMbJ4zuCO5V1GUipO8EVVIgx0NGc1zw4h7gXYp1OBNWxOr6LGKEucQpqLyD0kO4QrMfz/sP5dr8mqCLm+KgxMnXMt7S0rAPqkJLWYhCt5h7TU1zwpG28+SFKrov4QolbQLJGNdkFQra/4Xk0br1O+zI2FCKoRCSWpIBKEUJ6bSVAv4b5kiccA1/539v48ROncHeiCwVGiI5oiZAn65CWg8chdUY5bpas0FD+8ut9/s8XezATkMyIdKnpgCvByrH2I6VJvIBrAQvz3OfIPq86awpQoggigWzDhFEgviFm+Q1QnvOxPfzdVyDf2cXiECOML24RmvLhaKoAIDmO254hzz5FeM+j54CIVYqpQOgTYg8J4yo5trS0HCyj2dr9n17BvSQT5Yt7jZdevMRFX3foZshMQKoaESGKJ5FH1cbANW3q1uvo9YZAPO3aLckuYhUaAuYBFiq2zQ74nQfN8KL79EAUN0/ZE2lcFt3bgPYHwdMmwkKN1snmTDO4arHm9A/sYaGcQnuSdGt9/w+NWzVKcUScaB1YWuR9T5zhGcdNpfdd12aHN8Z7vi4zUmtJYp3pxXzNg2bpzZZUywOEDB+n746z5oObTinFoR7Aloy/vwLeedkyUFApjTRDwKjbrFRLyzogbYH2j1cHQGIgGpy2TfiPJ87x9scqW8ISvhc8BjIvEVOQQLr0a5oWQDc7PAAAIABJREFUbj/Ud4jgESxgkqFagRrWH8DCIs84MXLZM+Z40clNEOWW+qAas2qgDaJ+QNzBpQTPMBzNUoj0y5/os7DcQ3qGWNWIb05O2sdcUtVpfpFnnpTzjOOm0jduOY27QVj3gdTqRJ/VnDCrvOqBOZQZ0QPiFZN7sR0nS+PTQaCj/Opnhnx9vqYTIEhJNuxSS461nnwtLeuTTIkaqU3BAy84eZavPvsIfuK+Q3wYGS5N79+PR0vZZdU1Ks8t3z8CJohGCIMmgBKO3tbj/Kf2eN8T5rjbTK/RNirTzKVII0nTrqV3hEoNi13yKpCH5D35xi8N+PA3SphRgiuqgUkHLSqRsl+QT8OrH9gBIo6vW3mD78UGKe2Ninvpg/XgD+zi4u90YUsPbCTGNooJx6h+jiRpBgKqQ+JSxtlHGZ986hY0KFbXuOaorm/xsJaWzUr0RsgRJzaZqkwFKLnkhhVeeknNf367WUNmOikTYtYYHzcGf8D+daZtUr/V1+CAl8eTc0UVYdnZsQXOu5/wC6dMM5NnuFXEaGQZqfnY02ssEpuKXtsq8YNiDmJDTCBoh09ev8hj/qWmUoMQCB4QidSSjbe5fLVW2HyOJIO9+3jDw3qcd9o2zCz1PY/vCMbKhgmkIgYYgYxP7rqJR34oYrINLQbpgycjPx4YT3QtCBFNsnEYaaKQfcpLTq95y0O3AiM/oGzNT3mzGGzUU6Sl5XChyXCYEtWAOpUXZO2OfMi7v2X89qXLfONaoOhBt4KQISK4V6gbQiCKgDTN014kf9dNl412AhFDcWlG5r2G0PiVYlDm0DeK7pCfPUn4jTNmuWuvSD/t6cKa7LeS2PIIcWuyFG0gdXAkpXIRxdfY40UfkmnOvkHFAz+wl28uzCAzA1ym0VgjJFmJNIE+jvPXEZO0B/GAaIktdnjY0Xv4xFOOBAqi16hspPbyA9lAgVRErEK1C8DLLt7HWz5jFDsCUQNeD0GKCZbVmlHeOsJCn3980jTnnDBLtORinZpTSerrzgELREtLyzpkbW+rG3/5tQG//ZU+39xlkClM9xCvCR6xTg+vIlpXoB2iOKL1puxHF1HEHZdGmTwqUSKYwApIscTz793l5ad2OHFLBhSrfa/t/vLOJp3EZpaCUxM0pID2uRfezN9eEQg7C6Kxfyp17DTpB49IUOIgIh75xJO7PPSuM0SrSYNcnTaQGje1g1KilkMw5uuKB//jPr66u0C25Ghd4RSYMN4U5VocVAZYPcdOGfKJc4x7b92Wyo3N2LSZbOiUZUvLZsLdkwyCAFKyZJH3fK3mbZcb//WdQRISnO6QJcVPYihwEST2EVFsbLv69Ym6IC7EvKSohegZMQosV8zM1Dzn2MBLT+9y4pYOaQQ/UKLkDFByoM023ZmYpWk4GV0HJQOGvPnSJX71Uz3YHtG6xEIxoSlUB3KE5N3nIYebS379YYHfOX0aogJOHZJC/UZNN2yYQAoAryg9oFHJcueCa/bypA85zEyRsYKjjfj9hJ6SgJpCVmJ7lYfcQ/jEj86gBNzqlI2SLAmMTuaIWlpa7iBmlsQAYyo3EDKwmg/8T8kf//eAi66tYJjDVIBuRlYtAV1qCtCm1LdZECdIxKou3i/BS47aVvATJwovOMG519YukKoIdZ381XSUhtKNetlcv5iDJrO8Rtha+Y9dA574wRWGmaIFeCxwmeCglkBWD4lFwBe73G/HEp88d5YtoUtVCZLVSdZaNq649cYJpMwwhEoMrZ1cFDLlF//9Bv7ksoBuL5DoxLUjsxMguGL0yWSKaveQX3iQ87aH7ADArU4lPWkzUi0tG4eIm2ImaXQ8KAFdlVL4/E0lf3rlEuf/T83e3T3IgG4JRQFxbTb8ljp064nvRymo6XVC1jQMp14zKoeyAs04/e7Kz59kPPv4HrN5h+SpBuYRF8ctoBoJRIR8jBZfmxdn1FuWSq57KuO+f38T31nqkc1URFeSxGnN+M/L0TmWZFQrU1hc5GPnTvPou8/hZaQMhmggd20SD+vxs/K92TiBFMkYQCw247EBEWHvIHL2+Tfy3/M9wrTgNmoEX2tHMKan6CDqzdqSQz2EpZK/eOw0P33yDHhNNBDJ2s1XS8uGoflMI00DOeCOuDVDewFw9q70+eera975zYpP3+BYP0Au0A2I1AiKa1LvlrpOljUhx71Kv0skCU667B9ya77wMV9PVGLSFvKmCRhDzAiAadOsTACJEAd46KRNYSyh6sAwgCxy922Rpx7d4dknTfHwnQX7g66wv+VspFEkmsqg431qmxZnVNorUSkA4+kX7OUfrzLY1mti4Qm4b7giYmkuVhSvDbIc5oe89HTl987eBlhqeyFiun+bslHZUIHULfEYkRD4l28t8SP/MoAiIFnzYRVWGxonU+pLwR3DmukQueDJBQ/f2cHqDFXdAIpdLS0tt4ev+UNW5RBSBuqLN1Z86LoBF1xT8bndObFMpqzkDnkHyTLE+uCCrZpfONI0Bceg+y2mJiDoLCPNnhgRtSRuLB20rDAFC4LEQBAwd2wIVCXkztFTkcfePfD4YzMef7eC7Z0cUCJG7YGimcJrOQSYpeBXnFd8NvKGi0vYGhidp03kPtZDEBTE8VhBEyTZcuSBd3H+86kzFFmeHANED5tp9g0dSEWD4BWEml/4ZMmfflFhR7OFjEn7JY0sT+7NEhd8pcOx2/Zw2bkdpoptaQcqrT9US8vhggEWIxmWRv2bLBVELr1pyIe+XfLRG5TP3xzpLwzBMwh56rfKB2kKMGaoAerJYmqt9tK4V2XRNEUlhkme/NWo0wSVWzIqHDTG8N0uPzRb8oijjCfdc5bH3h22FzDqfcJLwKmlg5gTsNSU3zJhPF0TVXjv16/n2R8tIO9AZ7IesGLgmrQdRRSvDCq48MnC4+/exWrFVVHZuAKct2RDB1I1jtagWWSxdk59726u3icw20sfZK8aRbJJTtJIWpD2CeceBx948hSQ7580PUxOnJaWzU40QCqCJUFD10COAHVzC1y/nPHJ6wdcdP2Ai/c5ly841WLWbPSATkgXOmtS1tKkpMa8Toh5ozWkSaW0rmEYQWahaxzVW+LMI3P+190yHnuk84AdBZ3QBE5Y0nzyQE2Fe04RBCLUGokS6VCM9fhbDmR0GReBr+1e4EHnV8x7QLuKeZqMmxRiSQoDbUQ+b1riZQ+d483/q5ta66JCJhxOncMbOpDCnIoKyMjV+PC1JU/+10XQHCkKMEuLxSTLaiqo1Zh3YH6F88403vDgIxmJpdForrQBVUvLxsVxIlUa4XfBkxUvglIDGks06JpJJKcm8rX5yGW7jc/vG3L5Tc63FuCqfsVwkCVNOhMIId20KcMo6Wtdu1TLLQ+I/XXBtY1WmjaTkf1/A8QIeQaZsbMYcPxs4D7bO5y2M+PeW4Y8YMcUOzudNQ8wCp4yXGLqGZMM8/S8TdP3mm5nQru+TQBf/dPNUA3cPKh45Pk3cPm+LWTTTj1x499GPzE4eMTnB9z/bh0+f84MuQSGFeTBUMnX5wzGD8jGDqQAx/DU1gkoL/vMPt7y+SE618GDQgy4TGJCYYQg6mR1TUUPVm7gzx4xy8/ddwe1R9ydHMM13+DtdS0tm5nG2aAJn0b/59709Io0PdyNOO8q+yeZAFas5qr5AVfuVa5dHPCNgXLNIly/WHPTMLJQwkIs8IomBebg2gj8rqkBjqSshVRbGT2UOFnmbO0qRxTOXbpw5EzOCdPCcTPCiVsDJ2zrsKOjdFYPc+3F1zDXprXGm6dy4LrlTXO+rk71fdddWsaAe2zC+UBHUtD8lA9dy4e+1UFmpxCGeCO/M8GDgiwjWE0cVuRi/NuTtvCIozrgtmbY4PA6QTZ8IDUiSeMLkZrH/uMiF327ix4xxKsKly6TSm2KC0KFZw42hw9rQn0TH33aTh5514LoEbMCCWlquqWlZXMxWqtum4jFmuVS2FvDzTXsGVbsXgr0KxhYRT9GBtGoSCUS1ST8myP0RNjSgZ09Za4wtuTC1k5gRyfQCdBEWKSQz2FVe6+diNlI1E0sn4UVoMcvf3o3f/jFIczehcKGxGyF6AWNN8sEjiiVtYM4MU7BwjJvfkSXl53aA1Kv8uGaqDxsAikYiZFFvrx7wOnvHRCzDtKLE282VxEsq8iGioWCWFbcNe/z2XPnuMdsD6tLNBOgbUBvadlsHBBIrZbkDDdJpf9GjiD9/6hpe23ZbhQIrf16/+/Z/3Nyi59t7mtGNEN0rU3L4TNBtVlwhlBlSC688/J5nn9RDVtmyGonhmGSFIgZtU7I6QOASEag3hN43H2W+cgTtpHOxcM7SD+snp0CZsr9d3R4y0MUfICvNpqvXVTGt2C4JlVkrTI8i2RxEclrdi11edZFfZarGs2U2FojtLRsSgTBzDHSqLpjRNdUgnHDvKL2SOUQPTUvOEJEUqsTnso6nkqJ7oZZTMKXTir9ueNeYz6kdqPy/T9rGCZKFMVVcJnEmGDLnU10RXLjwuv6PP/TBp2cvF5BdQXXZLniEwmi1lxTNVBXzpatK7zj7C6QpQ3CYc5hFUilEn0NKC8+dRs/+kMRbo4QAuKWepI0B4+MJZgatSl4hZhQa04VClQ66Cx85ltDfvyifaTJPnAb9TfY6j6ypaXlcMdXSxwGac1QQ4IjIfVXBVdyDwQExRBqAk5AURSXkAIgGWWxAiKhEb0c3QJITgByjOCAC6IZefDm/1JpsE1GrW8MGqHpJGXgZmSS84U9xjP/bQFqJ+tkVKFD6Rkh5lDXxDBmKxi3NNzllh4lZrA84I/OVu45O0d0J8okM2KHhsOqtOeAe00dhSKLfGsp8pj39/lmlaG9JJVgqiCWFH0ndFRCBwl9pBTifORXzl7i9x90F7AiTR1aWi6z7PCKa1taWlpa7jjRHTdwrZCYrhU3DxZ46D8vceV3dqDbF8Gm0zVQ4sR25UFSQkBwogjsi/zsKco7Ht0BCtwlDaIeZjmbW3LYPTtxQ9UZknPMTOCtD+9Cv8RqsADqkf3ieZNAcQZptlA6sGWKt34244++bKCOqKPByOSweytaWlpaWu4EQjOZ7mJkGVh0nvmvQ668OSOfzRA6WDbEmVwQBYI3emiWCSwapx0Jbz67ByilB6BG7LDJ1dwmh9XVO7VaKplXZA6Y8JTjuvzGGQEWHQNqyTAbU2nv1hDIopPFQMwqtLMM3a28+OMVH/jmIhld1KVJwba0tLS0tNwCAaSioAMIP/kfe7joW3OwZQYPi2A5WTlpiUvDPOBB8b6jwXnHI3ts7RbEKhA8qeTHTZAkOKyeoQAiAZcc9UhFDgi/dfYUjznWYU+NaGw0WNYwzoDZnZgFggW0BqoMzYfQg5/695pPX9dHNKBxzMfR0tLS0rIxMUebKcvzPrXI335VYVuJ1mUKVCwihFW77fGxNlRLCuVe1bAcedvDldOPyjEToiZNM5NiU4xVHWaBVKrVmmSIZmQSMXOg4P88POPoLQW+YhCGgCMeyNwg2FiVxl2EUh1xxaWDSY50SpatyzkXzvPVfXuQkKcpnjR2g3lsvm5paWlp2TQ4mBsRS5o+3tgJkfGmL+3iTV82mMsQqTHJwHMco8rGrGIuoFKnag8KUiM6hIXAT52S8fMnd3EUFSPXAJIhoo1Y9uHNYRVIgSCihOZcEkm9UGaR4+emeNujFKoAg4BKDVJhrmgcc0o0Ju3fOjOcEoBgBTpVc9NgC0/5cM21K0uoCLVVeBxgJlTU4zyqlpaWlpZ1RpLDcNwMt35jLWb81ZV7OO8TU9DNyaRCvdPcv8aC7rf/GRNJl0oxEUSrlP/al3H63eBtj8iBIk2iS5oCXVWPakt7G5sUnyva2DY85YcCLz+thvmA6RT4EMtSj5LYGM/CtRJWjaKwi0JVwJYhV+2Z5lkfWmBYVmShwOiQURM2wQnY0tLS0rIGUYJEMnc8dBENXHj1Aj/9EYPpDpKVeD1N1NE1S1L1YpzZABEkVqmiEhSIxOEMSMUfPcKZzgrq6OgmvWYd1s96ZA5ciRKjAoE3nT3LE09ahvkhIjOo1dQdw8SYpB+fuaP0yWpDthoX3zzHU/9lAagJQYjiSDys356WlpaWllsggERlKIaK8uldizzzYxF604SsInNDQ5VMoidVNnOImWOFkZURjzMw2MPbH5Nx9s4uxOR5OxKP3Wwc3ldqEdyNQA3qWEzSdO981DQnbh1i/RqRChkGxCflRwRJga8mihKZJvMh2XTkI9dkPP3CfRgQNBDHnattaWlpaVlnJDX7jhZ8eU/FOReusOgdOkUfJBDpEUPd6NxPTg9RLUMqiFrD4gq/dKrzgpOmwXIiOaIplNqMHFaCnLeJx6QC7II03pwXXT/gUecvQzegQfEguMekfk5o6tJjPCZxktdeJPMK95BGSedXeM79hL951A6QKmXSNCN4KoGrgmzCiL+lpaXlcKTyNO+kwYkOajUSlG/uiZz54RvZszSNzmZIjLg4RgFiqQl9rKrlSYHfSddC9TxZEy3WPPSu8Mmnb6GxE8FFEbdN0Q91a2yOZy1JzkxEQJNx5yPvVvD2R/VgMWKquCu44payWGM38HQFr8CNmoIoQFYR5nr87ZeF51yyDBSEkOFeMpQVcJDYBlEtLS0thwdOsJoyGHWs8WhIgMuWIw/96CJ7bp4im1XMSqJmGBkwmuge37VAEFRH/o/NtTEI3o8cPQt//fgpUvigyaIINm0QBZslkLoFZgYeecHJPX7+AQoLjfyBhnRzYOwpyrXO7SmSd88wNWRHl7/7fM0vffImoCLzHDxDtD/mY2ppaWlpmRyCipMxIKJkmXBdv+LcD+5h1+5A2JGR9KPzJgM1oQKSNLILTnNNdHwQwSve8ZgOx8wWTV9UC2zSQMrFKBstjD995DQPuXsf5vsQq5Gq5wSEzQ5EPJJbRDzDFegG3vaFmldesgDB6GgHtw51aE/dlpaWlsOF2jPEunSCsXfY5wkfXOHrNyoynREDBBcyH7P58C1wTxJWiKaAqq5gZZnfO0t5/D2mGLhQS2QTuL8cFJsykFLJCIDFGujwd4/bxj2PqGG5RCRpUemETxBPLfGIVmglhDzC1h28/hLllV9YACAEJVjdmDPTbE5Wv2hpaWlpWcf4aM32ZFnmXhNkSFDlur7w6A8ucfkNObp9mhArJAY8RCIFk1znRRwlNpkphxXjhQ/o8tLTtgFCbhUqgradJsAmDaQECJqjTRnvnjMd/u7RM3SyDB8qIsPU1T1hXAIGmCZ/IpE+bMl4/aeNV312EXBEAzE6eAmedgSTzp61tLS0tHz/GFCZgQ9wc2IE0YybBxXnfniBL91QwHbFY0VUxTHqQ6EN7poEra2GpZwnHKf84cPmGA1iBc0Ryduxp4ZNGUglZH8Jz52HHDnDnz/MoN/H6g7CeJv5vpuUWXJGMgwjdViBbT1+95LdvPoL+wAlU4jiDHQFiwa2id/GlpaWlg1C8KSzNFBPoptZxkIVePyHd/HZm4ewtUeoDBdJk+ZpJI5JVx181My+0uWY2Xn+4uFdOiirQ/7Szo6vZdNfgUWkmUyAnzh5jt94UISFRsBTDm2mx1SIouR1DbNTvOZTym9evBukJqNDsA6q9ThtAltaWlpa7iRcQKjJYw/EuGFQ8pgP7OGL10+RT2VkQyOGQ72gC6KROHRm8gH/+CNd7jo7g5s3rS+H+vjWH5s+kIJUDzZL/VK/9aBZfvL+S7AY09gnANbsCiZ5AiXZf2UFNyfLtsIM/PYX4dcv3gdSkmsO5PghDvhaWlpaWr430QWxQAiR7yxHfuSCeT6/W9AtHdxnwZeTD+zEWeNjJo6XHaicv3iUc9oRc0SLSOMT2/LdtIEUAEIUIcYS6PLWh23jIfcYwNKQlK/qIlqDTFJp3MEzXDLqjuF1n5A7dHu87nPCSz47DziqEfNytQG9psJ8c6rLtrS0tKwbHGqvk0OFg7kjPiDL4JqVIY++YJlLr89hS4ESMR0SuwGLGZO+NIvUqXHcM6gd+gu89qySZxy/HVzSFJ8WEz2mjcTmUDY/CKI5rk5WGeQZu8sBZ/zDXr61OIXOKBmGGdQTT2uudTz+/9l783jLrqre9zvGnGvtvU9TVekBQxMITYougHQChiZAUNQrdo939YJPeHrf5SI+G67Ktbnv2qH4RD6P98SriKgXRVGaKwQvotJ3AgFCE0hIJAlpKlV12r3XmnOM98dc+9SpNEBMUudU1fxCVc7ZdfY+azdrrjHH+I3fkBI4dQEOTHn+E1pe+y1L5fi7TBCjDw1gNBo5thm0SqVSqcxxjM6cKBnNkMxp2shlU+NJf3mQ625QwukjzBIuw9w8l2MvKXGnRZCQ6PuIrWRe/OieV37LaZACJpmsQkSrjOQ2qIHUgDv0kmnMi3t4E7jkpk0ufOsGN8wUGY9KhS/0Q5lvBxAI2XFtin/H2jr/9rzInzx1DwCWyvRtCxmhdlRUKpXKTmE4WEJNSZqJ2vKZG2c88x2HuXo1wtKYmHpMBdvhxVpsDHENPwjf88DIXz5jEQiQchlW7EIjYWcPchdTS3tQysIGASWpkiPgxsNOHfHHTxvDDHy2hrfGjn7iHUwdQ9CYCeMRf/qZju961yrZDI2BTjrUtQZRlUqlsoPoMLWiC07Uln8+MOXJ7zzM1QeFZqFBBHIQXHdaiqH4eIYfTDz+7i2vv3AMKGaJFMFQIuGuH/ZxHFMDKSi6bnWCCdEVEyUbmAkXnd3ymqdH2OhhM0GYt6Tu0IGKM/IOSQEfJ2TPAm/5TMOz336AWTel1TF5p7c3lUqlcpJjOCKRViLv/coKT3jTQW5cWUD3BVLIxN6JpCNWAzuFCNw44577ZvzpMyMTDaTMYMUTaFzLiJh6WblNaiA1Z2jKE6AZBjZqNsB44YPG/MK3ngLTGdJJmXsXDLW7ePr2LTDc2rKLkR6zEljJXnjH5Qs87W2HObS2QgiKW8Y94QaWjVwruJVKpXKXYZ4gO+Y22GgWe52/uewAT/vbzDTvQRfBDNwFCx2ZCLQcy3SPoATPoIqawkbPaAHe8u334JxlwdyIOEGVrYlkx7pp/TijBlIDMo+ihg9LEkjRSd4CkV9+xAI/+cgWX9sAdyTnwf38GFsiSCIZGCWgc6D1DdjnvO+aZR77timfO7yGKGQyTpnRdKxH3lQqlcrJg2Nexny59YMXeebVnz3Ac97ldNrQLG0SbQbSgguZOIRPiWN6HRlm6KklbGYs6SbvfNYC55+q9NYi1pB0sKSeJxiqAefXpAZSt0HjEF2JZuQswIzfevyE550vcLADH2GiHPvC8faPc3FD73RMsIju2eQLB/bxtDce4sPXrRFlhCv0THfgOCuVSuUkwYWQE6YzQij+fv/1Y9fzHy5WvFlE200yi/Qyn1zBtv8e2xClWBlEbLMB2+SPnj7hW+8+oRuGjYl2qOQaON0OatfebeFln6DMUFNmGhlJBje+6+KDvOXSRcKpPbmBQZ2+M8cpgroSfB2nJQWBNWFJE3/xzMiz7r2AmSIoUsPmSqVSuUvI7gQxoOfF/7jKqz7ewN4GiU60HnPFdIQzY+fqZILGDlttYZp47TMTz3/QPjLguSHKDNOAWKzXi9tBfaluA5cesR68aJJGLpgLSOAvnnEaT7jfCnkjQx4Pc/mGU+NYx1MOLl0xS5MJITmylFhT5dv+R8cffHaKqiDSk6EMOsawGj9XKpXKvxqjeEX58L8gTp+V73lHx6s+GeFUQZsZmgWXER4TyDEOom6W9BIc6yeQ1vi1CwLPf9Bp4KAWCDgJQVPEpWPHkgPHITWQug2ESJCIiqBEUFCMPgsjhT975hL7z1I47CgzxJ3gEdFSbjt2OHggeyTJFBPFLaJtAl3kBX/X8bJ//gpIpriA9Jg57oAfS6f2SqVSOUGYN/J4AnoE4SsbKzzxrVfzps9Hwp6ASMJzg2lHkoRby7HdvwqoEVUJWVFNkDKsdLzoMZH/dP4CAEZEVCAIqi0E0OoZdbuopb3bg8/IFkCVIMrVq5s86S3Xc8XKHuLiBO03yU0iy5hjfMZsP0iQiALq6yQfw8o6z9nf8FdP2ws05GS4JEKISI2lK5VK5Xbh3pPdURpUhY8d6Pi2tx/g+oMtui8QvKeXhZ3drDoQhSZtQhrThwBr67zo/Myrnnh3YJPeBHxMI9S0yh2gvnS3A2eEi+A4Zs43LY9457P38U0LRtrMpIlj1lJsx3cOMUddySHQ0KALZ/CmzxqPfctBrtvsCDHhKuUwaxxdqVQq3xDu4O5kF1Qc1cSbr9zkiX9zgOtXF2mXTiWa0kvYuQkYcwRITiaSxg4rzvP3K6964j7AyWmEEMvEjqosv0PUjNTtIAOSMq4ZkwYxIQbnUzescdHfrnPNZkQXRmU0wA51ZACIF7sDj2Vsk0uHWiatjrjvaT1//ZQFHnbWApBwj+U+9USqVCqVr8n8cimSgcjvfOIgP/FhBxPiUsJzi2npzJMMdqxTFVvenuULAdwc1mc89/7Knz1jGRiRzBAETYIpSKxZlTtCDaRuF4lkjtCg4hg2mK4FPnHjBhf89QYrOaKLilkY/DdSCamOZcgvAirEPiHi9EQIDeJTfEOZ6Ap/dOEevv+cMqMPT0A4Kpoqp6GXLVht36hUKicFRzbAR/mNO5StNCABA174T1/lDy8RGI+RcQBrcd8sPyeKaMTtGNrODAGUODgN4hkXg0POd9/feNOzloAGy4aKgZQKimsmyLH2RDyxqIHUHSVnTIs47/3XbfKMt66yniawPKXplrDgZGbADov3XIl0uCp51sLqNfzCk/fyy484jeL1EMiaQAX1gDuoFmd3iDt77JVKpXJMKEaaTsQNRByTjCYFFUSd66aZf/O3V/PBr7Sw9xSatEaODSaBHe10cwd1GptgTMnB4EDgovt3vOkZpzCJipmVGYBaN8d3JjWQuoPMcKJn1ECQsIWqAAAgAElEQVQCvOfanmdfvMbKLBAWM9It4gGyFIfxHcGBIATraHJgqovgPayv8rwHNfzekxcYhQZ3AxTxsmi4O1JrfpVK5SRifkWU4RuXNKyDwoev2+S5f7fO5asBFvYSPCG6TnIFbXZccxqthTDD6LEV4cL7Cm9/5jJRBc9KFxwl0OzoUZ541EDqDuLWMyXSWE8IDSLOB65d4WlvcTZpaZY2SGkRl7SjxykIQQPZZyCCZMVygHXnYWet8MaLFnjAnn0AWLLSORvqrqVSqZyEOKUsJ1KsAUj8/ucO8OJ/UqZ5EVnIRHNS6KEJhL4hed7Z6pgHgmZgk3xomYvO2eDtz14AJpAyU0A10Mqw66/cadRA6g5ieYab0MeAkBh5Ayp85KurPPGtm3TWEidKEjl6MsAxPeGE4JmA0quiPgMxxEsK2FbGtKPMHz1FeO65e4bnlVEVTKSkgiuVSuUEx+d/mxcnmaCknPnf33eY1358DItTQltG27ts4N4QvEEk0Q8z7I75AQ/LsyKoG+lQz7PONd560V5CGJGtoxMnWEPMPdJGZKelJicYNZC6g2QctQ6XBhclWCa5EoPzvhumPPttHYdmhiwWWwQPgpKwLMewVU5AcgmerEWyQShTvkUdsYhNDfIGP/2olpc/dl+5jzvuhhPoFdQyjQWINbCqVCrHP+7FLiar4yjumYggg4boiysznvf3K7z/KoHlBSQm3A0h4DhqxQ7Hmx4sHmMfAUMCeA4Ec7I4HM488wEtb70o0DAiJyMEIUkgWI+LbPkMVu48aiB1F5Ctx0WJEnjvtWt8x9tnHOoaZCkR+gw6xlQHV9xjeeIJUNLVZQUZsmQ+3JaAtcwF92v5y6dETl8Y49kwElhEtMdlirCMVrFipVI5nvFiDZDCFLUGMcPpCWEBxHj7VWt8/7s71tYFlidAOjpQmmeDxMG3DyM+NgSJSJ5iZEwjrCjfdj/nrc+coNqSvCMQkVrGu8upgdRdwBSjyYZ6QmLLJ27sueCvr2fFxoTRCJVYRgbs9IFux70sCi5wuOesPYk/vrDhGWefSsbwnAnW0MeeRkCqXLFSqRzXOO4dUxpaA9EelRF44uc+dIhf+6DCeAILmcFFcKcP+CjUIHhDioYfXuM59xP+6llnAgnvMylGXJR2lx33iUgNpO50Mm7GlIYRPaZKRPn8TWs87W0zrt5YJCyuYt7gRHbVYEgpospgPblbJvRTfunRmZc9ah+okr2HFNAQBgFmpVKpHL+kZAiOhhkiY65YXedH/36Tv7tqEfYkgszIugDH0g/qG0IQmSEescMNP/igdV5/4T6QiGWnL2OUGZMg1E3vXU0NpO5kHMjeETPMghAQxCIhwOcPrPFt7zzM5TeNS6pY0pAJCkPb7A6/FQKKQjY8OJ4VDmeefq7zR09e5B6LLW4dLmEYarlz7u2VSqVyu/BtYnIABHJCogLKW65c4/nvnnFwTWGfIzkgIrg6bju9xm3//UPXXQ9srvIjD1H+2wWnAgFLTooASpPKRj5o9QG8q6mB1F2A44il4rsvgptjCEGNr6xNefrb1vncDWN0Xw8CZoq6FJ902UlDt2JAJxLw3IM6LiNYmXH6Hue1Txjz7PsuAoYjuGfUMjmULpCqmqpUKruVjKPJETFS6IiMAMXcecn7V3jVJcMUh0VFLOMoqgEz29l1mTL2C6w0NIVZMVVeCfzEYzf57ccvAWOSZ6IIjlKMlIHac31MqIHUMaEnm2AeaQJc28149t/ewD9/eRHZFxHpkBDJ5uyeiUfl9BNxgvSkVQMf8aPnGy9/7CJ7QgNuJDNcnKChZLMqlUplF5LdyG5Ely2PvI8eXOeH35359FcMXezQUUOyyCAY3dHjPYIgktFh82qzEayt8bNPgV89/wxA6cwJYnXUyw5RA6ljgpEM1BTTDaIGVnPk+/7nTVz82QD7GiSEwVl8l4kaRYqnijrkAIc32X924PXf2vLIM1p6WsiJRgS0dodUKpXdiSejV2i1jL36vz99Ez/14Rm2OYI9I8QzSMA97/Sh3gwHIqKCbwB5nd+8YMRP7Z8AQsqCq6EeUZXddPU4aaiB1DEgA3SgWpxwJQdiDLht8APvXuWNlyi6vAAjw+Zaqe0GnjuIuhNFyD4MuUTx1RaaVX79icJL958B5OI5Nczkq1NlKpXKbmHekIxkIHDttOeH33uAiy9tYDJCRomYM4SWbI7tlsT6PCkmjlrA1jKEjtc9Vfl3D9gDNKTsmBitO0mVILWUtxPUQOoY4J6LqsgG0Z9kwFCNQM9L3rfCKz/ew+IitBGyIZZBwXf4tBCcgIFGjIznjMcxbCqszrjg/jNefcEp7F9uGYxZyBLQbfOq5tYrcswd3SuVykmBFx3qVjOxQxYQDJ039ACv++IGL37POisbARbHiDrYFI0t6k62hMnOi7PVyjGXoE5hfZPFMOVvLtrDhfdcBCBlI2jGaXBXVDpEIrtHHnLyUAOpY8YQRQw7DAwSQtQpMOJlH9vkVz6wAgsC7TJNdjxMSbbTratbrnPDdPHy3+hG9ohvGIujw/z64xd40f5TASdZGUfjCGqGq2ESUddjPkGhUqmc6DiWHRchMJgci5KsTG4I0nDdZsdLPnAjb7hUYbSXMOpwGBp8KPIFEWRopNlRxGglkPqIjTs42HHmcuRNz1jkCWcJnTuttRCOdB/WPerOUgOpHcLdIDs5BOJQynv151b4DxdvwnhMu5DJjMi7rl4PIEQ6DMHCXlhbg80ZT37ghNc+seE+y+AeyRZwzTSeSQSyKKMaSVUqlTsRBzrPjLzDULK0qDkhlMz/n1+R+dF/mnH4YAf79kCjaH8YQov5dhuX3YLSSsZkRjqgPPCMnr/8jtN4yHLLzIqAQizjMdaJebuEGkjtEOYZpEO9JRFQmaHAO690nnPxButZkUmD6y4LpNyLwZsnlBmeAxrH5E5gepjJQuA3HnMK/3F/BDoyYKkt5cGY0eqIXqlU7kTKlKuM4CQigRmqynUbDS/6wDp/edlhkAkymiChA5sV2xnGoAp2rEd1fS0cIZZpNKsznnTPwNu+fZE9o4x5RCwgOiU7oOMaSO0SaiC1UySnDxDLyEs8O0EFFD5x05TnvH2TKw4Dy6NiCSKwq3ZOoogYmnvEFdcAZPJMYHPGM+4j/MYTFzj/1AZQUoqoOBIUGT5yLlB7TCqVyh3FctFIxdDjGK/7woyff/8616w2sKehUSeZoPS4KkbJWrn4zq+qW2bMASiVCjY6fmj/iD9+6gJQvKykLJhFXmHDylknTOwKaiC1Qzg92ZXogV4dzUJwsJBRUb6y0fFdf3uAf75mAdkHKoZ5g7hjWqr45Z071ieSoJ6LIafGoinIIDGhucVM8CbBSmIyEn7u/AVe9kgHacBKsOWquBdbBQ11IahUKrcTL5oocd9mlilcttLx4vdOeccXDRaAcUS7CLHDBDAtWSiH4D0mskOaqEGT5V42og4aNsndAmxs8LOPc3710WcBRjYIrqTgKII6mPQIitSc1K6gBlK7iLm5ZZOBqMzIfO87DvK2zwdYHhHbGTk1uGQEwXfMZ+DWzOqG27ZadgNMDTY2OO+eDX/wuIbH36PsrtwyWQLiPUEoQValUql8I9iMJKXLTvEhMOp45Sen/OSHZ+QuwvIYNG8bxr7TB30EEQHLwyEJ0TPElrSRoMu8+qmRf79/GbLgGEkhEqqtzC6mBlK7CHfoJBPdCTlAFGCDn/tQx699sIXFGUwiZIWh56QsFLvzDAuSEcuk1QaaxPMfGvnVR7TcfRKBSPaEIkPLbqVSqXx9zDpAUS1D1v/umsxLPzLl41cAi0ocJ/CGtAtlA0IZQ7NVzVMB6WFlxOmTzJ9fmHnqPZdK9j5nUgOgRNfdI+Oq3IIaSO0mDLI6RhkHIDb3mjL+8NKbeMF7Ao7DOCChxVNCJIMGdt27KKBuYIK3Y3xzBmubnHFa4Fe+ueWFD5oADfOPn+zSYLBSqewOttYKilboxs0pL/3ojD/8zAxMkeUJogHvN5GgmO++NUXEcaNk7AXoZ7AuPPjMxBufPuG8U5fBMiaOiWAOjWt5zrXheddSA6ldhDuIOa5CwhAc8aEKrvDer27yPRevcv2Kwp5RORktQZCi3N4yE9kFuWwzRNsy08rWhqpfS5o5zDLfci/h958Y2X/qcvn5XZxZq1Qqu4nMaz+7ys98BG485MieiMaMWyKaYO0yqZ/uLgfg+aG4AYNOq5vBeuLZD4j81TMWaXWE5R5CLEGgQHQpAaTUzeZupgZSu4i5VyfD7GKHEpBI0UMJcPmm8f0X38DHrmzhlAnBu5LJigl1UIslHbzjrgk+aBQimg1CwCWAdWU6+VoPMfNjDx7zS+ePOGuxdPdlHPEeJ6DYEFzF3bIcViqVuwqfb/9mQ5NyLA3LGgbLSed910758Y9s8rErE4xGMAaRAB4Qn2ESQDLijtOwYxvKoQlPEEKfSa0hHgl90btb38DmCj/9+BEv/+Z9R+5Dj8m2AfA+ZOLqDL1dTQ2kjhPch94SEZLP+KF/WOMNnwKWlKaNZXBlaJCUUO0w2QXlPpcSGYoMOzHYcndXgaSwtsYZp0b+08NG/MRDWkQUSPTWgglBMlmVphp5VionNIaTScQsZCKoESUBkStWpvzcP2fe8IUpdALLE7Z2i26DDcBcO7ptTsyOIahkNEPWCa5GyAnUyGuZIMZrnxr5oQfsAXTIOtVg6XilBlLHEY4jyUpaWI1XfGqDn3pfAs/o4gi3hAfQFPFQfn734zBz6CKPPDPxa48JPOPey0AieyLbiFaqPqBSOdFxyyR3JEQiGVDWcs+rPrHKr34ysrYZYMEgsuPKhW8E8SKx8GiETiAI+XDHfU+P/NXTW84/fQH6jAdAQw2ijmNqIHW8YT29O00o5m3vvjbznHescWhjDHsEZR1kAcu2a+QBt40j3hJtk6yCrRU39Kfff8zvPCaxf98IGFO6E4d5UlUnUKmcUBy5AqUhKxOATf7kMuNnP9bzla/2sDghtDPURqRQPMx3/QLngkbDPEG/AIemPOs8+LOnLrCvFTpTyB1tM6buFI9vaiB1nOEORo8axTZAhas2Nnjeu27kH67ci4wbZLKO2WiYnTBU1nbtWEslumE5Y42W4aEbCUZjfuS+mf98fsO99y0AZT5h6diRozak2/z4KpXKLmRL/ylHJ5OKFsqGTZICxsVXHOJnLwl8/FoAg4UA7jRuuAbSrlzK5s9qW3kxGNETaXUJ9BC/+GjjFx55BkrELOMkXAJBqgb0eKcGUschRybG+OBL4vTu/OT7D/OqjyuMDBkLzgTyDAm683qp20IBV4reoaTCRTrYGOOzwNLSCi95SOQlDzmF0yYB6EtQmFtMDciIRbI4UaWOnKlUdiEZw01QN0yN4ENHjGYEBSIfu2HKz3/kJi6+MoLtQSab+MjARohkPM9L/F70l7sJB1EBz7jrIJCfYoeV0xfgvz215bvuMwEM94jLLRVdleOXGkgdx2z5qphBMCDxF1dm/t07jFnvsJzQ2CJdxkKD73wr3zeAQBRCPoz5It5PYHWFU0+D//ORgR9/4BJLsQE6QEgWUEDcEA1QRemVyu4jZ9yNrIKIECTBEEB98tA6/+WTU9706Qw6gcmYKDdhbYPZBFK/y61RHCQSzHHr8DbimwkOBR5zP3jDRQ3nTCLY0ACkgbJh3M3PqXJ7qIHUCUCyjJsRFFSVy1cS//ZdG3zwygyntqg6YpCPg72PuDC2lmncQCUQOiXFhHUZNo2zT2v5iYfDjzywYW8sJb+OnuBCcC02EXWBqlR2De6OZKMPxcolEoHMpSvr/MbHnTdcZnTTBEuBViKehX6UaHKLZmUWu92XgboZ4oaKYEHwqcC046ceHfnNx0wALUOVXdEQ6pzhE5AaSJ0AmCWSKGpG0ICI0fmMn/9Qx2991KGl6AzMYD7kUnxQee6ys9qdRjpMxlgW0IyLozLC3fDpJkx7zj19gZ98qPKCBweiLID3ZRCylJaeGkxVKjuPD2uMeAfaAMblhzd4+cfhdV+cMZ32sDRB4wgwzKaoNziRoFPcjCwjdmeb3jabhbkH8uHEWXuF1zw58J33GgMNOWcMwyUScVTroOETjRpInQDM30LHUYwskTAozd/4pSkv+IdNVtYb2NuCTItjuoXBvC4NjyK7pmAv2qAp4zLDghK7ERISvRjIBCzDrIe+5z5nOr9wXuB/fcAyo/bI8OO5r+l8fasFv0rlrsK3/pQxwmUR0aPWE+fLBzf57U9PefUXEnkaYNxC04IkxGeMfExnGW97pFeQFgtepjfshoXpqGAuoJ5xsWI03LWwusnj7mW88el7OHs5llfEQWw+xssG7VTlRKMGUicYPgjQswsm0Ejii2vGC/5xlX+8LMO+RVSniLZkD+DFh0q0AQLu6ev+jrucuZEnHFk/jaPX0iDQJ+gczLnPKcp/fNCIHz6v5ZRWmD8XEyNYS5ZUGmk87HK9RaVyHOHgGFkgZADFNaMizLcxnzrQ8TuXzHjDlxMbmwqtwTgAWs7r4XEodz/y9S7Z2EHpKHTPR0ZZxUBIM0DJGwK+wS88bplffsQEcPrcELVmxk8WaiB1grH97bTBSkpDRyLxa5+c8SsfglleQBY3y89LCyQwL4vFzhz27cTBW0SMwCawRJrNYNZx9mnKjz0o8sLzJpw5Bgi4OUkdXAke0JqeqlTuHByyg6mjllGZBw/GB29wXvmpNf78S453hkwWUTVMZrgsUjp15926uxcRwH2QDpTFIzCD3JLXhXPP2OD3Lhjx1Lu1QEPKxeNPVYeAsnKiUwOpExAHkmciPVlGmEGrJfX+oa9u8IP/aHzx2gx7tOTfmwZyBs+Dxmi3I6h3eMw4C8ROIGyWYGktwjRw2qnG/7YffvSBgfstLzO8KsUv2WPdKVYqdxAfslFIGmbDRaDnXV/d5LcucS6+3PAuwmKHjBMxjTCfkEdTNG/ieVzKYrt++2bF304H6YD1sOmQhf/locofPjEyCRPMoXOlpUfcyaHleFhNK3ecGkidoGQzTBLRMmhL9oy6okHYyD0v/sA6f/DJHjTC0qjstHIeNodzZdEuyq3fHAElIp6KczALoIL7tASEncBGpllWvu8c5acf0nD+Ge1w56aUQGswVancQRzIJBP+4gtTfvvzxse+kouOcVnLDDxtwBvwDiWhNJg4tjV/czfiZU0sk+PLTaGFbgZrM5aXjVc/aZEfvN8YaEm5Q0VQKc0/Lg0ioWakThJqIHUiMrylSQR1EBxDUPdiBCdFfv3GL/f8+Ptv4tobI+xpEUlAg9Bh0lJml6ct8ejuwlFXXMBDhsQwcd0GjVVEyXgHPjWY9Fx0jzE/dt4iz753JtAyN/ZziiZLvAxINcDE8GFYRUnm13pg5cTGHGTQOwEEZ5gkAOBkU1RAtkYJGFdvGn/2Bec1lx3giwcUPCJjIDS4KGIzkFDMNGNZSTTHoYttF27UxAc95gi1aXFdkFCMNnuF6ToXPmDM7z9hH/dZZNCIledgsm2tBXSup6qc8NRA6iTE8cEBPHH9pvF/fDDzV5/ZhDYQxop6R/aMSIMQSLt9LThqPZ6rVUvGSbzHaMvtK6ugsP9uLT92buAHzl3gzIV5gCR4dkyVwBTvIxYiojYEoDKMsKhUTjzcHTdHxDEJSAZlE6Jig7O4bAnIEx+/LvEHX4DXf3mdlYMdjMewsAhpAw2C+bxkN5yY4ru/ggeUDVoZqBXFMSBbhLXMZNF4+eMWedF5SmlmUbbizMpJTQ2kTlLK2+7Dhinxxi9N+ffv2eTAaiw2CZqJEskp48fxrkqGNuVMKq3WvcFmgl5Z3NvzvPtGXvygCQ88fQi2ADdn5plWFTXF1XEpJYlK5UTEMLIb0SPi0EvGgXab51HyGe+4YsorPuv8w79YOZfGTenAU0P7jIYRycvopuMyxHBHVEGsrJF9A2srXHDfwB9fsI97LZfRNu6lM/g4XhordyI1kDqJSZYwy7QqoJGrNjIvff9h3vAZYDIhjKcgY7IfD6NlbgWhlOz6nqBCJiLegCRMO5gqdBAmylPulnnBufDt91liqR20VD6llwbzyMjzMNqhUjkBccey0wVlJNMhYz0C4IqDG7z+shmvuzJw+U0OuYeJItERGxe9ofaoG1kED01p5TseOOry50AgKJgnfCWyd7TOf3nChBfvXwIES5leMm1ohwJepVIDqZMayz3zXaOIlKGbwJ9evspL3zfl6oMKyw3EYcCoFwsBZKj9u+9qPXpRLzjqkewMZTot+qeY0W5UJrDjsFGc3u95qvH95yjfe7+Gx50xomSpAuYJlcBRbsbALn7ylcpt4hQtoYgMsUQeylQBSKz1mXde1fHfL0/89dVWvJI0wEQQA4mCiaO5TFLIgJqUr8XY1ZpCd9BBSO42OPbObXsVphm6GReea/zu4/dw3t4yisqsRxA8CxKkZK4qFWogddLjg2JK56ZTUjRGB7opP/nhGa/7uEOMyCRDCEUg6l7WXQl4CIhtFtH2MJ5lN1H0rIM/ljh4X7Qe1halmFgZLyMK3sK0g5nDqOMJZys/fL8J33OfwL7xmPLcDHclYyVII2KScZTgjriACC6DDm1XB5qVExKfj6YbPo84mVwaTVwpkvKEekBL+yvlQ5q59EDiTy6f8bovrXPNgQYswFIDURGfIQLmYzBHQ1c67zyUIGsIpNxtF4qsBWHYOGqDW2J4QRAvmWbPDoeFfft6fvOJgRecu0CxdBCwXHr3NNzMsb1SqYFUZRuOY8lwU2JbrMT//prD/MR7D3HJ1XtheUQc9RiKWo8ZuDa4DnYJu/aTtH3l226VPnzv85/Z1mWTM2xE0Mzpi5t8xz0W+M5zR1x4z8hSECCWCwYdYnNj0+HCFebGpvPA6pg8yUoFGPSPMnTcAW5GOT8NkYRpgxCHf+24fF146+Udb75inffcYKTpQul+HQMxFmdf9y0zyqPOnVtkaOe378LFQLUYD1tP0IxLUzZAZvTrLeTDPO/BU3798XfjbpMRmJB6J7Qwz7DtuviwsiuogVRlCzcjeU/vI0bmSOOoKIf6nv96yTqv+NgGzBZg77isqZZQ68jSUoQFR0qFxzvBHQsJ9wDTAD3AlHNOc77znJbn3lt5zBnt1mgdgOQdIsUwQZzqIVPZUWxovy/ZJ0W3AiFnfTbjrVd3/MWXM++6qmdlvS1BU2PQJIIH3AQ7HvwyvyGKoaakKSKOywgk4jODlVXufbbzW49f5nvvOWHewdtnJYfMiIyE9gRZ2Sp3BTWQqmyRzUnujCRjUvREWZWAAsanDnb86Ps2+cAXN2C0DHv3oN1BRCAT57MUhkc7vvPfSqRxI1tHVkFpySowncJmD0uRh58Gzzk78J3ntDz8lNFgjzDXWpTnf8RqolI5NviQHZajzHWF9dTxrmt73vyljrdd61x/0zDActIiMSLe4WRaU1xbejH8eO2+uxXEnUBHDi3uS3DTARg5P/3IBX7xESMWm+IhhxmK4+KYBUyURk+M16By11ADqcoW7sWMTsRL94046sWkU7dM+JQ//uJNvPS963z10B7YC9Ionq3oDawEET4Xcx6n21mdT3V3RcSR3JcQSZQsI7yfwcwgKSxkHnla5rvuNebf3Cvy0FNbZHuH39YY+EHYK8W8r6hVjsaGwGs3ehVWjj0+nD9bervyzZHi2hDnlKApD+W3Ix+c9VnHu69LvPmKTd5yjXH9YYEUy+DgdoIEB7ryeTPHYosIxUiTgPlx+iEc5v0VSecQTEpANOFrQNdz4f2mvPJbz2T/8oji6Btxz8MQ5kgznLcuWkt6la9JDaQqt8rNe9J8MKnTIet0Y5f4+Q+v8vuXZjyN0aWEUeoAKgIeKL08xyfC4CMjikgcupwy4lKEvD7oQ8SLIHeawBJx7DzyNLjw7Ian3iPy+LNaFnToBqII9c0dcyFgEMBQxMpibeKoS9FW1aagkxcrn5XiYaaIlfPOpC+aPA9F4+0dKrG4bwPgXD1NvPvqGe++Wvif10y5atWhj9BEaCPIvAQ/ZK4ozbhHPqO27fO9I8/+DiNexrW4JIyI4tAbtu7c7ZTErz5uwvPOXSzP2AGRW6i9ZOu74/RFqBwzaiBV+VeSAeO918/4mQ+u8YErRjBqkEXKPK1sJI3HaT7qG8T9SCs1DKNprJT+OoWJ88BThaefOeaie2a+5Uw4ZbJAee0aQMg44kbOxRw1EiE4uUj6a1nwJCWTETLqLbjTYyU7rAGRITCgY67P+9KhDd51beR//EviHw/MOHyIEjwtGUQtnXXCLT+zJyRO9EAw6KNhOcOqMBrNeOFDhP/r0XvY1zSAbmWr6tzNyh2hBlKV203GseRFN6BlZMSfffkwP/uenqsO7IM9GdoZeDxeK3vfEPPF1+cXJ0CkKTP+cKwXSD2ksqs9ba/wtLOMC74p8IR7tDx4rxJlLlY3IJEoHYHRhqKOSF3kT0aG86aXTMCH5OTcxyyxkowPXp9439XGu67NfPBGJ29ulMG6GqEtZWiTSPGAO1IDLN5RJ/CJ6QIxg/ewtggbMy7a3/OKJyyxf3kCQM6OYTQh7vDBVk4EaiBV+bq4H71jy4BbP9QDlKCGSOCmrucVn17llZ/sWF8bwVIoNix5qB9siTnmhn2D5cAJk3URBEG9x0UwaRHJRHpScrxvYSrQZGSUedQpwpPPynzLWYFH373l7EmkXCyHC6bPTRSowdSJzlxPeJRAfP7H6BE+eyjxgWs2eM+1zj9d3/Avq1aCdBVonRADSCyTCDSjuZSIPUjp4Dth2N7QMXztg3DerXQQbwDdjIed3fNLj1rku++1t9zTMikrhLJlCdqcMKtPZeeogVTl6+Jb2ZYjKoK5+km8x10I0gwXgcQXVhK/9NEp//2yUuKSPQ2qRjYGR/QGdMbcNbwsgicKoRTs3EAVcUdQxA3TpnTx2Sbo3tgAABqsSURBVBT3FmYR+hk0HactRR5x6ognnAFPOjPxsDPHnDEu5Ydb4PNJ80d0HD7I1NXnWhop31N6B9kS3MogYK5FwztCuYRbMbR0BudXcHR4Lyil2fn1XbZ+BHDy4PN0W+aOvSWuXNnkw9cb/3RDw4euy3z68Iy0aSATaBTCtGij4hjxbjDVDZjn4u3mWgIpPZIxPSEQLdkmCUgOuHaIK6KGdQHWO07fBz//8AkvfHDLYgzgQnJHJQOBjMytNqs5VOUOUwOpyp1CuZYM4dUgfH3fdZu87CMb/MMVTfGoWewQMiE5qYkEEUgUW4EThq+VYTvS+XhUNs4V+gy9lD9N4vR98M17lcedITzurMT5p7WctdgMjz3vzBoExp5xMkna0qVkRqCIbU0SGR8CLEW3uimlXj/uINltKxw1DJeMuBI8Iu5kTbiFokeSTNwqr82HX2fmGadszmWHpnz0hsyHrot84CbjkoNGvxZK4BBTCZ5iKDq8raxM+e1HwuoTfzlv3ElR0JRQIKngfYRVaJedF+1P/Mz5S5w1HmZmZmcwdK/bh8pdQg2kKnca7hnByC4Iig76qTdfOeOXP7rJx68F2hEsgPZjVDewYFhutm/XT0IENCFuSG4xFNKsBFUaQHpOGTsP2Rt5yFktj9tnPOK0zLmnLDAJOsRt8+CsmIi6BNxL56Gbl9FiQwwVbPtokMq/Gh/0guJF5ZbLwCVVK92eCIIN8+vmgU4ZTXLjrOPSGzo+cqjhIweMS2/o+fxqoutD6QKVDKNQsi7eQ2M4saQiT3I09NBN8CC4zOAwxLbjuQ9o+cXzG+63bwREzG141RVzR7SGUZW7hhpIVe4UbC6I9bxlRWkYTkOQxIY5r/+s8PJPrHL5aoZmjMZY2rs9ceLopP51iGmpWIQE2QkWkeiYCZZDeY18VuYA6oQwEe4/mnHeKfDAMxrO3xvZvwQPOD0wGkbYHImU8ry/vdg4iFIG1u7Usz0x8CFwFTegjAg6OqidAsKNG8bnbur5xGrDpw/N+NINmU+vRr46bcpsR51B24COUVUk9KhBNjDtEQmINRh2km84BqQpTRx9Bp/yHd+0yE8/asST7l7CJvOIDqW/MmR9Xs6uWsPKXUMNpCp3EkXnZFYWqzLcNGEuCIGgAmRmsxmvvHTKr3/OOPhVhYUGFuAo4c9R5bGT4+Mp2/233FAygpJL7qgMi1Yvw1ZtyG70BmlUBMeyQTMR7nVKy4P2JPYvNTx8X+S8U+BupzSc2RqR0dc5Cp///6gjm99y5B255XuzGy9Q85VNtj+jWztO96/5KZOj/7r5nYfbMxuWuXbDuOqmjk8dCnzmkPPZNfj86ibXH+pgNgIZQevQZAbny2GE3ZHAVxyUTHZHtUHEy7l01Gy7E53tgvvhOYuUZWbVQXsedW/4zQcHnnKfMRBxwtBBW0qoIgEfNgwi28uflcqdSw2kKncSR2zsbh4GyaDhsMEkD4yD08Rvfm6N/+eSxMqhAMstRCfk0tGXVRFJBHeyB45Xg+VvGB0imKSlCyt4SUkIoAYWEIu4GMV+3raGsIIVq4ms0PeQ2/LvvgaNc+rSmPsuOvfd07J/MXOfPcI998I5S5G7TcZMwvYLzM01Xn7U18WYlCJkpvyo4UVMvc19W0SO6FGG20x8uJTd+pJTGte23W9+u9jRt2y/+5BtsMHEVGUuqKdcUKUEfu6AG0FLNq6YrfoQV4WbPfhtBUxl4M/B3rh2fcaXV50vH+y4bKPhsjXjiwc7vryhdBsz8Ba0LSrzALRFJ1U8nCjvt3n53fOaq/bD7WErcBOT0rgQ5nq6W33pTgjEi6O/xQw5osNUAWOGB4H1CLOOh96r4z8/fJHvu88EpJhDlP1XcXa/9aFMR9tsVip3JjWQqhw73DEr1/tGijD9ms3Eay7p+N1LjYObRRciLQSb4TohS0vwnnyif0zn1+/5Om/bvp7vzmXefXdztu3eRRCfp5ViaYhMCSyX+7qXC3oDp4wa7jmBe00SZ+4L3HshcO9x4G5LyjctOGcsRM4YHT3s9sjBDR2XR90+PL47SBr+RcmDRii4DUkFK137CFHkSHzg83LZLV+becZLKA/fk4f2dUUdsgkmimKolq5JnR+j3FqgWMpyR0TbR17DTYfrNnquW4NrNpVrVzNfnjnXrGauXs1cNS2f2+lsaBSwkpFCtfg4NTpsHuxmb5fcaqLlyHHpUR2A2578zT4PJyhuSAw4gZjWoFFSUtgIkOGxd+/4qfNHPOecRVQGS2BXmuwQpHbfVXaMGkhVjhmJHsyJ1tJpRjRT+pcarluf8YpPb/B7n3dWViPEQGgaQmP0voHTfJ1Hr8y5NRmNiw2aEdi6iuc8dAtuTW6DECAYbcictjjm7qPAGRM4a5y5+yhz+kLkrKWWM8bCGW1ijzrLjbI8FiZNGIIXODo4mT/+9syPbfs5bnb7zZ/ArU8lPPq+Trm06rbbjzxWZ8bGLLPaOaspczAHbugi12/03LA644YpfGUauXHTua5TrtnsWdnogBb6ITs4jx2jFq8iHbKHgMx/9zzg8fnrfsv3onJrCGgmWGbSL7Ghhs06yD3n3c34zw8d8QPnLqIacTI9mdZbyE4XZjQyqh15lR2jBlKVY0Y3VDPGJExBcsRyxlsnDu3812xOec2lU1752Z5Dq0PLd7OwTTtV+brcmrzMSgeZihV3KVFM5iL0BkxwLTYKZc4bkAxyOpIRyQ4Sy5+QQROLUVhsIuMGlqNxxsjZNwnsawILUViIzkJjjBvh1JAYSWAcIxMNtMFptScGpY1KCKHkrm72NpsK2Z2UM13KpAyz1NBZZjMbnWfWsrPaK5sJVvsw/Nc43GUOdMZNs8BmD9PeWOkzXRbIQxecDzYEUYcSqw+B0lBiVUGHuYs+ZKBEBJcOLA8lqAYTMLHyb/M3oH5kb4V59m2emmN40wMkgekUBB5z98jPPGTCd587nxbQkHImGGgTwBNuylSVUW1CrewgNZCqHDvMcMvkGIiugOGeEA+YKKihBCBxYJr4/z4z4//9QubqgxniCCZDVsUUPA0rZxiSE4NHT/00A0clRUog5CVgEJlf3APo0M006IWKJsdRDFc5kryaVxRFEbzoWLZKhUMWZt6Wn7cFD+JHHkCGsp8WgTXY8PWgB9qKnm7tDZQjBzFPZPkRrRa3uOv8+YZBue1DMmw4juBF5I0iQTEZhvQOpUffEn37/GUpQmbmxz5UWQGw4WeKvaOTkKEUWpfWbcxrslsZw5KdLvYeBinAehkt9ZizW152XuA7zhkBzaCBKwanxROqrBMlBzkUjrWOeqnsHDWQqhxD5hfWuRbkaKmIz2WiZltDVQ/Oen7vC4d5zWeMK24UaErXk0QrmmsmWJgN2ZK6J71NxLddyEpgstUUPr/IDaadRwzsHT9Kd7ItKIJ5dMVc/F5muFECEpcjou+5+Gt7BmLrnZ+bin6dZWirBW/43br957eJ2ucBWXEmHb7epvHy+QV3u5v+zQRq2yRf80So49uyosWI0yUO/+hH3+lkxwet3nwWpZVmAVcvsygzmExx2tJcMcsgU552b/jxh0a+7exTCYBjuAsq8waWbX9vlU59uKWe+5WdowZSld2HOR1C0G7Yd46Ypil//qXMb1+yziVfTaAjWBgjoce1R9NSWXi1elLtWm6x1Mjte6u233/HhcVH5fwqXxNHTYtnnHaIN/hmhOkmcdLxveeMeclDWx57VgOMgE2mjAhZacS3dGiVym6lBlKVXYUDPYk2RVycTnvUlUYDc/HwW74y4/c+k3j7VT3eOYzHhCi4WBnOuuMX2cpdxs0zU5Xdy7ZLS9CI5xnWA7OGs/Y5z71/5sf2j3ngcgQiGegtMwaciGku/mrUsl1ld1MDqcquI2dDMEQDYlJEpSFhPkIdJAgw5aPXb/K7nw68+coZK+vDHLJxONIcZtvLMds7udj2ff34H3fUYHkXsN3HAY64uXN0pdSlGMbOOnDl3FMDL3hQ4ocfMOLMhSXAsQyoI5bBmuJYwdD4oLE0R1Qqu5gaSFV2HwmSJkQhoGQMM0E0EDwVHZX8/+3d649kx1nH8e9Tdc7pmdn7hV2v7fVVxolgicmLyIqI4wglAinKi5jIL5F4Cf9QJAQveQGKsAhIWFyCEIgsWASwYuys8drZ2Nmr9zoz3X1O1cOLqjPTO17b6wY7e/l9tOvx9nT36d7t6fPrqqeeGmt9et69nvmjN2f84U96fnYhQWhhEqADcysrrejLydcm9ZNyTwlV46dd/RiIfLxSE2dk8IhbW+rjfI57BAIWMj6kUkA+76Fxvnq84Q8+3/HCI4EQW7Y+7eSBHAJ5XHxSD9GQamPSoMwsdzwFKblrlYGJ7XL1ITkvvXOd757q+bvTDvMWdmVY6SANhEzZhoVUlqrXLtdl5Erv1iIfq3ZmN5wmjesNIilnPIayUGTqMDUOHRr4zhPw+0+vcuLQ2tZdlG2k/I7cVkhkGQpSctcbX8JmPdCCJ06em/Hdt2e8fDrx88stWMRWgWYoy63TCp6NaHPcnExdgSUiHyowkL0BWiwMmM1xWnxmMIXQ9Jx4MPPiEx2/d3zC0b0dMNRyqVafV+SepCAl9448kMlYcIzyBn55E753ZoM/fnODf3m3hY0OVjPWGV2GoWlIwUuXb73Li3y0GGkGB08MABvA4OzaP+V3ngj87pN7+NrRZqvHm9PjyQghlp5hIvcgBSm5Z8xItDmCJbIlGm8oe751QOLkpRv8yRvO905n3r0yQNoNuwdoMqVmY3HbEf1YyL1ssYPbh9nZIr/UJDKbwOYAqzO+fKTjO0/Bi493HFtdAxJ4wr0hhYEmd/SWcZyO+PGHFLkLKUjJPcMX3u9rK8D6yxYGm5zLsyl/8W7PS28FXv7pOptzg9zA6gSLA2a5dFuvzRejtQzZgYGG0qQyEconbM8ffCAidzorW6w0XrqG5xAJtSFuciOQMEu4GU6HzzLM5xATj+5v+NbjHd9+NPH80TWo+2BuN8oci8brh5La0DSARn3lnqQgJfeH+jLP9Y08MADOW9cz3z898Gc/nfPP5waYBggddBlWWshzQs64tfVksIIHIwzrYE4y1VbJ3cZpvCeFjlJTOMctE3JTpuKaSakI38zQBwgz9u+Fbx5reOHxjucfbtnfOhDJxLrDjxZsyP1LQUruH+6U7Wmd6Ll+YN5uf/Cj99f507fm/PnbxhsXM0wjrDqs1Z5WKZM9YNnoAiRzBvW4kbuO03nAifQpYdEJ0UiWYZjBukO/SrvbeO6hnhcfh28+sotjq5Ot25fpO0ghENxKmFKQkvuUgpTcXzyDOzlEkqfSpcoywRtiHV2a5Sknz2/y0jsN3/9Zw5sXepgNZYRqLWM+lH3CQoSsLWnkLmNACIRhXrZtyRFuBEgD3d7As0cjLzyS+K2HA7+8b5Vx6i7R4+Syabg1ZbNgz+XnQOQ+piAl9xX3WjcVynYy2QOt51L3FKDJCQvdeG2mecYPzmb++nTib94d+O/rtdjWp7C7Beu4aWrPx27qC3uxjdMeW1ez7V1XRf4vbtorefEPOwvF6+VWX5f9BmxEaAPdpOe5Qx1ffyzw28c7TuzvWNxMevA5Hhra5CTKz0k0J3gom1NrLzy5zylIyX2qbm8xdlQ2Kx3TvTYZpGxTAQPlE3lglnt+eHaTvzrT85dnI6+fzfg0w2pXTiaNYzGX2+eyUStAjo55IGC4Bdwdt4Ui9Z27bYjcBoPymsLBM7lxyEbIEfcBb8oL2VLAc4YUoXdIc9b2dHz5KHzrocw3Hpnw9L6Veo9l8ru0LijNaq0ewy0TqDsKWFnhejtr/0TudQpSIh+jDDLlhWLaTBrgPy8NvHx+k5fPTDl5MTLdAPqu5K4VwErtSGuZhOPmEAKeDffF049OR/LJGaVTf8YwL4EHSu1eWYrnsGmQMrQzju1xvv5gxzeOdzx/pOOhveNCibpPntdgpJeiyCeiICVyO9zJnslWTjhN2NqVFUi8ccX5p7OZH5yd8Y/nZ5y5Vj/9hwHCCkwmWEj4kMutws7pQJ295DZtdfI3zBNOwGKLDwmfb9bvd7SrmV/dB199YJWvPBB47gHj8GR72toxBncCGfPaNFNEPjEFKZHbkTN5SISmwTEypckgFmi2QlACem70mZPnjH/4WeZvzyVeueoMV9fBWugmpfwkALFsAEumbqg8HmwMaNsjYB8csVqowQI0qnWnWvx32vlvtDinu3i9HU1hvf5nMWyXtmaQWxgGmE9h0nBgb8dvHkp87eGOrzzonNjvYE29z4B7wL1M3xmh9HrKCU+J0HWIyCenICVyC+43b6rqwOClIadZIBPJnjEy0UttVR9LBcn25/oSlN6+MeNffz7w9+eMkxdmvH5lxnQ9gkdYWYMmlZqTWn5SRhSMQGm3QO0IbThuEeiBXG4/npit1HqRx61uFKruBLWCqW6PYrWBq4ElSkBualFeAm8Bx2yGmeEe6yq5XBtoOngDc2C2AZPM4d2ZEwfXeP5w5DcedL54ZML+dsJiaJvjRJyYM06EkHAihmNep52JNLbdysMXRr1E5KMpSIncpjIZMlocQfhgvVN2LyeqrRV8JVTNc8/rV3peuQQ/PJd45ULg1cubDL2V0YWmgTAQYoQmk7MTvSm9on3AggNNGVmwXAKYByyHGsRKO4aba7DkF8Us10GnUo/klsrlHuv3a2ezXIOWAU3CspH7ANmgn5c7i4mDq4EvHp7wpSOJZ49Efu2g8eiusVC8hmlKeZRZ+JA4ffMI2ParWK8ZkWUoSIl8Stx9a+ImWi5ntzAW+BowkIcZr11rOXkx8+r7mVfem/LjdefKDJi1QCp7AU4iFgKBRCJiNDR5AMv0ZCynUidjbRnF0I/1ncEMc7A8x90JTUPIZRuWHCOBVFbcEaHvoc8wdGWUskk8ttrwzCHnmSMTnjnU8qVDmWNrA4S18QD133qoo6RGHGeJNZok8plQkBL5tGUnWVm1Z0BMGbeEh0hgDFYzynK/OWc3jH+/CP92bs6P3u/5j2vGmeuRvF6bH8YeQoJuBeKEMpIxh9RTpgHrKiz5hTMMz3XqNk7Kno4kGDZhPpQ/5wjBWdsXeHpP4tf3BJ45FHj2WMuv7HPWunHCOAMdTsZJhFTqn4ZQNi8KGaIFzeqKfMYUpEQ+RY7jeayrcrCyTD3njJkTUoRsOHNoAmblumWapkwDTVPm9SuZ194feO3ywKuXM/91reGdDfDNGQwZaKGLEDPEULtN+8LvW51dd17mt/jezreHnUXuH3f57X5/PNatHuf/RyG9bX/5wFvezsf2Yc/9o24zcrY367XS+T4BvZURpzBA17G6a8LTqwNf2Jf4wuGWzx1o+Nw+4/G9AegYp+gAEo4lL2VVNNBkkmWMiBl1GjkQ8DLqFbRtkchnSUFK5FNUYowTsO3Fd+64le7muV6ptgPFfIAA7mUEooSqnSf2zLXBOHV5xqmrPafWAz++lHjjuvHejcyFacIHLydwa0qoCglihFjaK1ooDRZ9qxGoY0Q8h1r4ninF66V2p2QDr53hm3p9ry0ZIW312RpP4osrDseDjM/Fbp1VLNRi7J1vSQur2Ma3K9uxsm3rOFbvh4Uu86VhpQHBjWxWq91qGLKEjc/E60rKUJpSbj8U325TEUoROSnU+wkwJEi1e32al+s30DXOsV0tx3cbJ/bD5w9EnlzLPHlwhSf3NJSemYvBx8FrjHInWK7HiDVaeV3gWV5PNq7mq68pt/paE5HPjIKUyB3Kx2XvlS0GkO1rQe1InTxxcQpvXs785OqMU9cSp643/M+NxJnNzKX1OT438AklDfjY1RHacTrQt1sxWCi9rwzIJeq5BQJ9vaZhdcNaH0vxLWDuBC9BzG0sYQ7kMQNtdXUfA41vr/S/RV3PTZf4wp/r47fxvtyBXJb1e3k8HkJ9nKkeyepxHPNE6eDdgKfyV2IlMHkOjF3vy4q6BlKAlMrvTF2JN4cwMFltOLra8Nhu56k98NRu44ndDU8djDyxP7K3gXHPug8+K6+/ttOlVsuJ3D0UpETuYrmGh7C1d98YiDJj7yAYuLiZOHMjcXoKp69l3rmWObMeuLjec2ZqnJs504EyTThPpbWCtWUqqgkQavAKCzU4VkZKSv0PdVucRDRnIOAWygiP161MLNXROd9qA+A21ohtT0H6jrRonuoxA1t7xeVcAqDXJOWhNIyw7VGrSK7L+yMe66hPqve9eJ8p1duMI0t1SCin8ryaCI2zfwUeWjGOrRpH1gKP7IJH97c8uSvzyFrk+K6GtXZhpGtrFI7y/25lvYEaX4rcUxSkRO5iZSSoTvq44RkCCY8lZMRMbfzZU2pvxpDSU1Z6tVzsA+dubHJ23Ti/4ZzfnHNm3vDe+sDVacPVjYHzs8S5ZNzoHYZQggzUwOHbfY7GJo9Wv5nrV891xSLlMXj9uhUAP6ouaSFYmS/cfry+gQ/bx/Aa+OrIFLUB5dZjGkOhGUQjNpkDrfFAdA6tTdi7kjm8mnl4zXi4Mw6tTHhgz8Av7Y4cW23ZE8YeUC0wPqe+fm3wPJBCg3lfgps1pW1Ffa5G1OSbyD1EQUrkrpbLBrWU7tVjZ6BxLCQkK5eFAQtG9lC2FrnN+4ZEduNab1zu4fK059J0zpU5XJhGLs2N61Pj2tyYDgNTNzYTpDSQ3fHQYLEtYcv7Mk1oZTrNyASmlE1KwkLd0y146SdvnjALJJuUyzyVMTi3OtWW8DyUe7RIGyOrIbMSjbUmsnfF2ds5R1acA93AgS5weG2FfV3gYOusNePf3O2NGnmtnTISORtGg1kmh1AattZ+TgBuqWzHQoOW1oncOxSkRERERJakdbIiIiIiS1KQEhEREVmSgpSIiIjIkhSkRERERJakICUiIiKyJAUpERERkSUpSImIiIgsSUFKREREZEkKUiIiIiJLUpASERERWZKClIiIiMiSFKRERERElqQgJSIiIrIkBSkRERGRJSlIiYiIiCxJQUpERERkSQpSIiIiIktSkBIRERFZkoKUiIiIyJIUpERERESWpCAlIiIisiQFKREREZElKUiJiIiILElBSkRERGRJClIiIiIiS1KQEhEREVmSgpSIiIjIkv4XTJCjnTy4GyEAAAAASUVORK5CYII=;fontSize=11;fontColor=#999999;fontStyle=1;spacing=-6;" vertex="1" parent="1">
          <mxGeometry x="522.2019539427773" y="717.95" width="54.175303558967194" height="57.554068387997205" as="geometry" />
        </mxCell>
        <mxCell id="daVYDinwcuLWMbio0a9W-83" style="edgeStyle=orthogonalEdgeStyle;rounded=1;hachureGap=4;orthogonalLoop=1;jettySize=auto;html=1;exitX=0;exitY=0.25;exitDx=0;exitDy=0;exitPerimeter=0;entryX=0;entryY=0.75;entryDx=0;entryDy=0;fontFamily=Architects Daughter;fontSource=https%3A%2F%2Ffonts.googleapis.com%2Fcss%3Ffamily%3DArchitects%2BDaughter;fontSize=16;" edge="1" parent="1" source="daVYDinwcuLWMbio0a9W-57" target="daVYDinwcuLWMbio0a9W-37">
          <mxGeometry relative="1" as="geometry" />
        </mxCell>
        <mxCell id="daVYDinwcuLWMbio0a9W-88" value="&lt;font style=&quot;font-size: 12px;&quot; face=&quot;Helvetica&quot;&gt;ip interna 2&lt;/font&gt;" style="edgeLabel;html=1;align=center;verticalAlign=middle;resizable=0;points=[];fontSize=20;fontFamily=Architects Daughter;" vertex="1" connectable="0" parent="daVYDinwcuLWMbio0a9W-83">
          <mxGeometry x="0.0259" y="-2" relative="1" as="geometry">
            <mxPoint x="3" as="offset" />
          </mxGeometry>
        </mxCell>
        <mxCell id="daVYDinwcuLWMbio0a9W-57" value="Jobs" style="html=1;whiteSpace=wrap;strokeColor=none;fillColor=#0079D6;labelPosition=center;verticalLabelPosition=middle;verticalAlign=top;align=center;fontSize=12;outlineConnect=0;spacingTop=-6;fontColor=#FFFFFF;sketch=0;shape=mxgraph.sitemap.jobs;" vertex="1" parent="1">
          <mxGeometry x="511.63677599441723" y="616.8" width="75.31612002791346" height="47.79615384615385" as="geometry" />
        </mxCell>
        <mxCell id="daVYDinwcuLWMbio0a9W-63" value="" style="strokeWidth=2;html=1;shape=mxgraph.flowchart.database;whiteSpace=wrap;hachureGap=4;fontFamily=Architects Daughter;fontSource=https%3A%2F%2Ffonts.googleapis.com%2Fcss%3Ffamily%3DArchitects%2BDaughter;fontSize=20;" vertex="1" parent="1">
          <mxGeometry x="924.3063503140264" y="473.57826923076925" width="33.473831123517094" height="44.46153846153847" as="geometry" />
        </mxCell>
      </root>
    </mxGraphModel>
  </diagram>
</mxfile>
